<?xml version="1.0" standalone="no"?>
<!DOCTYPE svg PUBLIC "-//W3C//DTD SVG 1.1//EN" "http://www.w3.org/Graphics/SVG/1.1/DTD/svg11.dtd" >
<svg>
<metadata>
Created by FontForge 20090914 at Mon Jun 13 14:27:13 2022
 By www-data
(c) !22! Soft 1992
</metadata>
<defs>
<font id="VantaLight" horiz-adv-x="1352" >
  <font-face 
    font-family="VantaLight"
    font-weight="400"
    font-stretch="normal"
    units-per-em="2048"
    panose-1="2 11 5 0 0 0 0 0 0 0"
    ascent="1638"
    descent="-410"
    x-height="1167"
    cap-height="1626"
    bbox="-29 -451 2445 2052"
    underline-thickness="76"
    underline-position="-93"
    unicode-range="U+0020-U+2219"
  />
<missing-glyph horiz-adv-x="1536" 
d="M256 0v1280h1024v-1280h-1024zM1247 33v1214h-958v-1214h958z" />
    <glyph glyph-name=".notdef" horiz-adv-x="1536" 
d="M256 0v1280h1024v-1280h-1024zM1247 33v1214h-958v-1214h958z" />
    <glyph glyph-name="space" unicode=" " horiz-adv-x="717" 
 />
    <glyph glyph-name="exclam" unicode="!" horiz-adv-x="590" 
d="M197 0v209h163v-209h-163zM225 397c-5.33301 72 -10.667 176 -16 312l-8 270l-4 188v459h163v-651l-16 -258c-5.33301 -148 -8 -254.667 -8 -320h-111z" />
    <glyph glyph-name="quotedbl" unicode="&#x22;" horiz-adv-x="795" 
d="M274 975h-122l-21 651h164zM606 975h-119l-24 651h168z" />
    <glyph glyph-name="numbersign" unicode="#" horiz-adv-x="1503" 
d="M930 573l-70 -495h-86l66 495h-291l-74 -495h-86l70 495h-307l8 82h311l41 283h-311l12 90h307l70 451h86l-62 -451h291l62 451h94l-70 -451h316l-9 -90h-315l-41 -283h320l-17 -82h-315zM897 938h-299l-37 -283h291z" />
    <glyph glyph-name="dollar" unicode="$" 
d="M274 496c5.33301 -109.333 34.333 -194.5 87 -255.5s131.667 -98.833 237 -113.5v668c-76 18 -137 35.167 -183 51.5s-88.333 39.5 -127 69.5s-69 69.167 -91 117.5s-33 107.833 -33 178.5c0 90 15.167 165.167 45.5 225.5s77.5 108.166 141.5 143.499s146.333 60 247 74
v213h119v-213c258 -16.667 401.333 -153.334 430 -410.001h-143c-14 94 -42.333 162.167 -85 204.5s-110 68.5 -202 78.5v-610c72.667 -17.333 136.834 -35.666 192.501 -54.999s104.667 -43.666 147 -72.999s76.166 -69 101.499 -119s38 -112.667 38 -188
c0 -146.667 -41 -261.5 -123 -344.5s-200.667 -130.5 -356 -142.5v-209h-119v209c-308.667 24 -467 190.667 -475 500h151zM717 123c218 32 327 145.332 327 339.999c0 66.667 -13.5 119.834 -40.5 159.501s-63.5 70.167 -109.5 91.5s-105 41.333 -177 60v-651zM598 941.999
l-0.000976562 586c-188.667 -25.333 -283 -122.333 -283 -291c0 -42 5.16699 -79 15.5 -111s25.833 -59 46.5 -81s48.834 -41 84.501 -57s81.167 -31.333 136.5 -46z" />
    <glyph glyph-name="percent" unicode="%" horiz-adv-x="1708" 
d="M82 1217c0 134 25.001 236.333 75.001 307s122 106 216 106c63.333 0 116.666 -15.667 159.999 -47s76 -77.666 98 -138.999s33 -137 33 -227c0 -88.667 -11 -164 -33 -226s-54.5 -108.833 -97.5 -140.5s-96.5 -47.5 -160.5 -47.5c-94 0 -166 35.667 -216 107
s-75 173.666 -75 306.999zM242.001 0l1036 1626h143l-1036 -1626h-143zM1004 410c0 275.333 95.334 413 286.001 413c94 0 166 -35.333 216 -106s75 -173 75 -307c0 -138 -24.833 -242.167 -74.5 -312.5s-121.834 -105.5 -216.501 -105.5s-166 35.333 -214 106
s-72 174.667 -72 312zM201.002 1217c0 -102 15.001 -179.5 45.001 -232.5s72.333 -79.5 127 -79.5c114.667 0 172 104 172 312c0 68.667 -6.5 126.334 -19.5 173.001s-32 82 -57 106s-56.833 36 -95.5 36c-36.667 0 -67.834 -12 -93.501 -36s-45.167 -59.833 -58.5 -107.5
s-20 -104.834 -20 -171.501zM1118 410c0 -101.333 14.5 -179.333 43.5 -234s71.833 -82 128.5 -82c56 0 98.667 27.167 128 81.5s44 132.5 44 234.5s-14.667 179.333 -44 232s-72 79 -128 79c-114.667 0 -172 -103.667 -172 -311z" />
    <glyph glyph-name="ampersand" unicode="&#x26;" horiz-adv-x="1532" 
d="M1352 750c-11.333 -86 -25.832 -160.498 -43.499 -223.498s-41.5 -127.833 -71.5 -194.5l262 -332h-168l-180 213c-150.667 -155.333 -310.334 -233 -479.001 -233c-98 0 -187.667 19 -269 57s-145.666 93.667 -192.999 167s-71 159.666 -71 258.999
c0 119.333 33.333 218 100 296s160.334 146 281.001 204c-40.667 56.667 -71.834 103.5 -93.501 140.5s-37.334 72.333 -47.001 106s-14.5 68.834 -14.5 105.501c0 60.667 15.833 115.667 47.5 165s75 88 130 116s117.167 42 186.5 42c48 0 91.833 -7.83301 131.5 -23.5
s73.5 -37.334 101.5 -65.001s50.167 -61 66.5 -100s24.5 -82.5 24.5 -130.5c0 -52.667 -8 -98.5 -24 -137.5s-37.167 -71.833 -63.5 -98.5s-61.833 -54.334 -106.5 -83.001l-118 -74l402 -484c20 46 34.833 92.167 44.5 138.5s16.5 102.833 20.5 169.5h144zM1061 319.002
l-459 545.001c-69.333 -36.667 -125.333 -71.334 -168 -104.001s-77.167 -73 -103.5 -121s-39.5 -106.667 -39.5 -176c0 -66 16.833 -126.5 50.5 -181.5s80 -98 139 -129s124.167 -46.5 195.5 -46.5c156.667 0 285 71 385 213zM655.001 1028
c92.667 40.667 158.167 81.832 196.5 123.499s57.5 93.5 57.5 155.5c0 59.333 -17.333 107.5 -52 144.5s-80 55.5 -136 55.5c-62 0 -112.333 -18.667 -151 -56s-58 -85.333 -58 -144c0 -40 11.167 -82.167 33.5 -126.5s58.833 -95.166 109.5 -152.499z" />
    <glyph glyph-name="quotesingle" unicode="'" horiz-adv-x="463" 
d="M279 975h-127l-21 651h172z" />
    <glyph glyph-name="parenleft" unicode="(" horiz-adv-x="770" 
d="M446 -274c-52 76.667 -98.332 154.668 -138.999 234.001s-74.334 159.666 -101.001 240.999s-46.5 162.666 -59.5 243.999s-19.5 168 -19.5 260c0 78 7 156.667 21 236s34.333 157.5 61 234.5s60.667 155 102 234s86.333 151.167 135 216.5h115
c-92.667 -139.333 -162.167 -285.833 -208.5 -439.5s-69.5 -314.167 -69.5 -481.5c0 -89.333 5.16699 -177.5 15.5 -264.5s26 -169.167 47 -246.5s49.5 -155.666 85.5 -234.999s79.333 -157 130 -233h-115z" />
    <glyph glyph-name="parenright" unicode=")" horiz-adv-x="770" 
d="M266 1626c72 -107.333 131.334 -211.33 178.001 -311.997s82.667 -206.334 108 -317.001s38 -226 38 -346c0 -79.333 -7.16699 -158.166 -21.5 -236.499s-35.333 -156.833 -63 -235.5s-61.334 -155.834 -101.001 -231.501s-85.834 -149.5 -138.501 -221.5h-110
c188 278 282 586.333 282 925c0 93.333 -5.16699 181 -15.5 263s-26.666 163.167 -48.999 243.5s-52 160.166 -89 239.499s-79.833 155.666 -128.5 228.999h110z" />
    <glyph glyph-name="asterisk" unicode="*" horiz-adv-x="942" 
d="M786 1352l-266 -90l160 -222l-66 -53l-172 230l-163 -230l-78 53l168 222l-263 90l29 90l262 -99v283h95v-283l262 99z" />
    <glyph glyph-name="plus" unicode="+" horiz-adv-x="1249" 
d="M61 864h504v467h90v-467h504v-86h-504v-467h-90v467h-504v86z" />
    <glyph glyph-name="comma" unicode="," horiz-adv-x="565" 
d="M352 205v-175.998c0 -106.667 -12.667 -185.334 -38 -236.001s-70 -86.667 -134 -108v98c32 15.333 53.667 35.666 65 60.999s17 66.333 17 123v29h-82v209h172z" />
    <glyph glyph-name="hyphen" unicode="-" horiz-adv-x="565" 
d="M0 516v139h520v-139h-520z" />
    <glyph glyph-name="period" unicode="." horiz-adv-x="565" 
d="M180 0v205h172v-205h-172z" />
    <glyph glyph-name="slash" unicode="/" horiz-adv-x="1098" 
d="M78 -283l733 1909h143l-741 -1909h-135z" />
    <glyph glyph-name="zero" unicode="0" 
d="M131 811c0 136 11.3291 255.667 33.9961 359s55.834 189.5 99.501 258.5s98.167 121.167 163.5 156.5s141 53 227 53c174.667 0 306.5 -70 395.5 -210s133.5 -345.667 133.5 -617c0 -138 -11.167 -258.5 -33.5 -361.5s-55.666 -189.167 -99.999 -258.5
s-99.666 -121.833 -165.999 -157.5s-142.833 -53.5 -229.5 -53.5c-113.333 0 -209.166 31.167 -287.499 93.5s-137.333 155.833 -177 280.5s-59.5 277 -59.5 457zM290.996 811c0 -178 25.168 -337.165 75.501 -477.498s146.5 -210.5 288.5 -210.5
c78 0 141.667 22.5 191 67.5s86.666 103.5 111.999 175.5s42 145 50 219s12 149.333 12 226c0 107.333 -8.5 211.666 -25.5 312.999s-52.5 189.166 -106.5 263.499s-131.667 111.5 -233 111.5c-142.667 0 -239 -70.167 -289 -210.5s-75 -299.5 -75 -477.5z" />
    <glyph glyph-name="one" unicode="1" 
d="M676 0l-0.000976562 1221h-385v98c80 0 149.333 9 208 27s106.334 49.5 143.001 94.5s59 106.833 67 185.5h114v-1626h-147z" />
    <glyph glyph-name="two" unicode="2" 
d="M1171 139l-0.00390625 -139h-1032c3.33301 71.333 9.83301 133 19.5 185s24.334 98.333 44.001 139s46.5 80 80.5 118c52.667 57.333 119.334 111.666 200.001 162.999l255 165.5c89.333 59 157.333 118.833 204 179.5s70 133 70 217c0 112.667 -27 196.167 -81 250.5
s-137.667 81.5 -251 81.5c-85.333 0 -152.5 -16.5 -201.5 -49.5s-83.667 -77.667 -104 -134s-34.5 -130.166 -42.5 -221.499h-160c2.66699 86.667 16.167 164 40.5 232s58.833 125.167 103.5 171.5s99.334 81.333 164.001 105s138 35.5 220 35.5
c95.333 0 179 -19.333 251 -58s127.5 -93.834 166.5 -165.501s58.5 -154.167 58.5 -247.5c0 -106 -26.167 -195.167 -78.5 -267.5s-126.166 -139.166 -221.499 -200.499l-277 -176.5c-89.333 -56.333 -159.333 -115.833 -210 -178.5c-31.333 -36 -52.333 -67.167 -63 -93.5
s-17 -63.5 -19 -111.5h864z" />
    <glyph glyph-name="three" unicode="3" 
d="M287 483c4 -53.333 9.33301 -92.332 16 -116.999s19 -53.667 37 -87c33.333 -49.333 77.833 -87.666 133.5 -114.999s119.167 -41 190.5 -41c66.667 0 128.167 15.333 184.5 46s100.333 72.334 132 125.001s47.5 111.667 47.5 177c0 50.667 -8.66699 96.834 -26 138.501
s-42.166 76.667 -74.499 105s-72.166 50.166 -119.499 65.499s-99.666 23 -156.999 23c-9.33301 0 -24.333 -0.833008 -45 -2.5l-65 -5.5v123c38.667 -6 64.334 -9 77.001 -9c78 0 143.833 12 197.5 36s94.334 59.667 122.001 107s41.5 105 41.5 173
c0 55.333 -13.167 103.666 -39.5 144.999s-64.833 73.166 -115.5 95.499s-108.334 33.5 -173.001 33.5c-110 0 -193 -32.333 -249 -97s-85 -153.667 -87 -267h-151c0 96.667 19.833 183.334 59.5 260.001s96.5 136.334 170.5 179.001s159.667 64 257 64
c73.333 0 139.5 -9.66699 198.5 -29s110 -47.166 153 -83.499s75.833 -79.833 98.5 -130.5s34 -107.334 34 -170.001c0 -158 -75.333 -275.667 -226 -353c94 -34 164 -82.5 210 -145.5s69 -144.167 69 -243.5c0 -92.667 -22.833 -177.834 -68.5 -255.501
s-108.834 -138.334 -189.501 -182.001s-169.334 -65.5 -266.001 -65.5c-102.667 0 -194.334 19.833 -275.001 59.5s-143.834 97.667 -189.501 174s-68.5 166.166 -68.5 269.499h156z" />
    <glyph glyph-name="four" unicode="4" 
d="M831 0v406h-708v131l725 1089h131v-1089h229v-131h-229v-406h-148zM279 537h552v843z" />
    <glyph glyph-name="five" unicode="5" 
d="M287 434c6.66699 -66.667 24.8311 -123.168 54.498 -169.501s69.834 -81.5 120.501 -105.5s111 -36 181 -36c74.667 0 140.334 16.5 197.001 49.5s100.167 80.167 130.5 141.5s45.5 131.333 45.5 210c0 83.333 -14 153.833 -42 211.5s-69.333 101.667 -124 132
s-121 45.5 -199 45.5c-79.333 0 -145 -11.667 -197 -35s-98.333 -63.333 -139 -120h-131l131 860h783v-135h-668l-86 -520c114.667 62.667 222.667 94 324 94c162.667 0 288 -46.167 376 -138.5s132 -222.5 132 -390.5c0 -82 -12.167 -156.5 -36.5 -223.5
s-60 -124.667 -107 -173s-104.167 -85.666 -171.5 -111.999s-141.333 -39.5 -222 -39.5c-70.667 0 -135.167 10.5 -193.5 31.5s-109.833 51.5 -154.5 91.5s-80.5 87.5 -107.5 142.5s-44.5 117.833 -52.5 188.5h156z" />
    <glyph glyph-name="six" unicode="6" 
d="M995 1241c-7.33301 56.667 -22.8379 104.001 -46.5049 142.001s-56.167 66.833 -97.5 86.5s-90 29.5 -146 29.5c-103.333 0 -186.166 -31.5 -248.499 -94.5s-106.166 -141.5 -131.499 -235.5s-38 -193 -38 -297v-49c50.667 75.333 108 129.666 172 162.999s143 50 237 50
c92.667 0 176.167 -22.167 250.5 -66.5s132.5 -106.333 174.5 -186s63 -168.834 63 -267.501c0 -102 -21.167 -194 -63.5 -276s-101.666 -145.833 -177.999 -191.5s-162.5 -68.5 -258.5 -68.5c-112.667 0 -205.667 21.5 -279 64.5s-129.666 101.333 -168.999 175
s-66.666 155.834 -81.999 246.501s-23 189.334 -23 296.001c0 289.333 49 507.666 147 654.999s241.667 221 431 221c72.667 0 141 -14.333 205 -43s115.667 -68.667 155 -120c26 -34 45 -66 57 -96s23 -76 33 -138h-164zM1016 512.001
c0 79.333 -13.8359 148.169 -41.5029 206.502s-67.667 103.333 -120 135s-113.166 47.5 -182.499 47.5s-131.666 -16 -186.999 -48s-98.166 -76.833 -128.499 -134.5s-45.5 -123.834 -45.5 -198.501c0 -126.667 30.667 -224.5 92 -293.5s148.333 -103.5 261 -103.5
c72 0 134.667 15.833 188 47.5s94 76.667 122 135s42 127.166 42 206.499z" />
    <glyph glyph-name="seven" unicode="7" 
d="M373 0c23.333 140 54.334 275.669 93.001 407.002s84.167 257.333 136.5 378s114.666 241.667 186.999 363s149.166 233 230.499 335h-864v143h1028v-143c-81.333 -90.667 -158.666 -195.334 -231.999 -314.001s-139.5 -244.834 -198.5 -378.501
s-106.667 -267.667 -143 -402s-59.5 -263.833 -69.5 -388.5h-168z" />
    <glyph glyph-name="eight" unicode="8" 
d="M406 881c-83.333 46.667 -141.166 94.1689 -173.499 142.502s-48.5 111.166 -48.5 188.499c0 80 20.167 152.667 60.5 218s97.5 116.333 171.5 153s156.667 55 248 55c90 0 169.333 -16.833 238 -50.5s121.834 -81.834 159.501 -144.501s56.5 -134 56.5 -214
c0 -157.333 -73.667 -270.666 -221 -339.999c103.333 -34.667 179 -86.167 227 -154.5s72 -158.833 72 -271.5c0 -67.333 -13.167 -131.166 -39.5 -191.499s-62.833 -111.833 -109.5 -154.5s-103.334 -76.167 -170.001 -100.5s-137.667 -36.5 -213 -36.5
c-101.333 0 -193.833 21.667 -277.5 65s-149.167 102.666 -196.5 177.999s-71 156.666 -71 243.999c0 64 9.66699 120.333 29 169s50.166 93.167 92.499 133.5s97.5 77.5 165.5 111.5zM279 467.002c0 -104 33.6689 -187.333 101.002 -250s157.666 -94 270.999 -94
c72 0 137.167 14.5 195.5 43.5s103.833 70.167 136.5 123.5s49 112.333 49 177c0 74.667 -14.5 138.334 -43.5 191.001s-71.833 92.667 -128.5 120s-125 41 -205 41c-72.667 0 -137.834 -14.667 -195.501 -44s-102.167 -70.833 -133.5 -124.5s-47 -114.834 -47 -183.501z
M340.002 1212c0 -56 12.8301 -104.999 38.4971 -146.999s63.167 -74.333 112.5 -97s107 -34 173 -34c54.667 0 104.834 12.667 150.501 38s81.834 60.666 108.501 105.999s40 94.333 40 147c0 86 -26.167 153.167 -78.5 201.5s-125.833 72.5 -220.5 72.5
c-97.333 0 -175.666 -26.333 -234.999 -79s-89 -122 -89 -208z" />
    <glyph glyph-name="nine" unicode="9" 
d="M315 385c12.667 -88 43.5029 -153.667 92.5029 -197s115.167 -65 198.5 -65c78 0 144.667 18.667 200 56s99.5 87.833 132.5 151.5s56.167 130.5 69.5 200.5s20 143 20 219c0 16 -2.66699 32.333 -8 49c-30.667 -48.667 -65.5 -88.5 -104.5 -119.5s-83 -53.667 -132 -68
s-104.167 -21.5 -165.5 -21.5c-92.667 0 -176 22.167 -250 66.5s-132 106.333 -174 186s-63 168.834 -63 267.501c0 100.667 21.167 191.667 63.5 273s101.166 144.166 176.499 188.499s160.666 66.5 255.999 66.5c146.667 0 261.167 -36.167 343.5 -108.5
s138.5 -165.833 168.5 -280.5s45 -245.667 45 -393c0 -189.333 -22 -349.166 -66 -479.499s-109.5 -229 -196.5 -296s-193.5 -100.5 -319.5 -100.5c-70.667 0 -138.334 15.167 -203.001 45.5s-117 70.833 -157 121.5c-26 31.333 -44.833 63.166 -56.5 95.499
s-21.5 79.833 -29.5 142.5h159zM291.003 1110c0 -78 14.3359 -145.667 43.0029 -203s70 -102 124 -134s115.667 -48 185 -48s131.666 15.833 186.999 47.5s98.166 76.167 128.499 133.5s45.5 124 45.5 200c0 82.667 -13.833 153.5 -41.5 212.5
s-68.334 103.833 -122.001 134.5s-118.167 46 -193.5 46c-108.667 0 -195.167 -34.833 -259.5 -104.5s-96.5 -164.5 -96.5 -284.5z" />
    <glyph glyph-name="colon" unicode=":" horiz-adv-x="565" 
d="M180 852v205h172v-205h-172zM180 0v205h172v-205h-172z" />
    <glyph glyph-name="semicolon" unicode=";" horiz-adv-x="565" 
d="M352 205v-175.998c0 -106.667 -12.667 -185.334 -38 -236.001s-70 -86.667 -134 -108v98c32 15.333 53.667 35.666 65 60.999s17 66.333 17 123v29h-82v209h172zM180 852.002v205h172v-205h-172z" />
    <glyph glyph-name="less" unicode="&#x3c;" horiz-adv-x="1249" 
d="M1135 1372v-155l-885 -398l885 -405v-156l-1053 487v140z" />
    <glyph glyph-name="equal" unicode="=" horiz-adv-x="1249" 
d="M61 1036h1098v-86h-1098v86zM61 696h1098v-90h-1098v90z" />
    <glyph glyph-name="greater" unicode="&#x3e;" horiz-adv-x="1249" 
d="M82 258v160l885 401l-885 398v155l1057 -487v-140z" />
    <glyph glyph-name="question" unicode="?" horiz-adv-x="1147" 
d="M463 0v205h160v-205h-160zM475 406c0 68.667 3.33105 123.171 9.99805 163.504s19.667 81.166 39 122.499c22.667 44 56.334 86.5 101.001 127.5l128 117c40.667 37 72.834 77.167 96.501 120.5s35.5 96.666 35.5 159.999c0 59.333 -12.167 110.833 -36.5 154.5
s-60 77.167 -107 100.5s-103.167 35 -168.5 35c-116 0 -202.333 -34.5 -259 -103.5s-85 -164.167 -85 -285.5h-155c10 175.333 56.333 305.833 139 391.5s202.667 128.5 360 128.5c71.333 0 135.5 -9.66699 192.5 -29s105.833 -47 146.5 -83s72.167 -80.333 94.5 -133
s33.5 -111.334 33.5 -176.001c0 -76 -16.5 -143.5 -49.5 -202.5s-90.167 -124.167 -171.5 -195.5c-58 -50.667 -101 -92.667 -129 -126s-47.667 -71.333 -59 -114s-17 -100.334 -17 -173.001h-139z" />
    <glyph glyph-name="at" unicode="@" horiz-adv-x="1733" 
d="M1499 406l73.9971 0.00390625c-27.333 -62.667 -64.833 -120.5 -112.5 -173.5s-102.667 -98.333 -165 -136s-131.333 -66.5 -207 -86.5s-153.167 -30 -232.5 -30c-142.667 0 -273.667 36.333 -393 109s-213.333 172.167 -282 298.5s-103 266.166 -103 419.499
c0 105.333 21.333 206.333 64 303s101.667 181.667 177 255s161.333 130.333 258 171s199.334 61 308.001 61c102.667 0 198.5 -16.833 287.5 -50.5s166.167 -81 231.5 -142s116 -133 152 -216s54 -173.167 54 -270.5c0 -71.333 -13.667 -140.833 -41 -208.5
s-65.333 -128.167 -114 -181.5s-104 -95.333 -166 -126s-125.667 -46 -191 -46c-42 0 -77 12.667 -105 38s-45 59.333 -51 102c-42 -48 -83.667 -82.667 -125 -104s-87 -32 -137 -32c-75.333 0 -135.166 26.167 -179.499 78.5s-66.5 123.166 -66.5 212.499
c0 60.667 11.5 125.5 34.5 194.5s54.5 131.333 94.5 187s87.833 101 143.5 136s116.5 52.5 182.5 52.5c102 0 175.667 -53.333 221 -160l41 127h94l-192 -574c-16.667 -36 -25 -70 -25 -102c0 -62.667 30 -94 90 -94c69.333 0 136.333 24.167 201 72.5
s117 112.166 157 191.499s60 160.666 60 243.999c0 113.333 -27.833 216.666 -83.5 309.999s-132.834 166 -231.501 218s-210.667 78 -336 78c-97.333 0 -190.666 -18.833 -279.999 -56.5s-168 -90.5 -236 -158.5s-121.167 -146.333 -159.5 -235s-57.5 -181.667 -57.5 -279
c0 -141.333 31.333 -269.5 94 -384.5s148.334 -205.333 257.001 -271s227.667 -98.5 357 -98.5c90.667 0 177.5 14.333 260.5 43s156.833 69.834 221.5 123.501s117 117.167 157 190.5zM978.997 696.004c7.33301 20 19.499 50.8291 36.499 92.4961s29.5 77.334 37.5 107.001
s12 58.834 12 87.501c0 30.667 -7.16699 60.334 -21.5 89.001s-33.5 51 -57.5 67s-51 24 -81 24c-54 0 -104.333 -17.667 -151 -53s-87.167 -81.666 -121.5 -138.999s-60.333 -116.5 -78 -177.5s-26.5 -117.833 -26.5 -170.5c0 -60 14.833 -109.167 44.5 -147.5
s66.834 -57.5 111.501 -57.5c68 0 125.333 22.5 172 67.5s87.667 115.167 123 210.5z" />
    <glyph glyph-name="A" unicode="A" horiz-adv-x="1556" 
d="M33 0l639 1626h168l635 -1626h-172l-193 516h-717l-188 -516h-172zM442 643h623l-311 827z" />
    <glyph glyph-name="B" unicode="B" horiz-adv-x="1581" 
d="M197 0v1626h651c156.667 0 279.167 -31.167 367.5 -93.5s132.5 -170.5 132.5 -324.5c0 -155.333 -76.667 -271.333 -230 -348c109.333 -31.333 187.833 -78.833 235.5 -142.5s71.5 -152.5 71.5 -266.5c0 -69.333 -14 -135 -42 -197s-67 -112.667 -117 -152
c-46 -36.667 -98.667 -62.834 -158 -78.501s-138 -23.5 -236 -23.5h-675zM360 135.001l512 -0.000976562c139.333 0 240.5 25.333 303.5 76s94.5 133.334 94.5 248.001c0 112 -31.333 193.167 -94 243.5s-164 75.5 -304 75.5h-512v-643zM360 905l467.001 0.000976562
c74.667 0 139.167 8.83301 193.5 26.5s97.166 49.167 128.499 94.5s47 106 47 182c0 77.333 -16.667 136.166 -50 176.499s-76.5 66.833 -129.5 79.5s-118.833 19 -197.5 19h-459v-578z" />
    <glyph glyph-name="C" unicode="C" horiz-adv-x="1630" 
d="M1532 578c-14 -97.333 -39.6709 -184.006 -77.0039 -260.006s-85.333 -140 -144 -192s-127.167 -91.5 -205.5 -118.5s-164.166 -40.5 -257.499 -40.5c-109.333 0 -208.5 19.833 -297.5 59.5s-165.167 96.834 -228.5 171.501s-111.666 165.167 -144.999 271.5
s-50 224.166 -50 353.499c0 126.667 17.167 241.334 51.5 344.001s83.833 190.334 148.5 263.001s142.167 128.334 232.5 167.001s191.833 58 304.5 58c174 0 314.5 -40.667 421.5 -122s180.833 -204.666 221.5 -369.999h-159
c-25.333 80.667 -59.666 147.334 -102.999 200.001s-97 92 -161 118s-138.667 39 -224 39c-115.333 0 -215.833 -28.833 -301.5 -86.5s-151.667 -139.667 -198 -246s-69.5 -231.833 -69.5 -376.5c0 -104 12.833 -199.5 38.5 -286.5s63.5 -162 113.5 -225
s109.333 -111 178 -144s144.334 -49.5 227.001 -49.5c68.667 0 133.667 11 195 33s115.333 54.167 162 96.5s84.667 92.333 114 150s48.333 121.834 57 192.501h156z" />
    <glyph glyph-name="D" unicode="D" horiz-adv-x="1630" 
d="M197 0v1626h573c134.667 0 238 -11.833 310 -35.5s136.667 -66.5 194 -128.5c73.333 -76 126.5 -164.333 159.5 -265s49.5 -224 49.5 -370c0 -276.667 -64.333 -489.667 -193 -639c-42.667 -46.667 -87.5 -83.5 -134.5 -110.5s-101.167 -46.667 -162.5 -59
s-134.333 -18.5 -219 -18.5h-577zM360 139l402.001 0.000976562c102 0 184.167 12.167 246.5 36.5s115.166 64.166 158.499 119.499c104 136.667 156 317 156 541c0 114.667 -13.167 215.167 -39.5 301.5s-66.5 157.833 -120.5 214.5c-45.333 50 -97 84.333 -155 103
s-141.333 28 -250 28h-398v-1344z" />
    <glyph glyph-name="E" unicode="E" horiz-adv-x="1454" 
d="M197 0v1626h1089v-143h-926v-582h852v-131h-852v-635h947v-135h-1110z" />
    <glyph glyph-name="F" unicode="F" 
d="M197 0v1626h1028v-143h-865v-586h750v-127h-750v-770h-163z" />
    <glyph glyph-name="G" unicode="G" horiz-adv-x="1761" 
d="M864 836l684.003 -0.000976562v-836h-123v274c-78.667 -102.667 -163.334 -179.5 -254.001 -230.5s-197 -76.5 -319 -76.5c-144 0 -271 34.833 -381 104.5s-194.833 168.834 -254.5 297.501s-89.5 276 -89.5 442c0 124.667 17.667 239.834 53 345.501s86 195.5 152 269.5
s145.5 130.667 238.5 170s195.167 59 306.5 59c88.667 0 170.334 -11.833 245.001 -35.5s140.167 -57.667 196.5 -102s102.666 -97.666 138.999 -159.999s61.166 -133.833 74.499 -214.5h-156c-57.333 251.333 -228 377 -512 377c-87.333 0 -166.5 -15.833 -237.5 -47.5
s-131.667 -78.334 -182 -140.001s-88.5 -136.167 -114.5 -223.5s-39 -184 -39 -290s13.333 -202.667 40 -290s65.167 -163 115.5 -227s110.333 -112.667 180 -146s146.167 -50 229.5 -50c86.667 0 164.5 14.833 233.5 44.5s127.167 72 174.5 127
s82.666 119.167 105.999 192.5s35 151.666 35 234.999h-541v131z" />
    <glyph glyph-name="H" unicode="H" horiz-adv-x="1630" 
d="M197 0v1626h159v-700h889v700h164v-1626h-164v795h-889v-795h-159z" />
    <glyph glyph-name="I" unicode="I" horiz-adv-x="590" 
d="M197 0v1626h163v-1626h-163z" />
    <glyph glyph-name="J" unicode="J" horiz-adv-x="1147" 
d="M29 524l150.996 -0.000976562c0 -61.333 3.33301 -115.5 10 -162.5s20.334 -90.167 41.001 -129.5s51 -70.166 91 -92.499s91 -33.5 153 -33.5c70.667 0 126.834 11.5 168.501 34.5s71.834 60.5 90.501 112.5s28 120.667 28 206v1167h164v-1143
c0 -80 -7.33301 -150.667 -22 -212s-39 -114.833 -73 -160.5s-79.667 -81 -137 -106s-127.666 -37.5 -210.999 -37.5c-305.333 0 -458 155.667 -458 467c0 35.333 1.33301 65.333 4 90z" />
    <glyph glyph-name="K" unicode="K" horiz-adv-x="1556" 
d="M197 0v1626h159v-844l881 844h217l-721 -676l729 -950h-192l-643 848l-271 -254v-594h-159z" />
    <glyph glyph-name="L" unicode="L" horiz-adv-x="1298" 
d="M197 0v1626h163v-1491h840v-135h-1003z" />
    <glyph glyph-name="M" unicode="M" horiz-adv-x="1937" 
d="M197 0v1626h196l565 -1438l553 1438h197v-1626h-147v1364l-525 -1364h-155l-545 1364v-1364h-139z" />
    <glyph glyph-name="N" unicode="N" horiz-adv-x="1630" 
d="M197 0v1626h163l918 -1393v1393h143v-1626h-159l-922 1393v-1393h-143z" />
    <glyph glyph-name="O" unicode="O" horiz-adv-x="1786" 
d="M127 799c0 160.667 28.166 305.832 84.499 435.499s140.833 232.167 253.5 307.5s250 113 412 113c122.667 0 231.5 -22 326.5 -66s173.333 -104.333 235 -181s108.334 -167 140.001 -271s47.5 -216.667 47.5 -338c0 -125.333 -17.167 -239.666 -51.5 -342.999
s-84.5 -191.5 -150.5 -264.5s-144.833 -128.667 -236.5 -167s-195.167 -57.5 -310.5 -57.5c-114.667 0 -218 19.333 -310 58s-171 94.667 -237 168s-116.333 161 -151 263s-52 216.333 -52 343zM290.999 798.998c0 -139.333 23.6641 -261.5 70.9971 -366.5
s115 -185.667 203 -242s192 -84.5 312 -84.5c88.667 0 169.334 16 242.001 48s134.834 78.5 186.501 139.5s90.667 134 117 219s39.5 180.5 39.5 286.5c0 114.667 -13.333 216.5 -40 305.5s-65 164.333 -115 226s-111.333 108.667 -184 141s-154.667 48.5 -246 48.5
s-173.666 -16.333 -246.999 -49s-135 -80.167 -185 -142.5s-88.167 -138.333 -114.5 -228s-39.5 -190.167 -39.5 -301.5z" />
    <glyph glyph-name="P" unicode="P" horiz-adv-x="1454" 
d="M197 0l-0.00195312 1626h630c78.667 0 148.834 -8.16699 210.501 -24.5s114.334 -42.666 158.001 -78.999s77.167 -84.333 100.5 -144s35 -131.5 35 -215.5c0 -113.333 -24 -203.5 -72 -270.5s-113.333 -114.333 -196 -142s-179 -41.5 -289 -41.5h-418v-709h-159z
M355.998 851.999l364.998 0.00195312c96 0 174.5 6.33301 235.5 19s111.333 41.667 151 87s59.5 113.666 59.5 204.999c0 80 -12.167 143.167 -36.5 189.5s-64.166 79.666 -119.499 99.999s-131.666 30.5 -228.999 30.5h-426v-631z" />
    <glyph glyph-name="Q" unicode="Q" horiz-adv-x="1810" 
d="M1384 152l213 -159.998l-86 -103l-233 189c-43.333 -26.667 -86 -48 -128 -64s-87 -27.833 -135 -35.5s-98.333 -11.5 -151 -11.5c-110 0 -210.667 19.5 -302 58.5s-169.5 95.667 -234.5 170s-114.667 163.666 -149 267.999s-51.5 220.166 -51.5 347.499
c0 116 16.167 224.833 48.5 326.5s80 191.5 143 269.5s140.5 138.833 232.5 182.5s196.333 65.5 313 65.5c131.333 0 241.5 -19.5 330.5 -58.5s168.833 -102.833 239.5 -191.5c42 -54 77.833 -112.833 107.5 -176.5s51.834 -131 66.501 -202s22 -142.833 22 -215.5
c0 -88 -8.5 -169.167 -25.5 -243.5s-43.833 -145.833 -80.5 -214.5s-83.334 -135.667 -140.001 -201zM1270 250.002c45.333 52.667 82.1641 106.341 110.497 161.008s49 113.667 62 177s19.5 136.333 19.5 219c0 113.333 -13.167 213.666 -39.5 300.999
s-65.166 161.666 -116.499 222.999s-114.166 108.166 -188.499 140.499s-158.833 48.5 -253.5 48.5c-88 0 -167.167 -16.333 -237.5 -49s-130.666 -80.334 -180.999 -143.001s-88.666 -137.834 -114.999 -225.501s-39.5 -184.834 -39.5 -291.501
c0 -108.667 13.667 -206.834 41 -294.501s66.5 -161.834 117.5 -222.501s112.667 -107.167 185 -139.5s153.166 -48.5 242.499 -48.5c58 0 108 5.5 150 16.5s83.333 28.833 124 53.5l-160 127l78 103z" />
    <glyph glyph-name="R" unicode="R" horiz-adv-x="1581" 
d="M197 0v1626h655c82.667 0 155.667 -6.5 219 -19.5s119.833 -35.833 169.5 -68.5s88.167 -77.667 115.5 -135s41 -129 41 -215c0 -96 -20.5 -175 -61.5 -237s-105.167 -112.667 -192.5 -152c48.667 -26.667 87 -56.5 115 -89.5s46.833 -67 56.5 -102
s16.167 -77.833 19.5 -128.5s6.33301 -99.667 9 -147c5.33301 -76 9.33301 -128.167 12 -156.5s7 -52.333 13 -72s13 -35.667 21 -48s23 -30.833 45 -55.5h-193c-12.667 36.667 -22 88.5 -28 155.5l-19 215.5c-6.66699 76.667 -18.167 141.5 -34.5 194.5
s-42.5 92.5 -78.5 118.5c-17.333 13.333 -35.666 23.166 -54.999 29.499s-43.333 10.5 -72 12.5s-76.334 3 -143.001 3h-455v-729h-159zM356 864.001h438.998c91.333 0 167.833 7.66699 229.5 23s111.167 47 148.5 95s56 116.667 56 206s-19.167 155.5 -57.5 198.5
s-86.666 69.833 -144.999 80.5s-134.166 16 -227.499 16h-443v-619z" />
    <glyph glyph-name="S" unicode="S" horiz-adv-x="1454" 
d="M98 541l159.996 -0.00195312c5.33301 -93.333 25.5 -172.5 60.5 -237.5s84.833 -114.167 149.5 -147.5s143.667 -50 237 -50c68.667 0 130.334 7.5 185.001 22.5s101.167 37 139.5 66s67.5 64 87.5 105s30 87.167 30 138.5c0 113.333 -40.333 189.833 -121 229.5
s-205.5 76 -374.5 109s-296.667 77.667 -383 134s-129.5 155.5 -129.5 297.5c0 70 12.667 132.5 38 187.5s62.666 101.833 111.999 140.5s108.666 68.167 177.999 88.5s148.666 30.5 237.999 30.5c118 0 217.333 -17.5 298 -52.5s143.5 -88 188.5 -159
s72.5 -160.167 82.5 -267.5h-160c-4 118 -42.5 204.833 -115.5 260.5s-170.833 83.5 -293.5 83.5c-66 0 -123.667 -7.16699 -173 -21.5s-91.166 -35.333 -125.499 -63s-60.166 -61 -77.499 -100s-26 -84.167 -26 -135.5s12.833 -95.5 38.5 -132.5
s62.167 -65.167 109.5 -84.5c53.333 -18.667 141.5 -40.5 264.5 -65.5s224.167 -51.167 303.5 -78.5s146.5 -71.166 201.5 -131.499s82.5 -143.166 82.5 -248.499c0 -107.333 -28.667 -198 -86 -272s-132.166 -129.167 -224.499 -165.5s-189.833 -54.5 -292.5 -54.5
c-62.667 0 -122.167 6.83301 -178.5 20.5s-108.666 33.667 -156.999 60s-89.666 57.833 -123.999 94.5s-62.666 78 -84.999 124s-37 86 -44 120s-11.5 85.667 -13.5 155z" />
    <glyph glyph-name="T" unicode="T" horiz-adv-x="1327" 
d="M569 0v1483h-524v143h1208v-143h-520v-1483h-164z" />
    <glyph glyph-name="U" unicode="U" horiz-adv-x="1606" 
d="M180 1626l163.998 -0.00195312v-1073c0 -74 8.33301 -138.5 25 -193.5s43.167 -101.5 79.5 -139.5s81.833 -66.5 136.5 -85.5s119 -28.5 193 -28.5c76.667 0 143.334 10.333 200.001 31s102.334 51 137.001 91s60.334 88.5 77.001 145.5s25 122.167 25 195.5v1057h159
v-1036c0 -131.333 -21.5 -243.5 -64.5 -336.5s-108.833 -164 -197.5 -213s-200.667 -73.5 -336 -73.5c-94.667 0 -182.834 14.333 -264.501 43s-148 68.834 -199 120.501s-86.167 109.834 -105.5 174.501s-29 155.667 -29 273v1048z" />
    <glyph glyph-name="V" unicode="V" horiz-adv-x="1430" 
d="M598 0l-565 1626h168l479 -1429l508 1429h155l-589 -1626h-156z" />
    <glyph glyph-name="W" unicode="W" horiz-adv-x="2064" 
d="M451 0l-418 1626h168l344 -1397l368 1397h197l365 -1421l348 1421h164l-431 -1626h-180l-368 1393l-381 -1393h-176z" />
    <glyph glyph-name="X" unicode="X" horiz-adv-x="1376" 
d="M25 0l553 819l-545 807h196l443 -672l446 672h180l-540 -807l557 -819h-197l-446 680l-459 -680h-188z" />
    <glyph glyph-name="Y" unicode="Y" horiz-adv-x="1454" 
d="M627 0v717l-607 909h197l492 -762l499 762h185l-607 -909v-717h-159z" />
    <glyph glyph-name="Z" unicode="Z" horiz-adv-x="1430" 
d="M1319 0h-1249v98l1044 1385h-958v143h1142v-143l-1015 -1344h1036v-139z" />
    <glyph glyph-name="bracketleft" unicode="[" horiz-adv-x="770" 
d="M180 -274v1900h373v-123h-238v-1655h238v-122h-373z" />
    <glyph glyph-name="backslash" unicode="\" horiz-adv-x="1098" 
d="M979 -283h-139l-738 1909h136z" />
    <glyph glyph-name="bracketright" unicode="]" horiz-adv-x="770" 
d="M541 1626v-1900h-377v122h242v1655h-242v123h377z" />
    <glyph glyph-name="asciicircum" unicode="^" horiz-adv-x="1249" 
d="M238 926h-152l434 700h180l435 -700h-152l-377 594z" />
    <glyph glyph-name="underscore" unicode="_" horiz-adv-x="1249" 
d="M0 -180h1217v-107h-1217v107z" />
    <glyph glyph-name="grave" unicode="`" horiz-adv-x="1249" 
d="M803 1380h-111l-278 299h192z" />
    <glyph glyph-name="a" unicode="a" horiz-adv-x="1274" 
d="M1184 102l0.00195312 -102c-40.667 -16.667 -79 -25 -115 -25c-54.667 0 -94.667 14.167 -120 42.5s-40 77.166 -44 146.499c-42.667 -48 -85.167 -86.5 -127.5 -115.5s-87 -49.833 -134 -62.5s-100.5 -19 -160.5 -19c-80.667 0 -149.334 13.667 -206.001 41
s-99.334 67.333 -128.001 120s-43 115 -43 187c0 74.667 17 136 51 184s78.667 84.333 134 109s120.666 43.334 195.999 56.001l291 41c24 4 45.333 7.83301 64 11.5s30.334 7.16699 35.001 10.5s8.66699 9.33301 12 18c13.333 20.667 20 57.667 20 111
c0 76.667 -23.5 133.334 -70.5 170.001s-120.5 55 -220.5 55c-68.667 0 -124.667 -8.33301 -168 -25s-75.833 -43.334 -97.5 -80.001s-35.5 -87.667 -41.5 -153h-155c16 251.333 170 377 462 377c64 0 124.333 -7.66699 181 -23s103 -36.333 139 -63
c44.667 -30 75 -65.5 91 -106.5s24 -102.5 24 -184.5v-618c0 -44 4.5 -73.5 13.5 -88.5s27.5 -22.5 55.5 -22.5c19.333 0 40 2.66699 62 8zM905.002 606l-396.998 -61c-60.667 -10 -109.334 -24.5 -146.001 -43.5s-63.834 -43.833 -81.501 -74.5s-26.5 -68 -26.5 -112
c0 -72 21.667 -126.833 65 -164.5s106.333 -56.5 189 -56.5c102.667 0 191.334 28.667 266.001 86c35.333 26.667 62.166 53.667 80.499 81s31.333 60.5 39 99.5s11.5 89.5 11.5 151.5v94z" />
    <glyph glyph-name="b" unicode="b" horiz-adv-x="1376" 
d="M180 0l-0.00195312 1626h148v-631c58.667 76 117.834 129.167 177.501 159.5s134.167 45.5 223.5 45.5c74 0 141.667 -14.167 203 -42.5s113.5 -69.666 156.5 -123.999s75.833 -119 98.5 -194s34 -159.5 34 -253.5c0 -121.333 -21.667 -229.166 -65 -323.499
s-104.333 -167.166 -183 -218.499s-168 -77 -268 -77c-53.333 0 -100.666 6.66699 -141.999 20s-81.333 35 -120 65s-77 67.333 -115 112v-164h-148zM327.998 585.997c0 -159.333 32.502 -281.166 97.502 -365.499s158.167 -126.5 279.5 -126.5
c55.333 0 105.666 11.833 150.999 35.5s84.166 57.5 116.499 101.5s57.166 96 74.499 156s26 127.667 26 203c0 158 -30.667 279.333 -92 364s-152 127 -272 127c-133.333 0 -230.166 -47.833 -290.499 -143.5s-90.5 -212.834 -90.5 -351.501z" />
    <glyph glyph-name="c" unicode="c" horiz-adv-x="1249" 
d="M975 406l142.999 -0.00195312c-32 -143.333 -89.667 -252.333 -173 -327s-190.666 -112 -321.999 -112c-74 0 -142.833 14.5 -206.5 43.5s-118.334 70.667 -164.001 125s-80.667 118.666 -105 192.999s-36.5 155.833 -36.5 244.5c0 94 13.167 179.833 39.5 257.5
s64.166 144.167 113.499 199.5s107.666 97.5 174.999 126.5s142.333 43.5 225 43.5c61.333 0 118.666 -9 171.999 -27s99.5 -44 138.5 -78s70.667 -75.5 95 -124.5s40.5 -104.833 48.5 -167.5h-143c-8 88.667 -39.167 155.834 -93.5 201.501s-129.833 68.5 -226.5 68.5
c-59.333 0 -114 -11.167 -164 -33.5s-92.333 -55.5 -127 -99.5s-61 -96.667 -79 -158s-27 -129.333 -27 -204c0 -70 8.83301 -134.667 26.5 -194s43.834 -110.666 78.501 -153.999s75.834 -76.166 123.501 -98.499s99.834 -33.5 156.501 -33.5c63.333 0 118.5 12 165.5 36
s84.833 59.167 113.5 105.5s46.334 101.833 53.001 166.5z" />
    <glyph glyph-name="d" unicode="d" horiz-adv-x="1376" 
d="M1151 0l-142.999 -0.000976562v164c-42.667 -48 -83.167 -86.167 -121.5 -114.5s-78 -49.166 -119 -62.499s-87.833 -20 -140.5 -20c-100.667 0 -190.334 25.833 -269.001 77.5s-139.5 124.5 -182.5 218.5s-64.5 201.667 -64.5 323c0 94 11.5 178.667 34.5 254
s56.167 140 99.5 194s95.5 95.167 156.5 123.5s127.833 42.5 200.5 42.5c58 0 109.833 -6.5 155.5 -19.5s88.167 -34.167 127.5 -63.5s80.333 -70 123 -122v631h143v-1626zM1008 585.999c0 139.333 -30.665 256.67 -91.998 352.003s-159 143 -293 143
c-79.333 0 -146 -18.833 -200 -56.5s-95 -93.334 -123 -167.001s-42 -162.834 -42 -267.501c0 -96.667 15.5 -182.834 46.5 -258.501s74.667 -134.167 131 -175.5s120.166 -62 191.499 -62c123.333 0 217.666 42 282.999 126s98 206 98 366z" />
    <glyph glyph-name="e" unicode="e" horiz-adv-x="1298" 
d="M983 369l152.001 0.00292969c-23.333 -61.333 -49.833 -116 -79.5 -164s-65 -90.167 -106 -126.5s-88 -64 -141 -83s-112.167 -28.5 -177.5 -28.5c-78.667 0 -150.5 14 -215.5 42s-120.167 68.167 -165.5 120.5s-79.833 115.333 -103.5 189s-35.5 157.167 -35.5 250.5
c0 128 21.5 239.5 64.5 334.5s104.833 168.167 185.5 219.5s174.667 77 282 77c94.667 0 178.667 -21.333 252 -64s128.666 -103.334 165.999 -182.001c18 -38.667 31.167 -77.834 39.5 -117.501s14.833 -81.667 19.5 -126l15 -145.5h-881
c0 -152.667 33 -269.334 99 -350.001s161.333 -121 286 -121c90 0 164.333 23.333 223 70s99 115 121 205zM258.001 684.003h725c-4 126.667 -35.667 224.5 -95 293.5s-142.333 103.5 -249 103.5c-70 0 -131.167 -15 -183.5 -45s-95.333 -75 -129 -135
s-56.5 -132.333 -68.5 -217z" />
    <glyph glyph-name="f" unicode="f" horiz-adv-x="668" 
d="M217 0l-0.000976562 1057h-168v110h168v213c0 88 19.833 153 59.5 195s100.5 63 182.5 63c35.333 0 69.333 -1.33301 102 -4v-127c-22 2.66699 -43.667 4 -65 4c-38 0 -66.167 -4 -84.5 -12s-30.666 -23 -36.999 -45s-9.5 -57.333 -9.5 -106v-181h196v-110h-196v-1057
h-148z" />
    <glyph glyph-name="g" unicode="g" horiz-adv-x="1376" 
d="M1151 1167l0.000976562 -1048c0 -122.667 -19 -224.334 -57 -305.001s-96.167 -140.167 -174.5 -178.5s-177.166 -57.5 -296.499 -57.5c-131.333 0 -235.5 25.833 -312.5 77.5s-123.167 126.834 -138.5 225.501h143c7.33301 -58 39 -104.5 95 -139.5s127 -52.5 213 -52.5
c142 0 245.667 41 311 123c26.667 34 44 71.167 52 111.5s14 112.166 18 215.499c0 5.33301 0.666992 14.666 2 27.999s2 24.666 2 33.999c-62 -72.667 -121.333 -123.667 -178 -153s-124.334 -44 -203.001 -44c-104 0 -195 24.5 -273 73.5s-138 118.833 -180 209.5
s-63 195.667 -63 315c0 117.333 21.5 221.333 64.5 312s103.667 161 182 211s166.833 75 265.5 75c81.333 0 153.166 -15.833 215.499 -47.5s118.833 -81.167 169.5 -148.5v163h143zM258.001 602.003c0 -98 14.665 -182.663 43.998 -253.996s71.833 -126 127.5 -164
s121.5 -57 197.5 -57c126 0 222.333 42.5 289 127.5s100 206.167 100 363.5c0 95.333 -14.5 178.166 -43.5 248.499s-71.5 123.666 -127.5 159.999s-123.333 54.5 -202 54.5c-79.333 0 -147.666 -19.333 -204.999 -58s-101.666 -93.834 -132.999 -165.501
s-47 -156.834 -47 -255.501z" />
    <glyph glyph-name="h" unicode="h" horiz-adv-x="1327" 
d="M180 0v1626h152v-598c39.333 46 76.166 81 110.499 105s72.5 41.167 114.5 51.5s89.667 15.5 143 15.5c150 0 255.167 -36.333 315.5 -109s90.5 -185 90.5 -337v-754h-148v762c0 75.333 -9.5 136.333 -28.5 183s-49.167 81 -90.5 103s-95.666 33 -162.999 33
c-108 0 -192.333 -35.5 -253 -106.5s-91 -169.167 -91 -294.5v-680h-152z" />
    <glyph glyph-name="i" unicode="i" horiz-adv-x="537" 
d="M180 0v1167h148v-1167h-148zM180 1425v201h148v-201h-148z" />
    <glyph glyph-name="j" unicode="j" horiz-adv-x="565" 
d="M188 1167l148.001 0.000976562v-1241c0 -88 -7.83301 -156.333 -23.5 -205s-42.334 -83.334 -80.001 -104.001s-90.5 -31 -158.5 -31c-16.667 0 -33 1.33301 -49 4v127c16 -2.66699 32.333 -4 49 -4c44 0 74 15.333 90 46s24 87.667 24 171v1237zM188.001 1421v197h148
v-197h-148z" />
    <glyph glyph-name="k" unicode="k" horiz-adv-x="1225" 
d="M180 0v1626h148v-1003l573 544l209 9l-479 -435l508 -741h-181l-421 647l-209 -188v-459h-148z" />
    <glyph glyph-name="l" unicode="l" horiz-adv-x="537" 
d="M180 0v1626h148v-1626h-148z" />
    <glyph glyph-name="m" unicode="m" horiz-adv-x="1966" 
d="M180 0l0.000976562 1167h148v-127c30 36 62 66.167 96 90.5s69.167 42 105.5 53s78.166 16.5 125.499 16.5c82.667 0 151.5 -15.833 206.5 -47.5s99.5 -81.167 133.5 -148.5c43.333 66.667 94.166 116 152.499 148s126.5 48 204.5 48c98.667 0 176 -16.833 232 -50.5
s94.833 -81.667 116.5 -144s32.5 -140.833 32.5 -235.5v-770h-152v782c0 69.333 -8.16699 126.166 -24.5 170.499s-41.5 76.833 -75.5 97.5s-78.333 31 -133 31c-108.667 0 -188.5 -32.667 -239.5 -98s-76.5 -166.333 -76.5 -303v-680h-147v778
c0 105.333 -17.833 182.166 -53.5 230.499s-94.5 72.5 -176.5 72.5c-121.333 0 -206.166 -38.333 -254.499 -115s-72.5 -181.667 -72.5 -315v-651h-148z" />
    <glyph glyph-name="n" unicode="n" horiz-adv-x="1327" 
d="M180 0v1167h152v-139c39.333 46 76.166 81 110.499 105s72.5 41.167 114.5 51.5s89.667 15.5 143 15.5c150 0 255.167 -36.333 315.5 -109s90.5 -185 90.5 -337v-754h-148v762c0 75.333 -9.5 136.333 -28.5 183s-49.167 81 -90.5 103s-95.666 33 -162.999 33
c-108 0 -192.333 -35.5 -253 -106.5s-91 -169.167 -91 -294.5v-680h-152z" />
    <glyph glyph-name="o" unicode="o" 
d="M111 586c0 90.667 13.001 173.998 39.001 249.998s63 141 111 195s105.167 95.667 171.5 125s139.166 44 218.499 44c80.667 0 154.5 -14.667 221.5 -44s124.167 -70.666 171.5 -123.999s83.833 -117.666 109.5 -192.999s38.5 -159.666 38.5 -252.999
c0 -98 -12.167 -184.833 -36.5 -260.5s-59.666 -140.167 -105.999 -193.5s-103.5 -94.166 -171.5 -122.499s-143.667 -42.5 -227 -42.5s-158.833 14.167 -226.5 42.5s-124.834 69.666 -171.501 123.999s-82 119.666 -106 195.999s-36 161.833 -36 256.5zM258.001 589.998
c0 -79.333 8.49902 -150 25.499 -212s42.5 -114.333 76.5 -157s75.333 -74.5 124 -95.5s104.334 -31.5 167.001 -31.5c84 0 155.5 18.833 214.5 56.5s103.5 93.5 133.5 167.5s45 164.667 45 272c0 97.333 -16.167 183.166 -48.5 257.499s-78.5 131.833 -138.5 172.5
s-128.667 61 -206 61c-76.667 0 -145 -20.333 -205 -61s-106.333 -98.167 -139 -172.5s-49 -160.166 -49 -257.499z" />
    <glyph glyph-name="p" unicode="p" horiz-adv-x="1376" 
d="M328 -418h-148v1585h148v-163c34.667 46 71 83.5 109 112.5s78.833 50.167 122.5 63.5s93.5 20 149.5 20c99.333 0 187.833 -25.167 265.5 -75.5s138.167 -121.5 181.5 -213.5s65 -196.333 65 -313c0 -182.667 -47 -333.5 -141 -452.5s-228.667 -178.5 -404 -178.5
c-72 0 -136 14.667 -192 44s-108 76.333 -156 141v-570zM1073 598c0 72.667 -8.66992 138.834 -26.0029 198.501s-41.666 110.5 -72.999 152.5s-70.166 74.5 -116.499 97.5s-97.166 34.5 -152.499 34.5c-93.333 0 -169 -23.167 -227 -69.5s-99 -107.5 -123 -183.5
s-36 -159.333 -36 -250c0 -98.667 14 -184.834 42 -258.501s69.5 -129.667 124.5 -168s119.833 -57.5 194.5 -57.5c82.667 0 153.5 19.833 212.5 59.5s103.833 97.5 134.5 173.5s46 166.333 46 271z" />
    <glyph glyph-name="q" unicode="q" horiz-adv-x="1376" 
d="M1008 -418v569.997c-50 -64 -103 -110.833 -159 -140.5s-120.667 -44.5 -194 -44.5c-89.333 0 -168.666 16.333 -237.999 49s-126.5 77.834 -171.5 135.501s-78.667 124.834 -101 201.501s-33.5 158.334 -33.5 245.001c0 116 22.167 220 66.5 312
s105.666 163.333 183.999 214s166.833 76 265.5 76c80.667 0 151.167 -15.333 211.5 -46s116.833 -80.667 169.5 -150v163h143v-1585h-143zM258 597.997c0 -80 9.00391 -151 27.0039 -213s44.167 -114.833 78.5 -158.5s76 -76.667 125 -99s103.167 -33.5 162.5 -33.5
c75.333 0 140.166 19 194.499 57s95.666 93.333 123.999 166s42.5 159.667 42.5 261c0 92.667 -11.667 176.5 -35 251.5s-63.833 135.667 -121.5 182s-133.834 69.5 -228.501 69.5c-73.333 0 -137.833 -20 -193.5 -60s-98.834 -96.5 -129.501 -169.5s-46 -157.5 -46 -253.5z
" />
    <glyph glyph-name="r" unicode="r" horiz-adv-x="819" 
d="M180 0v1167h148v-192c42.667 77.333 88.167 132.166 136.5 164.499s110.5 48.5 186.5 48.5c22 0 41.333 -1.33301 58 -4v-144h-37c-118.667 0 -205.667 -44.667 -261 -134s-83 -196 -83 -320v-586h-148z" />
    <glyph glyph-name="s" unicode="s" horiz-adv-x="1147" 
d="M242 369c16 -180.667 127.998 -271.001 335.998 -271.001c88 0 159 19.833 213 59.5s81 93.5 81 161.5c0 71.333 -28.167 119.666 -84.5 144.999s-147.5 51.5 -273.5 78.5s-221.333 61.667 -286 104s-97 112.166 -97 209.499c0 112.667 37.833 198.167 113.5 256.5
s183.834 87.5 324.501 87.5c78.667 0 149 -13.833 211 -41.5s111.5 -69.167 148.5 -124.5s57.833 -121.333 62.5 -198h-139c-16 86 -46.5 146.333 -91.5 181s-116.833 52 -215.5 52c-56.667 0 -104.834 -7.66699 -144.501 -23s-69.834 -37.166 -90.501 -65.499
s-31 -62.833 -31 -103.5c0 -68 26.833 -114.333 80.5 -139s144.334 -51.5 272.001 -80.5s223.667 -65.167 288 -108.5s96.5 -114.333 96.5 -213c0 -55.333 -10.167 -105.666 -30.5 -150.999s-50.5 -84.333 -90.5 -117s-87.833 -57.667 -143.5 -75s-117.834 -26 -186.501 -26
c-65.333 0 -126.666 8.5 -183.999 25.5s-107.166 42 -149.499 75s-75.166 74.833 -98.499 125.5s-35 109.334 -35 176.001h144z" />
    <glyph glyph-name="t" unicode="t" horiz-adv-x="668" 
d="M541 0c-47.333 -22 -96.668 -32.999 -148.001 -32.999c-47.333 0 -84.166 7.33301 -110.499 22s-45.166 38.667 -56.499 72s-17 80 -17 140v831h-164v111h164v344h151v-344h181v-111h-181v-831c0 -34.667 2.66699 -60.834 8 -78.501s14.166 -30.167 26.499 -37.5
s29.5 -11 51.5 -11c27.333 0 59 8 95 24v-98z" />
    <glyph glyph-name="u" unicode="u" horiz-adv-x="1327" 
d="M1106 1167l-0.000976562 -1167h-152v139c-39.333 -44.667 -76.166 -79.167 -110.499 -103.5s-72.333 -41.833 -114 -52.5s-89.5 -16 -143.5 -16c-149.333 0 -254.333 36.833 -315 110.5s-91 185.834 -91 336.501v753h148v-761c0 -76 9.5 -137.333 28.5 -184
s48.833 -81 89.5 -103s94 -33 160 -33c54 0 103 9.16699 147 27.5s80.5 44.666 109.5 78.999s51.5 76.833 67.5 127.5s24 106.334 24 167.001v680h152z" />
    <glyph glyph-name="v" unicode="v" horiz-adv-x="1098" 
d="M451 0l-431 1167h160l348 -983l361 983h155l-446 -1167h-147z" />
    <glyph glyph-name="w" unicode="w" horiz-adv-x="1630" 
d="M373 0l-357 1167h156l279 -942l270 942h151l250 -942l299 942h152l-377 -1167h-143l-258 934l-275 -934h-147z" />
    <glyph glyph-name="x" unicode="x" horiz-adv-x="1122" 
d="M8 0l451 614l-406 553h172l312 -450l319 450h172l-410 -553l447 -614h-176l-352 500l-353 -500h-176z" />
    <glyph glyph-name="y" unicode="y" horiz-adv-x="1122" 
d="M147 -283c33.333 -8 63.665 -11.999 90.998 -11.999c37.333 0 68.833 10 94.5 30s46.834 46 63.501 78s30.834 66.167 42.501 102.5l32.5 100.5l-451 1151h156l369 -966l360 966h152l-533 -1368c-23.333 -56.667 -47 -100.334 -71 -131.001s-52.833 -52.667 -86.5 -66
s-75.167 -20 -124.5 -20c-36 0 -67.667 2.66699 -95 8v127z" />
    <glyph glyph-name="z" unicode="z" horiz-adv-x="1098" 
d="M1004 0h-930v106l712 930h-659v131h848v-102l-717 -934h746v-131z" />
    <glyph glyph-name="braceleft" unicode="{" horiz-adv-x="1249" 
d="M516 598c32.667 -16 58.5 -35.832 77.5 -59.499s32.667 -53.167 41 -88.5s12.5 -79 12.5 -131v-397c0 -62 6.83301 -110.333 20.5 -145s37 -59.334 70 -74.001s79.5 -22 139.5 -22v-132c-96.667 0 -172.334 10 -227.001 30s-94.667 56.167 -120 108.5
s-38 127.833 -38 226.5v397c0 71.333 -10 124.166 -30 158.499s-56.667 59.5 -110 75.5v119c34 11.333 61 25.666 81 42.999s34.833 41.333 44.5 72s14.5 67.334 14.5 110.001v438c0 83.333 13.167 149.333 39.5 198s65.833 83.167 118.5 103.5s118.667 30.5 198 30.5
c10.667 0 20.334 -1.33301 29.001 -4v-135c-59.333 -3.33301 -105.5 -12.333 -138.5 -27s-56.5 -38 -70.5 -70s-21 -76.333 -21 -133v-418c0 -76.667 -9.33301 -134.667 -28 -174s-53 -72.666 -103 -99.999z" />
    <glyph glyph-name="bar" unicode="|" horiz-adv-x="1249" 
d="M528 1618h164v-2028h-164v2028z" />
    <glyph glyph-name="braceright" unicode="}" horiz-adv-x="1249" 
d="M700 602c-32.667 18 -58.6699 39.0029 -78.0029 63.0029s-33 53.667 -41 89s-12 77.666 -12 126.999v405c0 60.667 -6.66699 108 -20 142s-36.666 59 -69.999 75s-79.666 24.333 -138.999 25v131c74.667 0 135.334 -4.33301 182.001 -13s85.167 -25.334 115.5 -50.001
s52.5 -61.334 66.5 -110.001s21 -112.667 21 -192v-397c0 -48 4.5 -87.333 13.5 -118s23.5 -55.167 43.5 -73.5s47.333 -32.166 82 -41.499v-119c-50.667 -16 -86.5 -41.667 -107.5 -77s-31.5 -86.333 -31.5 -153v-442c0 -60.667 -7 -111.834 -21 -153.501
s-35.167 -74.667 -63.5 -99s-64.833 -42.333 -109.5 -54s-98.667 -17.5 -162 -17.5h-29v136c59.333 1.33301 105.5 9.5 138.5 24.5s56.333 39 70 72s20.5 78.5 20.5 136.5v418c0 76 9.5 133.333 28.5 172s53.167 70 102.5 94z" />
    <glyph glyph-name="asciitilde" unicode="~" horiz-adv-x="1249" 
d="M119 1167l-90 70c42 87.333 89.333 152.833 142 196.5s113 65.5 181 65.5c44 0 84.5 -7.66699 121.5 -23s82.833 -38.333 137.5 -69s101.334 -53.667 140.001 -69s79 -23 121 -23c46 0 86.833 14.667 122.5 44s72.834 77.333 111.501 144l86 -69
c-39.333 -84.667 -87.833 -149.667 -145.5 -195s-119.834 -68 -186.501 -68c-42.667 0 -80.5 6.66699 -113.5 20s-78 35.833 -135 67.5s-105 55.167 -144 70.5s-80.167 23 -123.5 23c-44 0 -83.833 -14.5 -119.5 -43.5s-70.834 -76.167 -105.501 -141.5z" />
    <glyph glyph-name="Adieresis" 
d="M1012 627l147 -0.000976562c-26 -116.667 -74.333 -214.167 -145 -292.5s-161.667 -124.166 -273 -137.499v-222h-114v222c-100 9.33301 -185.167 39.166 -255.5 89.499s-123.833 118.833 -160.5 205.5s-55 189 -55 307c0 116.667 17.833 218.334 53.5 305.001
s88.167 156.667 157.5 210s156 89 260 107v217h114v-217c122 -10 217.167 -47.667 285.5 -113s112.5 -161.333 132.5 -288h-147c-8 87.333 -33 152.333 -75 195s-107.333 69 -196 79v-966c82.667 14 146 45 190 93s71 116.667 81 206zM627 327.999v962
c-69.333 -12 -129 -39 -179 -81s-88 -97.667 -114 -167s-39 -149 -39 -239c0 -89.333 13 -168 39 -236s63.667 -122 113 -162s109.333 -65.667 180 -77z" />
    <glyph glyph-name="Adieresis" unicode="&#x402;" 
d="M1012 627l147 -0.000976562c-26 -116.667 -74.333 -214.167 -145 -292.5s-161.667 -124.166 -273 -137.499v-222h-114v222c-100 9.33301 -185.167 39.166 -255.5 89.499s-123.833 118.833 -160.5 205.5s-55 189 -55 307c0 116.667 17.833 218.334 53.5 305.001
s88.167 156.667 157.5 210s156 89 260 107v217h114v-217c122 -10 217.167 -47.667 285.5 -113s112.5 -161.333 132.5 -288h-147c-8 87.333 -33 152.333 -75 195s-107.333 69 -196 79v-966c82.667 14 146 45 190 93s71 116.667 81 206zM627 327.999v962
c-69.333 -12 -129 -39 -179 -81s-88 -97.667 -114 -167s-39 -149 -39 -239c0 -89.333 13 -168 39 -236s63.667 -122 113 -162s109.333 -65.667 180 -77z" />
    <glyph glyph-name="Aring" horiz-adv-x="1401" 
d="M1212 78c-94 -74 -192.001 -110.998 -294.001 -110.998c-44.667 0 -93.334 7.83301 -146.001 23.5l-158.5 47c-53 15.667 -101.833 23.5 -146.5 23.5c-50.667 0 -96.667 -6.5 -138 -19.5s-91 -37.833 -149 -74.5l-74 111c55.333 33.333 103.166 71.666 143.499 114.999
s71 89 92 137s31.5 96.333 31.5 145c0 89.333 -22 178 -66 266h-201v95h160c-7.33301 22.667 -14.833 44.167 -22.5 64.5s-18 50.666 -31 90.999s-21.667 72.666 -26 96.999s-6.5 50.5 -6.5 78.5c0 64.667 12.667 126.167 38 184.5s61.166 109 107.499 152
s100.166 76.167 161.499 99.5s127 35 197 35c82 0 153.167 -11.167 213.5 -33.5s111.333 -55.333 153 -99s73.834 -95.667 96.501 -156s37.667 -130.5 45 -210.5h-160c-0.666992 75.333 -14.667 140.5 -42 195.5s-66 96.167 -116 123.5s-110.667 41 -182 41
c-68.667 0 -129.834 -13.833 -183.501 -41.5s-95.167 -67 -124.5 -118s-44 -108.5 -44 -172.5c0 -82.667 31.333 -193 94 -331h422v-95h-385c18.667 -53.333 30.834 -93.833 36.501 -121.5s8.5 -58.167 8.5 -91.5c0 -67.333 -11.5 -126.833 -34.5 -178.5
s-66.167 -116.167 -129.5 -193.5c44.667 12 77.334 19.667 98.001 23s45.334 5 74.001 5c33.333 0 65.833 -3.33301 97.5 -10s68.334 -16 110.001 -28s76.834 -20.833 105.501 -26.5s55.667 -8.5 81 -8.5c42.667 0 80 6.83301 112 20.5s67 36.834 105 69.501z" />
    <glyph glyph-name="Aring" unicode="&#x403;" horiz-adv-x="1401" 
d="M1212 78c-94 -74 -192.001 -110.998 -294.001 -110.998c-44.667 0 -93.334 7.83301 -146.001 23.5l-158.5 47c-53 15.667 -101.833 23.5 -146.5 23.5c-50.667 0 -96.667 -6.5 -138 -19.5s-91 -37.833 -149 -74.5l-74 111c55.333 33.333 103.166 71.666 143.499 114.999
s71 89 92 137s31.5 96.333 31.5 145c0 89.333 -22 178 -66 266h-201v95h160c-7.33301 22.667 -14.833 44.167 -22.5 64.5s-18 50.666 -31 90.999s-21.667 72.666 -26 96.999s-6.5 50.5 -6.5 78.5c0 64.667 12.667 126.167 38 184.5s61.166 109 107.499 152
s100.166 76.167 161.499 99.5s127 35 197 35c82 0 153.167 -11.167 213.5 -33.5s111.333 -55.333 153 -99s73.834 -95.667 96.501 -156s37.667 -130.5 45 -210.5h-160c-0.666992 75.333 -14.667 140.5 -42 195.5s-66 96.167 -116 123.5s-110.667 41 -182 41
c-68.667 0 -129.834 -13.833 -183.501 -41.5s-95.167 -67 -124.5 -118s-44 -108.5 -44 -172.5c0 -82.667 31.333 -193 94 -331h422v-95h-385c18.667 -53.333 30.834 -93.833 36.501 -121.5s8.5 -58.167 8.5 -91.5c0 -67.333 -11.5 -126.833 -34.5 -178.5
s-66.167 -116.167 -129.5 -193.5c44.667 12 77.334 19.667 98.001 23s45.334 5 74.001 5c33.333 0 65.833 -3.33301 97.5 -10s68.334 -16 110.001 -28s76.834 -20.833 105.501 -26.5s55.667 -8.5 81 -8.5c42.667 0 80 6.83301 112 20.5s67 36.834 105 69.501z" />
    <glyph glyph-name="ccedilla" horiz-adv-x="1401" 
d="M655 0l-368 995l-164 -77l-41 118l303 131l348 -983l385 1442h152l-467 -1626h-148z" />
    <glyph glyph-name="ccedilla" unicode="&#x40c;" horiz-adv-x="1401" 
d="M655 0l-368 995l-164 -77l-41 118l303 131l348 -983l385 1442h152l-467 -1626h-148z" />
    <glyph glyph-name="eacute" horiz-adv-x="1376" 
d="M1135 1372v-155l-885 -398l885 -405v-156l-1053 487v140zM82 156h1053v-95h-1053v95z" />
    <glyph glyph-name="eacute" unicode="&#x40b;" horiz-adv-x="1376" 
d="M1135 1372v-155l-885 -398l885 -405v-156l-1053 487v140zM82 156h1053v-95h-1053v95z" />
    <glyph glyph-name="egrave" horiz-adv-x="1376" 
d="M106 1372l1053 -487v-140l-1053 -487v156l885 405l-885 398v155zM1159 156v-95h-1053v95h1053z" />
    <glyph glyph-name="egrave" unicode="&#x40f;" horiz-adv-x="1376" 
d="M106 1372l1053 -487v-140l-1053 -487v156l885 405l-885 398v155zM1159 156v-95h-1053v95h1053z" />
    <glyph glyph-name="ecircumflex" horiz-adv-x="1606" 
d="M1434 741c0 -61.333 -14.999 -117.833 -44.999 -169.5s-70.667 -92.167 -122 -121.5s-107.666 -44 -168.999 -44c-62 0 -119.5 16.333 -172.5 49s-93.833 76.334 -122.5 131.001c-28.667 -54.667 -69.5 -98.334 -122.5 -131.001s-110.5 -49 -172.5 -49
c-58.667 0 -114 15.333 -166 46s-93.333 71.167 -124 121.5s-46 103.5 -46 159.5c0 49.333 8.33301 95 25 137s40.334 79 71.001 111s66.167 56.667 106.5 74s84.833 26 133.5 26c65.333 0 123.166 -17.167 173.499 -51.5s89.5 -81.166 117.5 -140.499
c27.333 59.333 67.166 106.166 119.499 140.499s112.166 51.5 179.499 51.5c62 0 118.833 -15 170.5 -45s92.167 -71.333 121.5 -124s44 -109.667 44 -171zM1356 741c0 46.667 -11.5029 90.167 -34.5029 130.5s-54.167 72.5 -93.5 96.5s-82.666 36 -129.999 36
c-46.667 0 -89.667 -12 -129 -36s-70.666 -56 -93.999 -96s-35 -83.667 -35 -131c0 -45.333 11.5 -87.333 34.5 -126s54.333 -69.667 94 -93s81.5 -35 125.5 -35c48.667 0 92.834 11 132.501 33s71.167 52.833 94.5 92.5s35 82.5 35 128.5zM761.998 741
c0 46.667 -11.502 90.332 -34.502 130.999s-53.833 72.834 -92.5 96.501s-81 35.5 -127 35.5c-47.333 0 -90.666 -12 -129.999 -36s-70.5 -56.167 -93.5 -96.5s-34.5 -83.833 -34.5 -130.5c0 -45.333 11.5 -87.5 34.5 -126.5s53.833 -70 92.5 -93s79.667 -34.5 123 -34.5
c48.667 0 92.834 11 132.501 33s71.167 52.833 94.5 92.5s35 82.5 35 128.5z" />
    <glyph glyph-name="ecircumflex" unicode="&#x452;" horiz-adv-x="1606" 
d="M1434 741c0 -61.333 -14.999 -117.833 -44.999 -169.5s-70.667 -92.167 -122 -121.5s-107.666 -44 -168.999 -44c-62 0 -119.5 16.333 -172.5 49s-93.833 76.334 -122.5 131.001c-28.667 -54.667 -69.5 -98.334 -122.5 -131.001s-110.5 -49 -172.5 -49
c-58.667 0 -114 15.333 -166 46s-93.333 71.167 -124 121.5s-46 103.5 -46 159.5c0 49.333 8.33301 95 25 137s40.334 79 71.001 111s66.167 56.667 106.5 74s84.833 26 133.5 26c65.333 0 123.166 -17.167 173.499 -51.5s89.5 -81.166 117.5 -140.499
c27.333 59.333 67.166 106.166 119.499 140.499s112.166 51.5 179.499 51.5c62 0 118.833 -15 170.5 -45s92.167 -71.333 121.5 -124s44 -109.667 44 -171zM1356 741c0 46.667 -11.5029 90.167 -34.5029 130.5s-54.167 72.5 -93.5 96.5s-82.666 36 -129.999 36
c-46.667 0 -89.667 -12 -129 -36s-70.666 -56 -93.999 -96s-35 -83.667 -35 -131c0 -45.333 11.5 -87.333 34.5 -126s54.333 -69.667 94 -93s81.5 -35 125.5 -35c48.667 0 92.834 11 132.501 33s71.167 52.833 94.5 92.5s35 82.5 35 128.5zM761.998 741
c0 46.667 -11.502 90.332 -34.502 130.999s-53.833 72.834 -92.5 96.501s-81 35.5 -127 35.5c-47.333 0 -90.666 -12 -129.999 -36s-70.5 -56.167 -93.5 -96.5s-34.5 -83.833 -34.5 -130.5c0 -45.333 11.5 -87.5 34.5 -126.5s53.833 -70 92.5 -93s79.667 -34.5 123 -34.5
c48.667 0 92.834 11 132.501 33s71.167 52.833 94.5 92.5s35 82.5 35 128.5z" />
    <glyph glyph-name="ugrave" horiz-adv-x="1630" 
d="M197 0v1626h159v-844l881 844h217l-721 -676l729 -950h-192l-643 848l-271 -254v-594h-159zM553 1753l197 299h192l-274 -299h-115z" />
    <glyph glyph-name="ugrave" unicode="&#x45c;" horiz-adv-x="1630" 
d="M197 0v1626h159v-844l881 844h217l-721 -676l729 -950h-192l-643 848l-271 -254v-594h-159zM553 1753l197 299h192l-274 -299h-115z" />
    <glyph glyph-name="ucircumflex" horiz-adv-x="1274" 
d="M180 0v1171h148v-548l577 548h205l-479 -430l508 -741h-181l-421 647l-209 -188v-459h-148zM520 1380l197 303h192l-270 -303h-119z" />
    <glyph glyph-name="ucircumflex" unicode="&#x45b;" horiz-adv-x="1274" 
d="M180 0v1171h148v-548l577 548h205l-479 -430l508 -741h-181l-421 647l-209 -188v-459h-148zM520 1380l197 303h192l-270 -303h-119z" />
    <glyph glyph-name="dagger" unicode="&#xa0;" horiz-adv-x="1733" 
d="M180 266l212.996 221.001c-40 55.333 -69.833 111.333 -89.5 168s-29.5 115.334 -29.5 176.001c0 63.333 8.83301 119.666 26.5 168.999s49.834 108 96.501 176l-225 221l86 86l225 -221c69.333 48 128.833 80.333 178.5 97s107.834 25 174.501 25
c60.667 0 115.5 -8.66699 164.5 -26s107.5 -49.333 175.5 -96l225 221l86 -86l-221 -221c78.667 -105.333 118 -220.333 118 -345c0 -62.667 -8 -118.334 -24 -167.001s-46 -107.667 -90 -177l217 -221l-82 -86l-221 226c-56 -44 -112.167 -76.167 -168.5 -96.5
s-117.833 -30.5 -184.5 -30.5c-55.333 0 -110.666 10 -165.999 30s-114.666 52.333 -177.999 97l-225 -226zM830.996 1249c-57.333 0 -111.167 -10.665 -161.5 -31.998s-94.833 -51 -133.5 -89s-68.667 -82.833 -90 -134.5s-32 -105.834 -32 -162.501
c0 -55.333 10.667 -108.333 32 -159s51.5 -95.5 90.5 -134.5s84 -69.333 135 -91s104.167 -32.5 159.5 -32.5s108.333 10.667 159 32s95.167 51.333 133.5 90s68.166 83.167 89.499 133.5s32 104.166 32 161.499c0 58.667 -10.667 113.5 -32 164.5s-50.833 95.333 -88.5 133
s-81.667 67.167 -132 88.5s-104.166 32 -161.499 32z" />
    <glyph glyph-name="degree" unicode="&#xa1;" horiz-adv-x="1376" 
d="M1262 1626l-840 -1626h-180l336 623l-545 1003h196l439 -864l401 864h193zM655 1675c-48 0 -94.498 9 -139.498 27s-81.333 43.833 -109 77.5s-41.5 72.5 -41.5 116.5h143c0 -26.667 15.333 -50.5 46 -71.5s64.334 -32.5 101.001 -34.5
c39.333 2 75.166 13.333 107.499 34s48.5 44.667 48.5 72h143c0 -43.333 -14.333 -82 -43 -116s-65.834 -60 -111.501 -78s-93.834 -27 -144.501 -27z" />
    <glyph glyph-name="degree" unicode="&#x40e;" horiz-adv-x="1376" 
d="M1262 1626l-840 -1626h-180l336 623l-545 1003h196l439 -864l401 864h193zM655 1675c-48 0 -94.498 9 -139.498 27s-81.333 43.833 -109 77.5s-41.5 72.5 -41.5 116.5h143c0 -26.667 15.333 -50.5 46 -71.5s64.334 -32.5 101.001 -34.5
c39.333 2 75.166 13.333 107.499 34s48.5 44.667 48.5 72h143c0 -43.333 -14.333 -82 -43 -116s-65.834 -60 -111.501 -78s-93.834 -27 -144.501 -27z" />
    <glyph glyph-name="cent" unicode="&#xa2;" horiz-adv-x="1147" 
d="M147 -283c33.333 -8 63.665 -11.999 90.998 -11.999c37.333 0 68.833 10 94.5 30s46.834 46 63.501 78s30.834 66.167 42.501 102.5l32.5 100.5l-451 1151h156l369 -966l360 966h152l-533 -1368c-23.333 -56.667 -47 -100.334 -71 -131.001s-52.833 -52.667 -86.5 -66
s-75.167 -20 -124.5 -20c-36 0 -67.667 2.66699 -95 8v127zM536.999 1401c-75.333 0 -141.333 20 -198 60s-85 92.333 -85 157h135c0 -26.667 14.667 -49.167 44 -67.5s64 -28.5 104 -30.5c36 2 69.5 12.167 100.5 30.5s46.5 40.833 46.5 67.5h139
c0 -64.667 -29.333 -117 -88 -157s-124.667 -60 -198 -60z" />
    <glyph glyph-name="cent" unicode="&#x45e;" horiz-adv-x="1147" 
d="M147 -283c33.333 -8 63.665 -11.999 90.998 -11.999c37.333 0 68.833 10 94.5 30s46.834 46 63.501 78s30.834 66.167 42.501 102.5l32.5 100.5l-451 1151h156l369 -966l360 966h152l-533 -1368c-23.333 -56.667 -47 -100.334 -71 -131.001s-52.833 -52.667 -86.5 -66
s-75.167 -20 -124.5 -20c-36 0 -67.667 2.66699 -95 8v127zM536.999 1401c-75.333 0 -141.333 20 -198 60s-85 92.333 -85 157h135c0 -26.667 14.667 -49.167 44 -67.5s64 -28.5 104 -30.5c36 2 69.5 12.167 100.5 30.5s46.5 40.833 46.5 67.5h139
c0 -64.667 -29.333 -117 -88 -157s-124.667 -60 -198 -60z" />
    <glyph glyph-name="sterling" unicode="&#xa3;" horiz-adv-x="1122" 
d="M29 524l150.996 -0.000976562c0 -61.333 3.33301 -115.5 10 -162.5s20.334 -90.167 41.001 -129.5s51 -70.166 91 -92.499s91 -33.5 153 -33.5c70.667 0 126.834 11.5 168.501 34.5s71.834 60.5 90.501 112.5s28 120.667 28 206v1167h164v-1143
c0 -80 -7.33301 -150.667 -22 -212s-39 -114.833 -73 -160.5s-79.667 -81 -137 -106s-127.666 -37.5 -210.999 -37.5c-305.333 0 -458 155.667 -458 467c0 35.333 1.33301 65.333 4 90z" />
    <glyph glyph-name="sterling" unicode="&#x408;" horiz-adv-x="1122" 
d="M29 524l150.996 -0.000976562c0 -61.333 3.33301 -115.5 10 -162.5s20.334 -90.167 41.001 -129.5s51 -70.166 91 -92.499s91 -33.5 153 -33.5c70.667 0 126.834 11.5 168.501 34.5s71.834 60.5 90.501 112.5s28 120.667 28 206v1167h164v-1143
c0 -80 -7.33301 -150.667 -22 -212s-39 -114.833 -73 -160.5s-79.667 -81 -137 -106s-127.666 -37.5 -210.999 -37.5c-305.333 0 -458 155.667 -458 467c0 35.333 1.33301 65.333 4 90z" />
    <glyph glyph-name="section" unicode="&#xa4;" horiz-adv-x="1376" 
d="M119 295l-89.998 69.998c81.333 174.667 189 262 323 262c44 0 85.333 -8 124 -24s84.5 -39.167 137.5 -69.5s98.833 -53.166 137.5 -68.499s79 -23 121 -23c45.333 0 85.666 14.333 120.999 43s73 77.334 113 146.001l86 -66
c-38.667 -85.333 -86.667 -150.333 -144 -195s-120 -67 -188 -67c-42.667 0 -80.5 6.66699 -113.5 20s-77 35.333 -132 66s-103 54 -144 70s-83.167 24 -126.5 24c-44 0 -83.833 -14.5 -119.5 -43.5s-70.834 -77.167 -105.501 -144.5zM119.002 646.998l-90.0029 70
c42 87.333 89.333 152.833 142 196.5s113 65.5 181 65.5c44 0 84.5 -7.66699 121.5 -23s82.833 -38.333 137.5 -69s101.334 -53.667 140.001 -69s79 -23 121 -23c46 0 86.833 14.667 122.5 44s72.834 77.333 111.501 144l86 -70c-38.667 -84 -87 -148.667 -145 -194
s-120.333 -68 -187 -68c-42.667 0 -80.5 6.66699 -113.5 20s-77 35.333 -132 66s-103 54 -144 70s-83.167 24 -126.5 24c-44 0 -83.667 -14.167 -119 -42.5s-70.666 -75.5 -105.999 -141.5z" />
    <glyph glyph-name="germandbls" unicode="&#xa7;" horiz-adv-x="1401" 
d="M1081 1253l-146.997 -0.00390625c-4 88 -26.5 155.167 -67.5 201.5s-99.167 69.5 -174.5 69.5c-73.333 0 -130.5 -16.833 -171.5 -50.5s-61.5 -78.5 -61.5 -134.5c0 -50 14.5 -90.667 43.5 -122s92.167 -73.666 189.5 -126.999l170 -96
c63.333 -36 119.166 -72.667 167.499 -110s88.833 -82 121.5 -134s49 -109.333 49 -172c0 -66 -19.5 -125.5 -58.5 -178.5s-94.5 -94.833 -166.5 -125.5c37.333 -22.667 65.833 -56.334 85.5 -101.001s29.5 -91.334 29.5 -140.001c0 -64 -16.5 -121.667 -49.5 -173
s-79 -91.333 -138 -120s-126.5 -43 -202.5 -43c-268.667 0 -409 140.667 -421 422h155c4 -97.333 27.833 -170.166 71.5 -218.499s107.167 -72.5 190.5 -72.5c44 0 84.5 8 121.5 24s65.667 38.667 86 68s30.5 62.666 30.5 99.999c0 68 -29 124.5 -87 169.5
s-150.5 102.5 -277.5 172.5s-223.667 137 -290 201s-99.5 142.667 -99.5 236c0 70 20.333 133.333 61 190s95.667 97 165 121c-36.667 36.667 -62.334 71.334 -77.001 104.001s-22 70.334 -22 113.001c0 48.667 9.16699 93.334 27.5 134.001s44.5 75.334 78.5 104.001
s74.5 50.834 121.5 66.501s99.5 23.5 157.5 23.5c81.333 0 151.166 -15.833 209.499 -47.5s102.833 -77.667 133.5 -138s46 -132.5 46 -216.5zM496.003 1028c-112 -51.333 -167.999 -125.001 -167.999 -221.001c0 -44 16.333 -84.833 49 -122.5
s87.334 -78.834 164.001 -123.501l125 -74.5l130 -79.5c40 -24.667 67 -41.667 81 -51c56.667 19.333 100.167 47.333 130.5 84s45.5 79.667 45.5 129c0 48.667 -20.5 94.834 -61.5 138.501s-83.833 78.834 -128.5 105.501s-109.334 63.167 -194.001 109.5
s-142.334 81.5 -173.001 105.5z" />
    <glyph glyph-name="registered" unicode="&#xa8;" horiz-adv-x="1532" 
d="M197 0v1626h1089v-143h-926v-582h852v-131h-852v-635h947v-135h-1110zM496 1810v185h135v-185h-135zM889 1810v185h139v-185h-139z" />
    <glyph glyph-name="registered" unicode="&#x401;" horiz-adv-x="1532" 
d="M197 0v1626h1089v-143h-926v-582h852v-131h-852v-635h947v-135h-1110zM496 1810v185h135v-185h-135zM889 1810v185h139v-185h-139z" />
    <glyph glyph-name="copyright" unicode="&#xa9;" horiz-adv-x="1966" 
d="M958 1651c115.333 0 223.5 -21.333 324.5 -64s190.167 -103 267.5 -181s137.333 -168 180 -270s64 -210.333 64 -325c0 -150 -37.5 -289.667 -112.5 -419s-176.5 -231.833 -304.5 -307.5s-267.667 -113.5 -419 -113.5c-150.667 0 -290 37.833 -418 113.5
s-229.5 178.167 -304.5 307.5s-112.5 269 -112.5 419c0 114.667 21.5 223 64.5 325s103.333 192 181 270s166.667 138.333 267 181s207.833 64 322.5 64zM958 1565c-135.333 0 -260.333 -33.6699 -375 -101.003s-205.667 -158.666 -273 -273.999
s-101 -241.666 -101 -378.999s33.667 -263.666 101 -378.999s158.333 -206.666 273 -273.999s239.667 -101 375 -101c102 0 198.333 19.333 289 58s170.334 92.667 239.001 162s122.167 150.166 160.5 242.499s57.5 189.5 57.5 291.5s-19.167 199.333 -57.5 292
s-91.833 173.5 -160.5 242.5s-148.334 122.833 -239.001 161.5s-187 58 -289 58zM1405 720.997c-3.33301 -61.333 -16 -116.501 -38 -165.501s-53.167 -91.833 -93.5 -128.5s-86.5 -64.5 -138.5 -83.5s-109.333 -28.5 -172 -28.5c-135.333 0 -246.333 46.333 -333 139
s-130 210.334 -130 353.001c0 99.333 19.5 187.5 58.5 264.5s94.167 136.833 165.5 179.5s151 64 239 64c76.667 0 146.334 -14.167 209.001 -42.5s113.5 -67.833 152.5 -118.5s61.833 -107.667 68.5 -171h-90c-11.333 50.667 -32 93.834 -62 129.501
s-68.333 62.667 -115 81s-101 27.5 -163 27.5c-70 0 -132.167 -17 -186.5 -51s-96.333 -82.5 -126 -145.5s-44.5 -135.5 -44.5 -217.5c0 -78 15.167 -146.833 45.5 -206.5s72.666 -106.334 126.999 -140.001s115.833 -50.5 184.5 -50.5c65.333 0 123.5 12.167 174.5 36.5
s92.167 60 123.5 107s52 102.833 62 167.5h82z" />
    <glyph glyph-name="trademark" unicode="&#xaa;" horiz-adv-x="1708" 
d="M885 795l-611.005 -0.00292969c2 -138 25.5 -258.833 70.5 -362.5s108.667 -184 191 -241s178.166 -85.5 287.499 -85.5c68.667 0 133.834 11 195.501 33s115.834 54.167 162.501 96.5s84.667 92.333 114 150s48.333 121.834 57 192.501h155
c-14 -97.333 -39.667 -184 -77 -260s-85.333 -140 -144 -192s-127.167 -91.5 -205.5 -118.5s-164.166 -40.5 -257.499 -40.5c-109.333 0 -208.5 19.833 -297.5 59.5s-165.167 96.834 -228.5 171.501s-111.666 165.167 -144.999 271.5s-50 224.166 -50 353.499
c0 126.667 17.167 241.334 51.5 344.001s83.833 190.334 148.5 263.001s142.334 128.334 233.001 167.001s192.334 58 305.001 58c174 0 314.5 -40.667 421.5 -122s180.833 -204.666 221.5 -369.999h-160c-37.333 120 -96 209.5 -176 268.5s-183.667 88.5 -311 88.5
c-78 0 -149.667 -13.667 -215 -41s-122 -66.833 -170 -118.5s-86.667 -114.334 -116 -188.001s-48 -155.834 -56 -246.501h606v-131z" />
    <glyph glyph-name="trademark" unicode="&#x404;" horiz-adv-x="1708" 
d="M885 795l-611.005 -0.00292969c2 -138 25.5 -258.833 70.5 -362.5s108.667 -184 191 -241s178.166 -85.5 287.499 -85.5c68.667 0 133.834 11 195.501 33s115.834 54.167 162.501 96.5s84.667 92.333 114 150s48.333 121.834 57 192.501h155
c-14 -97.333 -39.667 -184 -77 -260s-85.333 -140 -144 -192s-127.167 -91.5 -205.5 -118.5s-164.166 -40.5 -257.499 -40.5c-109.333 0 -208.5 19.833 -297.5 59.5s-165.167 96.834 -228.5 171.501s-111.666 165.167 -144.999 271.5s-50 224.166 -50 353.499
c0 126.667 17.167 241.334 51.5 344.001s83.833 190.334 148.5 263.001s142.334 128.334 233.001 167.001s192.334 58 305.001 58c174 0 314.5 -40.667 421.5 -122s180.833 -204.666 221.5 -369.999h-160c-37.333 120 -96 209.5 -176 268.5s-183.667 88.5 -311 88.5
c-78 0 -149.667 -13.667 -215 -41s-122 -66.833 -170 -118.5s-86.667 -114.334 -116 -188.001s-48 -155.834 -56 -246.501h606v-131z" />
    <glyph glyph-name="acute" unicode="&#xab;" horiz-adv-x="1147" 
d="M496 979v-172l-254 -217l254 -221v-181l-385 332v127zM918 979v-172l-250 -217l250 -221v-181l-381 332v127z" />
    <glyph glyph-name="dieresis" unicode="&#xac;" 
d="M983 0v528h-901v144h1053v-672h-152z" />
    <glyph glyph-name="notequal" unicode="&#xad;" horiz-adv-x="1376" 
d="M61 1036h525l225 590h143l-233 -590h438v-86h-475l-94 -254h569v-90h-606l-340 -889h-135l340 889h-357v90h390l102 254h-492v86z" />
    <glyph glyph-name="AE" unicode="&#xae;" horiz-adv-x="2015" 
d="M958 1651c115.333 0 223.5 -21.333 324.5 -64s190.167 -103 267.5 -181s137.333 -168 180 -270s64 -210.333 64 -325c0 -150 -37.5 -289.667 -112.5 -419s-176.5 -231.833 -304.5 -307.5s-267.667 -113.5 -419 -113.5c-150.667 0 -290 37.833 -418 113.5
s-229.5 178.167 -304.5 307.5s-112.5 269 -112.5 419c0 114.667 21.5 223 64.5 325s103.333 192 181 270s166.667 138.333 267 181s207.833 64 322.5 64zM958 1565c-135.333 0 -260.333 -33.6699 -375 -101.003s-205.667 -158.666 -273 -273.999
s-101 -241.666 -101 -378.999s33.667 -263.666 101 -378.999s158.333 -206.666 273 -273.999s239.667 -101 375 -101c102 0 198.333 19.333 289 58s170.334 92.667 239.001 162s122.167 150.166 160.5 242.499s57.5 189.5 57.5 291.5s-19.167 199.333 -57.5 292
s-91.833 173.5 -160.5 242.5s-148.334 122.833 -239.001 161.5s-187 58 -289 58zM598 327.997l-0.00195312 957.997h406c72.667 0 134 -10.333 184 -31s87.667 -50.667 113 -90s38 -87.666 38 -144.999c0 -55.333 -15 -102.833 -45 -142.5s-73.667 -70.167 -131 -91.5
c57.333 -17.333 96.833 -42.5 118.5 -75.5s33.334 -72.5 35.001 -118.5l5 -140c1.66699 -47.333 11.834 -88.666 30.501 -123.999h-107c-10 20 -16.667 54 -20 102c-2 40.667 -4.5 85.5 -7.5 134.5s-11.167 85.833 -24.5 110.5s-37.833 43.334 -73.5 56.001
s-89.5 19 -161.5 19h-253v-422h-107zM704.998 1211.99l0.00195312 -389h253c61.333 0 112.166 7 152.499 21s70.166 35.167 89.499 63.5s29 64.5 29 108.5c0 130.667 -82 196 -246 196h-278z" />
    <glyph glyph-name="Oslash" unicode="&#xaf;" horiz-adv-x="770" 
d="M418 1769v205h172v-205h-172zM106 1769v205h173v-205h-173zM262 0v1626h168v-1626h-168z" />
    <glyph glyph-name="Oslash" unicode="&#x407;" horiz-adv-x="770" 
d="M418 1769v205h172v-205h-172zM106 1769v205h173v-205h-173zM262 0v1626h168v-1626h-168z" />
    <glyph glyph-name="infinity" unicode="&#xb0;" horiz-adv-x="1225" 
d="M942 1270c0 -60.667 -14.668 -116.67 -44.001 -168.003s-70 -92.166 -122 -122.499s-108.667 -45.5 -170 -45.5c-58 0 -112.5 15.333 -163.5 46s-91.833 71.5 -122.5 122.5s-46 105.5 -46 163.5c0 62.667 14.5 120.5 43.5 173.5s69.167 94.667 120.5 125
s107.333 45.5 168 45.5c62.667 0 119.834 -15.167 171.501 -45.5s92 -71.666 121 -123.999s43.5 -109.166 43.5 -170.499zM863.999 1270c0 74 -24.833 136.164 -74.5 186.497s-110.834 75.5 -183.501 75.5c-45.333 0 -87.666 -11.667 -126.999 -35
s-70.333 -55.166 -93 -95.499s-34 -84.166 -34 -131.499c0 -44 11.5 -85.667 34.5 -125s53.667 -70.666 92 -93.999s79.5 -35 123.5 -35c47.333 0 91.5 11.5 132.5 34.5s72.833 54 95.5 93s34 81.167 34 126.5z" />
    <glyph glyph-name="plusminus" unicode="&#xb1;" horiz-adv-x="1376" 
d="M61 901h504v467h90v-467h504v-90h-504v-459h-90v459h-504v90zM61 242h1098v-90h-1098v90z" />
    <glyph glyph-name="lessequal" unicode="&#xb2;" horiz-adv-x="614" 
d="M197 0v1626h163v-1626h-163zM197 1769v205h168v-205h-168z" />
    <glyph glyph-name="lessequal" unicode="&#x406;" horiz-adv-x="614" 
d="M197 0v1626h163v-1626h-163zM197 1769v205h168v-205h-168z" />
    <glyph glyph-name="greaterequal" unicode="&#xb3;" horiz-adv-x="512" 
d="M180 0v1167h148v-1167h-148z" />
    <glyph glyph-name="greaterequal" unicode="&#x456;" horiz-adv-x="512" 
d="M180 0v1167h148v-1167h-148z" />
    <glyph glyph-name="nonbreakingspace" unicode="&#xb4;" horiz-adv-x="1606" 
d="M197 0v1626h159v-844l881 844h217l-721 -676l729 -950h-192l-643 848l-271 -254v-594h-159z" />
    <glyph glyph-name="nonbreakingspace" unicode="&#x491;" horiz-adv-x="1606" 
d="M197 0v1626h159v-844l881 844h217l-721 -676l729 -950h-192l-643 848l-271 -254v-594h-159z" />
    <glyph glyph-name="mu" unicode="&#xb5;" horiz-adv-x="1327" 
d="M156 -406l-0.00488281 1573h147v-671c0 -66 3.83301 -119.5 11.5 -160.5s20.834 -75.667 39.501 -104s45.334 -54.833 80.001 -79.5c62 -44 127.667 -66 197 -66c66.667 0 127 19.167 181 57.5s96 90.833 126 157.5s45 141 45 223v643h147v-1167h-147v238
c-39.333 -91.333 -87.666 -158.666 -144.999 -201.999s-127.666 -65 -210.999 -65c-48.667 0 -92.167 6.33301 -130.5 19s-73.166 32.167 -104.499 58.5s-61 62.166 -89 107.499v-562h-147z" />
    <glyph glyph-name="partialdiff" unicode="&#xb6;" 
d="M545 -279l-0.000976562 1037c-90 0 -172.167 16.167 -246.5 48.5s-133.166 80.666 -176.499 144.999s-65 143.166 -65 236.499c0 76 14 142.5 42 199.5s66 102.833 114 137.5s103.333 60.167 166 76.5s131.667 24.5 207 24.5h561v-78h-143v-1827h-95v1827h-270v-1827h-94
z" />
    <glyph glyph-name="product" unicode="&#xb8;" horiz-adv-x="1298" 
d="M983 369l152.001 0.00292969c-23.333 -61.333 -49.833 -116 -79.5 -164s-65 -90.167 -106 -126.5s-88 -64 -141 -83s-112.167 -28.5 -177.5 -28.5c-78.667 0 -150.5 14 -215.5 42s-120.167 68.167 -165.5 120.5s-79.833 115.333 -103.5 189s-35.5 157.167 -35.5 250.5
c0 128 21.5 239.5 64.5 334.5s104.833 168.167 185.5 219.5s174.667 77 282 77c94.667 0 178.667 -21.333 252 -64s128.666 -103.334 165.999 -182.001c18 -38.667 31.167 -77.834 39.5 -117.501s14.833 -81.667 19.5 -126l15 -145.5h-881
c0 -152.667 33 -269.334 99 -350.001s161.333 -121 286 -121c90 0 164.333 23.333 223 70s99 115 121 205zM352.001 1442v184h135v-184h-135zM750.001 1442v184h135v-184h-135zM258.001 684.003h725c-4 126.667 -35.667 224.5 -95 293.5s-142.333 103.5 -249 103.5
c-70 0 -131.167 -15 -183.5 -45s-95.333 -75 -129 -135s-56.5 -132.333 -68.5 -217z" />
    <glyph glyph-name="product" unicode="&#x451;" horiz-adv-x="1298" 
d="M983 369l152.001 0.00292969c-23.333 -61.333 -49.833 -116 -79.5 -164s-65 -90.167 -106 -126.5s-88 -64 -141 -83s-112.167 -28.5 -177.5 -28.5c-78.667 0 -150.5 14 -215.5 42s-120.167 68.167 -165.5 120.5s-79.833 115.333 -103.5 189s-35.5 157.167 -35.5 250.5
c0 128 21.5 239.5 64.5 334.5s104.833 168.167 185.5 219.5s174.667 77 282 77c94.667 0 178.667 -21.333 252 -64s128.666 -103.334 165.999 -182.001c18 -38.667 31.167 -77.834 39.5 -117.501s14.833 -81.667 19.5 -126l15 -145.5h-881
c0 -152.667 33 -269.334 99 -350.001s161.333 -121 286 -121c90 0 164.333 23.333 223 70s99 115 121 205zM352.001 1442v184h135v-184h-135zM750.001 1442v184h135v-184h-135zM258.001 684.003h725c-4 126.667 -35.667 224.5 -95 293.5s-142.333 103.5 -249 103.5
c-70 0 -131.167 -15 -183.5 -45s-95.333 -75 -129 -135s-56.5 -132.333 -68.5 -217z" />
    <glyph glyph-name="pi" unicode="&#xb9;" horiz-adv-x="2470" 
d="M197 0v1626h163l918 -1393v1393h143v-1626h-159l-922 1393v-1393h-143zM2232 795v-86h-704v86h704zM1884 1655c64.667 0 122.833 -15.6689 174.5 -47.002s92.167 -75.166 121.5 -131.499s44 -119.833 44 -190.5c0 -74.667 -14.167 -140.167 -42.5 -196.5
s-68.666 -99.833 -121 -130.5c-52.333 -30.667 -113.833 -46 -184.5 -46c-69.333 0 -129.5 15.5 -180.5 46.5s-90.333 75.333 -118 133s-41.5 124.834 -41.5 201.501c0 104.667 33 191 99 259s149 102 249 102zM1884 1577c-48 0 -90.667 -12.168 -128 -36.501
s-66.333 -58.5 -87 -102.5s-31 -93.333 -31 -148c0 -62 9.83301 -115.167 29.5 -159.5s47.667 -78.666 84 -102.999s77.833 -36.5 124.5 -36.5c50 0 93.5 12 130.5 36s65.5 58.333 85.5 103s30 98 30 160c0 54.667 -10.167 104 -30.5 148s-48.5 78.167 -84.5 102.5
s-77 36.5 -123 36.5z" />
    <glyph glyph-name="pi" unicode="&#x2116;" horiz-adv-x="2470" 
d="M197 0v1626h163l918 -1393v1393h143v-1626h-159l-922 1393v-1393h-143zM2232 795v-86h-704v86h704zM1884 1655c64.667 0 122.833 -15.6689 174.5 -47.002s92.167 -75.166 121.5 -131.499s44 -119.833 44 -190.5c0 -74.667 -14.167 -140.167 -42.5 -196.5
s-68.666 -99.833 -121 -130.5c-52.333 -30.667 -113.833 -46 -184.5 -46c-69.333 0 -129.5 15.5 -180.5 46.5s-90.333 75.333 -118 133s-41.5 124.834 -41.5 201.501c0 104.667 33 191 99 259s149 102 249 102zM1884 1577c-48 0 -90.667 -12.168 -128 -36.501
s-66.333 -58.5 -87 -102.5s-31 -93.333 -31 -148c0 -62 9.83301 -115.167 29.5 -159.5s47.667 -78.666 84 -102.999s77.833 -36.5 124.5 -36.5c50 0 93.5 12 130.5 36s65.5 58.333 85.5 103s30 98 30 160c0 54.667 -10.167 104 -30.5 148s-48.5 78.167 -84.5 102.5
s-77 36.5 -123 36.5z" />
    <glyph glyph-name="integral" unicode="&#xba;" horiz-adv-x="1249" 
d="M238 672l413.003 -0.00195312v-144h-413c0 -81.333 15.667 -155.333 47 -222s74.666 -118.667 129.999 -156s119 -56 191 -56c97.333 0 176.5 27.667 237.5 83s96.5 131.666 106.5 228.999h144c-10.667 -99.333 -38.334 -181.666 -83.001 -246.999
s-102.5 -113.666 -173.5 -144.999s-150.833 -47 -239.5 -47c-101.333 0 -190.833 25.333 -268.5 76s-137.667 122.334 -180 215.001s-63.5 197.667 -63.5 315c0 94 11.5 179.5 34.5 256.5s56.833 142.667 101.5 197s98.667 95.5 162 123.5s134.666 42 213.999 42
c56.667 0 112 -8.66699 166 -26s103.667 -42.5 149 -75.5s84 -74.5 116 -124.5s53.667 -104.333 65 -163h-144c-12 56 -34.5 104 -67.5 144s-73.667 70.333 -122 91s-102.5 31 -162.5 31c-70 0 -132.5 -17 -187.5 -51s-97.5 -81.5 -127.5 -142.5s-45 -128.833 -45 -203.5z
" />
    <glyph glyph-name="integral" unicode="&#x454;" horiz-adv-x="1249" 
d="M238 672l413.003 -0.00195312v-144h-413c0 -81.333 15.667 -155.333 47 -222s74.666 -118.667 129.999 -156s119 -56 191 -56c97.333 0 176.5 27.667 237.5 83s96.5 131.666 106.5 228.999h144c-10.667 -99.333 -38.334 -181.666 -83.001 -246.999
s-102.5 -113.666 -173.5 -144.999s-150.833 -47 -239.5 -47c-101.333 0 -190.833 25.333 -268.5 76s-137.667 122.334 -180 215.001s-63.5 197.667 -63.5 315c0 94 11.5 179.5 34.5 256.5s56.833 142.667 101.5 197s98.667 95.5 162 123.5s134.666 42 213.999 42
c56.667 0 112 -8.66699 166 -26s103.667 -42.5 149 -75.5s84 -74.5 116 -124.5s53.667 -104.333 65 -163h-144c-12 56 -34.5 104 -67.5 144s-73.667 70.333 -122 91s-102.5 31 -162.5 31c-70 0 -132.5 -17 -187.5 -51s-97.5 -81.5 -127.5 -142.5s-45 -128.833 -45 -203.5z
" />
    <glyph glyph-name="ordfeminine" unicode="&#xbb;" horiz-adv-x="1147" 
d="M541 979l385 -332v-127l-385 -332v181l254 221l-254 217v172zM119 979l381 -332v-127l-381 -332v181l250 221l-250 217v172z" />
    <glyph glyph-name="ordmasculine" unicode="&#xbc;" horiz-adv-x="565" 
d="M188 1167l148.001 0.000976562v-1241c0 -88 -7.83301 -156.333 -23.5 -205s-42.334 -83.334 -80.001 -104.001s-90.5 -31 -158.5 -31c-16.667 0 -33 1.33301 -49 4v127c16 -2.66699 32.333 -4 49 -4c44 0 74 15.333 90 46s24 87.667 24 171v1237zM188.001 1421v197h148
v-197h-148z" />
    <glyph glyph-name="ordmasculine" unicode="&#x458;" horiz-adv-x="565" 
d="M188 1167l148.001 0.000976562v-1241c0 -88 -7.83301 -156.333 -23.5 -205s-42.334 -83.334 -80.001 -104.001s-90.5 -31 -158.5 -31c-16.667 0 -33 1.33301 -49 4v127c16 -2.66699 32.333 -4 49 -4c44 0 74 15.333 90 46s24 87.667 24 171v1237zM188.001 1421v197h148
v-197h-148z" />
    <glyph glyph-name="Omega" unicode="&#xbd;" horiz-adv-x="1532" 
d="M98 541l159.996 -0.00195312c5.33301 -93.333 25.5 -172.5 60.5 -237.5s84.833 -114.167 149.5 -147.5s143.667 -50 237 -50c68.667 0 130.334 7.5 185.001 22.5s101.167 37 139.5 66s67.5 64 87.5 105s30 87.167 30 138.5c0 113.333 -40.333 189.833 -121 229.5
s-205.5 76 -374.5 109s-296.667 77.667 -383 134s-129.5 155.5 -129.5 297.5c0 70 12.667 132.5 38 187.5s62.666 101.833 111.999 140.5s108.666 68.167 177.999 88.5s148.666 30.5 237.999 30.5c118 0 217.333 -17.5 298 -52.5s143.5 -88 188.5 -159
s72.5 -160.167 82.5 -267.5h-160c-4 118 -42.5 204.833 -115.5 260.5s-170.833 83.5 -293.5 83.5c-66 0 -123.667 -7.16699 -173 -21.5s-91.166 -35.333 -125.499 -63s-60.166 -61 -77.499 -100s-26 -84.167 -26 -135.5s12.833 -95.5 38.5 -132.5
s62.167 -65.167 109.5 -84.5c53.333 -18.667 141.5 -40.5 264.5 -65.5s224.167 -51.167 303.5 -78.5s146.5 -71.166 201.5 -131.499s82.5 -143.166 82.5 -248.499c0 -107.333 -28.667 -198 -86 -272s-132.166 -129.167 -224.499 -165.5s-189.833 -54.5 -292.5 -54.5
c-62.667 0 -122.167 6.83301 -178.5 20.5s-108.666 33.667 -156.999 60s-89.666 57.833 -123.999 94.5s-62.666 78 -84.999 124s-37 86 -44 120s-11.5 85.667 -13.5 155z" />
    <glyph glyph-name="Omega" unicode="&#x405;" horiz-adv-x="1532" 
d="M98 541l159.996 -0.00195312c5.33301 -93.333 25.5 -172.5 60.5 -237.5s84.833 -114.167 149.5 -147.5s143.667 -50 237 -50c68.667 0 130.334 7.5 185.001 22.5s101.167 37 139.5 66s67.5 64 87.5 105s30 87.167 30 138.5c0 113.333 -40.333 189.833 -121 229.5
s-205.5 76 -374.5 109s-296.667 77.667 -383 134s-129.5 155.5 -129.5 297.5c0 70 12.667 132.5 38 187.5s62.666 101.833 111.999 140.5s108.666 68.167 177.999 88.5s148.666 30.5 237.999 30.5c118 0 217.333 -17.5 298 -52.5s143.5 -88 188.5 -159
s72.5 -160.167 82.5 -267.5h-160c-4 118 -42.5 204.833 -115.5 260.5s-170.833 83.5 -293.5 83.5c-66 0 -123.667 -7.16699 -173 -21.5s-91.166 -35.333 -125.499 -63s-60.166 -61 -77.499 -100s-26 -84.167 -26 -135.5s12.833 -95.5 38.5 -132.5
s62.167 -65.167 109.5 -84.5c53.333 -18.667 141.5 -40.5 264.5 -65.5s224.167 -51.167 303.5 -78.5s146.5 -71.166 201.5 -131.499s82.5 -143.166 82.5 -248.499c0 -107.333 -28.667 -198 -86 -272s-132.166 -129.167 -224.499 -165.5s-189.833 -54.5 -292.5 -54.5
c-62.667 0 -122.167 6.83301 -178.5 20.5s-108.666 33.667 -156.999 60s-89.666 57.833 -123.999 94.5s-62.666 78 -84.999 124s-37 86 -44 120s-11.5 85.667 -13.5 155z" />
    <glyph glyph-name="ae" unicode="&#xbe;" horiz-adv-x="1171" 
d="M242 369c16 -180.667 127.998 -271.001 335.998 -271.001c88 0 159 19.833 213 59.5s81 93.5 81 161.5c0 71.333 -28.167 119.666 -84.5 144.999s-147.5 51.5 -273.5 78.5s-221.333 61.667 -286 104s-97 112.166 -97 209.499c0 112.667 37.833 198.167 113.5 256.5
s183.834 87.5 324.501 87.5c78.667 0 149 -13.833 211 -41.5s111.5 -69.167 148.5 -124.5s57.833 -121.333 62.5 -198h-139c-16 86 -46.5 146.333 -91.5 181s-116.833 52 -215.5 52c-56.667 0 -104.834 -7.66699 -144.501 -23s-69.834 -37.166 -90.501 -65.499
s-31 -62.833 -31 -103.5c0 -68 26.833 -114.333 80.5 -139s144.334 -51.5 272.001 -80.5s223.667 -65.167 288 -108.5s96.5 -114.333 96.5 -213c0 -55.333 -10.167 -105.666 -30.5 -150.999s-50.5 -84.333 -90.5 -117s-87.833 -57.667 -143.5 -75s-117.834 -26 -186.501 -26
c-65.333 0 -126.666 8.5 -183.999 25.5s-107.166 42 -149.499 75s-75.166 74.833 -98.499 125.5s-35 109.334 -35 176.001h144z" />
    <glyph glyph-name="ae" unicode="&#x455;" horiz-adv-x="1171" 
d="M242 369c16 -180.667 127.998 -271.001 335.998 -271.001c88 0 159 19.833 213 59.5s81 93.5 81 161.5c0 71.333 -28.167 119.666 -84.5 144.999s-147.5 51.5 -273.5 78.5s-221.333 61.667 -286 104s-97 112.166 -97 209.499c0 112.667 37.833 198.167 113.5 256.5
s183.834 87.5 324.501 87.5c78.667 0 149 -13.833 211 -41.5s111.5 -69.167 148.5 -124.5s57.833 -121.333 62.5 -198h-139c-16 86 -46.5 146.333 -91.5 181s-116.833 52 -215.5 52c-56.667 0 -104.834 -7.66699 -144.501 -23s-69.834 -37.166 -90.501 -65.499
s-31 -62.833 -31 -103.5c0 -68 26.833 -114.333 80.5 -139s144.334 -51.5 272.001 -80.5s223.667 -65.167 288 -108.5s96.5 -114.333 96.5 -213c0 -55.333 -10.167 -105.666 -30.5 -150.999s-50.5 -84.333 -90.5 -117s-87.833 -57.667 -143.5 -75s-117.834 -26 -186.501 -26
c-65.333 0 -126.666 8.5 -183.999 25.5s-107.166 42 -149.499 75s-75.166 74.833 -98.499 125.5s-35 109.334 -35 176.001h144z" />
    <glyph glyph-name="oslash" unicode="&#xbf;" horiz-adv-x="639" 
d="M360 1425v201h148v-201h-148zM82 1425v201h147v-201h-147zM213 0v1167h147v-1167h-147z" />
    <glyph glyph-name="oslash" unicode="&#x457;" horiz-adv-x="639" 
d="M360 1425v201h148v-201h-148zM82 1425v201h147v-201h-147zM213 0v1167h147v-1167h-147z" />
    <glyph glyph-name="questiondown" unicode="&#xc0;" horiz-adv-x="1556" 
d="M33 0l639 1626h168l635 -1626h-172l-193 516h-717l-188 -516h-172zM442 643h623l-311 827z" />
    <glyph glyph-name="questiondown" unicode="&#x410;" horiz-adv-x="1556" 
d="M33 0l639 1626h168l635 -1626h-172l-193 516h-717l-188 -516h-172zM442 643h623l-311 827z" />
    <glyph glyph-name="exclamdown" unicode="&#xc1;" horiz-adv-x="1606" 
d="M197 0l-0.000976562 1626h1011v-143h-848v-578h529c96 0 178.333 -12.5 247 -37.5s124.334 -59 167.001 -102s73.667 -91.5 93 -145.5s29 -110.333 29 -169c0 -69.333 -14 -135 -42 -197s-67 -112.667 -117 -152c-46 -36.667 -98.667 -62.834 -158 -78.501
s-138 -23.5 -236 -23.5h-675zM359.999 135.001l512 -0.000976562c139.333 0 240.5 25.333 303.5 76s94.5 133.334 94.5 248.001c0 112 -31.333 193.167 -94 243.5s-164 75.5 -304 75.5h-512v-643z" />
    <glyph glyph-name="exclamdown" unicode="&#x411;" horiz-adv-x="1606" 
d="M197 0l-0.000976562 1626h1011v-143h-848v-578h529c96 0 178.333 -12.5 247 -37.5s124.334 -59 167.001 -102s73.667 -91.5 93 -145.5s29 -110.333 29 -169c0 -69.333 -14 -135 -42 -197s-67 -112.667 -117 -152c-46 -36.667 -98.667 -62.834 -158 -78.501
s-138 -23.5 -236 -23.5h-675zM359.999 135.001l512 -0.000976562c139.333 0 240.5 25.333 303.5 76s94.5 133.334 94.5 248.001c0 112 -31.333 193.167 -94 243.5s-164 75.5 -304 75.5h-512v-643z" />
    <glyph glyph-name="logicalnot" unicode="&#xc2;" horiz-adv-x="1606" 
d="M197 0v1626h651c156.667 0 279.167 -31.167 367.5 -93.5s132.5 -170.5 132.5 -324.5c0 -155.333 -76.667 -271.333 -230 -348c109.333 -31.333 187.833 -78.833 235.5 -142.5s71.5 -152.5 71.5 -266.5c0 -69.333 -14 -135 -42 -197s-67 -112.667 -117 -152
c-46 -36.667 -98.667 -62.834 -158 -78.501s-138 -23.5 -236 -23.5h-675zM360 135.001l512 -0.000976562c139.333 0 240.5 25.333 303.5 76s94.5 133.334 94.5 248.001c0 112 -31.333 193.167 -94 243.5s-164 75.5 -304 75.5h-512v-643zM360 905l467.001 0.000976562
c74.667 0 139.167 8.83301 193.5 26.5s97.166 49.167 128.499 94.5s47 106 47 182c0 77.333 -16.667 136.166 -50 176.499s-76.5 66.833 -129.5 79.5s-118.833 19 -197.5 19h-459v-578z" />
    <glyph glyph-name="logicalnot" unicode="&#x412;" horiz-adv-x="1606" 
d="M197 0v1626h651c156.667 0 279.167 -31.167 367.5 -93.5s132.5 -170.5 132.5 -324.5c0 -155.333 -76.667 -271.333 -230 -348c109.333 -31.333 187.833 -78.833 235.5 -142.5s71.5 -152.5 71.5 -266.5c0 -69.333 -14 -135 -42 -197s-67 -112.667 -117 -152
c-46 -36.667 -98.667 -62.834 -158 -78.501s-138 -23.5 -236 -23.5h-675zM360 135.001l512 -0.000976562c139.333 0 240.5 25.333 303.5 76s94.5 133.334 94.5 248.001c0 112 -31.333 193.167 -94 243.5s-164 75.5 -304 75.5h-512v-643zM360 905l467.001 0.000976562
c74.667 0 139.167 8.83301 193.5 26.5s97.166 49.167 128.499 94.5s47 106 47 182c0 77.333 -16.667 136.166 -50 176.499s-76.5 66.833 -129.5 79.5s-118.833 19 -197.5 19h-459v-578z" />
    <glyph glyph-name="radical" unicode="&#xc3;" horiz-adv-x="1274" 
d="M197 0v1626h933v-143h-770v-1483h-163z" />
    <glyph glyph-name="radical" unicode="&#x413;" horiz-adv-x="1274" 
d="M197 0v1626h933v-143h-770v-1483h-163z" />
    <glyph glyph-name="florin" unicode="&#xc4;" horiz-adv-x="1786" 
d="M303 135v1073c0 154 44.167 262.167 132.5 324.5s210.833 93.5 367.5 93.5h651v-1491h213v-135h-1597v135h233zM451 135l839 -0.000976562v1348h-459c-79.333 0 -145.833 -6.33301 -199.5 -19s-97.167 -39.167 -130.5 -79.5s-50 -99.166 -50 -176.499v-1073z" />
    <glyph glyph-name="florin" unicode="&#x414;" horiz-adv-x="1786" 
d="M303 135v1073c0 154 44.167 262.167 132.5 324.5s210.833 93.5 367.5 93.5h651v-1491h213v-135h-1597v135h233zM451 135l839 -0.000976562v1348h-459c-79.333 0 -145.833 -6.33301 -199.5 -19s-97.167 -39.167 -130.5 -79.5s-50 -99.166 -50 -176.499v-1073z" />
    <glyph glyph-name="approxequal" unicode="&#xc5;" horiz-adv-x="1454" 
d="M197 0v1626h1089v-143h-926v-582h852v-131h-852v-635h947v-135h-1110z" />
    <glyph glyph-name="approxequal" unicode="&#x415;" horiz-adv-x="1454" 
d="M197 0v1626h1089v-143h-926v-582h852v-131h-852v-635h947v-135h-1110z" />
    <glyph glyph-name="Delta" unicode="&#xc6;" horiz-adv-x="2597" 
d="M1176 0v594l-271 254l-643 -848h-192l729 950l-721 676h217l881 -844v844h163v-844l881 844h217l-721 -676l729 -950h-192l-643 848l-271 -254v-594h-163z" />
    <glyph glyph-name="Delta" unicode="&#x416;" horiz-adv-x="2597" 
d="M1176 0v594l-271 254l-643 -848h-192l729 950l-721 676h217l881 -844v844h163v-844l881 844h217l-721 -676l729 -950h-192l-643 848l-271 -254v-594h-163z" />
    <glyph glyph-name="guillemotleft" unicode="&#xc7;" horiz-adv-x="1454" 
d="M705 -29c-99.333 0 -186.667 17.501 -262 52.501s-137 79.5 -185 133.5s-83.167 108 -105.5 162s-33.5 100.667 -33.5 140h155c0 -60 19.667 -118.167 59 -174.5s92.166 -101.5 158.499 -135.5s137.5 -51 213.5 -51c120 0 219.5 32.333 298.5 97s118.5 152.667 118.5 264
c0 74.667 -13.5 135.5 -40.5 182.5s-69.5 81.5 -127.5 103.5s-134.333 33 -229 33h-139v127h135c61.333 0 117 10 167 30s90 52.5 120 97.5s45 103.5 45 175.5c0 70 -15.667 125.667 -47 167s-74 70.333 -128 87s-118.667 25 -194 25c-62 0 -117.5 -9.33301 -166.5 -28
s-89 -48.834 -120 -90.501s-51.5 -95.167 -61.5 -160.5h-139c6.66699 68.667 23 128.834 49 180.501s61 95.5 105 131.5s94.833 62.667 152.5 80s121.834 26 192.501 26c95.333 0 181.5 -14.833 258.5 -44.5s137.167 -75.667 180.5 -138s65 -140.833 65 -235.5
c0 -52 -8.16699 -99.5 -24.5 -142.5s-40.833 -81.333 -73.5 -115s-75 -63.834 -127 -90.501c107.333 -31.333 184.666 -78.833 231.999 -142.5s71 -152.5 71 -266.5c0 -54.667 -19.667 -120 -59 -196s-102.166 -142.333 -188.499 -199s-194.833 -85 -325.5 -85z" />
    <glyph glyph-name="guillemotleft" unicode="&#x417;" horiz-adv-x="1454" 
d="M705 -29c-99.333 0 -186.667 17.501 -262 52.501s-137 79.5 -185 133.5s-83.167 108 -105.5 162s-33.5 100.667 -33.5 140h155c0 -60 19.667 -118.167 59 -174.5s92.166 -101.5 158.499 -135.5s137.5 -51 213.5 -51c120 0 219.5 32.333 298.5 97s118.5 152.667 118.5 264
c0 74.667 -13.5 135.5 -40.5 182.5s-69.5 81.5 -127.5 103.5s-134.333 33 -229 33h-139v127h135c61.333 0 117 10 167 30s90 52.5 120 97.5s45 103.5 45 175.5c0 70 -15.667 125.667 -47 167s-74 70.333 -128 87s-118.667 25 -194 25c-62 0 -117.5 -9.33301 -166.5 -28
s-89 -48.834 -120 -90.501s-51.5 -95.167 -61.5 -160.5h-139c6.66699 68.667 23 128.834 49 180.501s61 95.5 105 131.5s94.833 62.667 152.5 80s121.834 26 192.501 26c95.333 0 181.5 -14.833 258.5 -44.5s137.167 -75.667 180.5 -138s65 -140.833 65 -235.5
c0 -52 -8.16699 -99.5 -24.5 -142.5s-40.833 -81.333 -73.5 -115s-75 -63.834 -127 -90.501c107.333 -31.333 184.666 -78.833 231.999 -142.5s71 -152.5 71 -266.5c0 -54.667 -19.667 -120 -59 -196s-102.166 -142.333 -188.499 -199s-194.833 -85 -325.5 -85z" />
    <glyph glyph-name="guillemotright" unicode="&#xc8;" horiz-adv-x="1581" 
d="M1430 0h-144v1393l-921 -1393h-160v1626h139v-1393l922 1393h164v-1626z" />
    <glyph glyph-name="guillemotright" unicode="&#x418;" horiz-adv-x="1581" 
d="M1430 0h-144v1393l-921 -1393h-160v1626h139v-1393l922 1393h164v-1626z" />
    <glyph glyph-name="ellipsis" unicode="&#xc9;" horiz-adv-x="1581" 
d="M1430 0h-144v1393l-921 -1393h-160v1626h139v-1393l922 1393h164v-1626zM799 1675c-77.333 0 -145.166 20.167 -203.499 60.5s-87.5 93.833 -87.5 160.5h139c0 -26.667 15.667 -50.5 47 -71.5s66.333 -32.5 105 -34.5c38.667 2 74.167 13.333 106.5 34
s48.5 44.667 48.5 72h140c0 -43.333 -14.167 -82 -42.5 -116s-65.333 -60 -111 -78s-92.834 -27 -141.501 -27z" />
    <glyph glyph-name="ellipsis" unicode="&#x419;" horiz-adv-x="1581" 
d="M1430 0h-144v1393l-921 -1393h-160v1626h139v-1393l922 1393h164v-1626zM799 1675c-77.333 0 -145.166 20.167 -203.499 60.5s-87.5 93.833 -87.5 160.5h139c0 -26.667 15.667 -50.5 47 -71.5s66.333 -32.5 105 -34.5c38.667 2 74.167 13.333 106.5 34
s48.5 44.667 48.5 72h140c0 -43.333 -14.167 -82 -42.5 -116s-65.333 -60 -111 -78s-92.834 -27 -141.501 -27z" />
    <glyph glyph-name="yen" unicode="&#xca;" horiz-adv-x="1606" 
d="M197 0v1626h159v-844l881 844h217l-721 -676l729 -950h-192l-643 848l-271 -254v-594h-159z" />
    <glyph glyph-name="yen" unicode="&#x41a;" horiz-adv-x="1606" 
d="M197 0v1626h159v-844l881 844h217l-721 -676l729 -950h-192l-643 848l-271 -254v-594h-159z" />
    <glyph glyph-name="Agrave" unicode="&#xcb;" horiz-adv-x="1606" 
d="M197 0v1208c0 154 44 262.167 132 324.5s210.333 93.5 367 93.5h713v-1626h-164v1483h-520c-58 0 -108.333 -3.33301 -151 -10s-80.167 -19.667 -112.5 -39s-58 -47.833 -77 -85.5s-28.5 -87.167 -28.5 -148.5v-1200h-159z" />
    <glyph glyph-name="Agrave" unicode="&#x41b;" horiz-adv-x="1606" 
d="M197 0v1208c0 154 44 262.167 132 324.5s210.333 93.5 367 93.5h713v-1626h-164v1483h-520c-58 0 -108.333 -3.33301 -151 -10s-80.167 -19.667 -112.5 -39s-58 -47.833 -77 -85.5s-28.5 -87.167 -28.5 -148.5v-1200h-159z" />
    <glyph glyph-name="Atilde" unicode="&#xcc;" horiz-adv-x="1888" 
d="M197 0v1626h196l565 -1438l553 1438h197v-1626h-147v1364l-525 -1364h-155l-545 1364v-1364h-139z" />
    <glyph glyph-name="Atilde" unicode="&#x41c;" horiz-adv-x="1888" 
d="M197 0v1626h196l565 -1438l553 1438h197v-1626h-147v1364l-525 -1364h-155l-545 1364v-1364h-139z" />
    <glyph glyph-name="Otilde" unicode="&#xcd;" horiz-adv-x="1606" 
d="M197 0v1626h159v-700h889v700h164v-1626h-164v795h-889v-795h-159z" />
    <glyph glyph-name="Otilde" unicode="&#x41d;" horiz-adv-x="1606" 
d="M197 0v1626h159v-700h889v700h164v-1626h-164v795h-889v-795h-159z" />
    <glyph glyph-name="OE" unicode="&#xce;" horiz-adv-x="1786" 
d="M127 799c0 160.667 28.166 305.832 84.499 435.499s140.833 232.167 253.5 307.5s250 113 412 113c122.667 0 231.5 -22 326.5 -66s173.333 -104.333 235 -181s108.334 -167 140.001 -271s47.5 -216.667 47.5 -338c0 -125.333 -17.167 -239.666 -51.5 -342.999
s-84.5 -191.5 -150.5 -264.5s-144.833 -128.667 -236.5 -167s-195.167 -57.5 -310.5 -57.5c-114.667 0 -218 19.333 -310 58s-171 94.667 -237 168s-116.333 161 -151 263s-52 216.333 -52 343zM290.999 798.998c0 -139.333 23.6641 -261.5 70.9971 -366.5
s115 -185.667 203 -242s192 -84.5 312 -84.5c88.667 0 169.334 16 242.001 48s134.834 78.5 186.501 139.5s90.667 134 117 219s39.5 180.5 39.5 286.5c0 114.667 -13.333 216.5 -40 305.5s-65 164.333 -115 226s-111.333 108.667 -184 141s-154.667 48.5 -246 48.5
s-173.666 -16.333 -246.999 -49s-135 -80.167 -185 -142.5s-88.167 -138.333 -114.5 -228s-39.5 -190.167 -39.5 -301.5z" />
    <glyph glyph-name="OE" unicode="&#x41e;" horiz-adv-x="1786" 
d="M127 799c0 160.667 28.166 305.832 84.499 435.499s140.833 232.167 253.5 307.5s250 113 412 113c122.667 0 231.5 -22 326.5 -66s173.333 -104.333 235 -181s108.334 -167 140.001 -271s47.5 -216.667 47.5 -338c0 -125.333 -17.167 -239.666 -51.5 -342.999
s-84.5 -191.5 -150.5 -264.5s-144.833 -128.667 -236.5 -167s-195.167 -57.5 -310.5 -57.5c-114.667 0 -218 19.333 -310 58s-171 94.667 -237 168s-116.333 161 -151 263s-52 216.333 -52 343zM290.999 798.998c0 -139.333 23.6641 -261.5 70.9971 -366.5
s115 -185.667 203 -242s192 -84.5 312 -84.5c88.667 0 169.334 16 242.001 48s134.834 78.5 186.501 139.5s90.667 134 117 219s39.5 180.5 39.5 286.5c0 114.667 -13.333 216.5 -40 305.5s-65 164.333 -115 226s-111.333 108.667 -184 141s-154.667 48.5 -246 48.5
s-173.666 -16.333 -246.999 -49s-135 -80.167 -185 -142.5s-88.167 -138.333 -114.5 -228s-39.5 -190.167 -39.5 -301.5z" />
    <glyph glyph-name="oe" unicode="&#xcf;" horiz-adv-x="1606" 
d="M197 0v1626h1212v-1626h-164v1483h-889v-1483h-159z" />
    <glyph glyph-name="oe" unicode="&#x41f;" horiz-adv-x="1606" 
d="M197 0v1626h1212v-1626h-164v1483h-889v-1483h-159z" />
    <glyph glyph-name="emdash" unicode="&#xd0;" horiz-adv-x="1503" 
d="M197 0l-0.00195312 1626h630c78.667 0 148.834 -8.16699 210.501 -24.5s114.334 -42.666 158.001 -78.999s77.167 -84.333 100.5 -144s35 -131.5 35 -215.5c0 -113.333 -24 -203.5 -72 -270.5s-113.333 -114.333 -196 -142s-179 -41.5 -289 -41.5h-418v-709h-159z
M355.998 851.999l364.998 0.00195312c96 0 174.5 6.33301 235.5 19s111.333 41.667 151 87s59.5 113.666 59.5 204.999c0 80 -12.167 143.167 -36.5 189.5s-64.166 79.666 -119.499 99.999s-131.666 30.5 -228.999 30.5h-426v-631z" />
    <glyph glyph-name="emdash" unicode="&#x420;" horiz-adv-x="1503" 
d="M197 0l-0.00195312 1626h630c78.667 0 148.834 -8.16699 210.501 -24.5s114.334 -42.666 158.001 -78.999s77.167 -84.333 100.5 -144s35 -131.5 35 -215.5c0 -113.333 -24 -203.5 -72 -270.5s-113.333 -114.333 -196 -142s-179 -41.5 -289 -41.5h-418v-709h-159z
M355.998 851.999l364.998 0.00195312c96 0 174.5 6.33301 235.5 19s111.333 41.667 151 87s59.5 113.666 59.5 204.999c0 80 -12.167 143.167 -36.5 189.5s-64.166 79.666 -119.499 99.999s-131.666 30.5 -228.999 30.5h-426v-631z" />
    <glyph glyph-name="endash" unicode="&#xd1;" horiz-adv-x="1683" 
d="M1532 578c-14 -97.333 -39.6709 -184.006 -77.0039 -260.006s-85.333 -140 -144 -192s-127.167 -91.5 -205.5 -118.5s-164.166 -40.5 -257.499 -40.5c-109.333 0 -208.5 19.833 -297.5 59.5s-165.167 96.834 -228.5 171.501s-111.666 165.167 -144.999 271.5
s-50 224.166 -50 353.499c0 126.667 17.167 241.334 51.5 344.001s83.833 190.334 148.5 263.001s142.167 128.334 232.5 167.001s191.833 58 304.5 58c174 0 314.5 -40.667 421.5 -122s180.833 -204.666 221.5 -369.999h-159
c-25.333 80.667 -59.666 147.334 -102.999 200.001s-97 92 -161 118s-138.667 39 -224 39c-115.333 0 -215.833 -28.833 -301.5 -86.5s-151.667 -139.667 -198 -246s-69.5 -231.833 -69.5 -376.5c0 -104 12.833 -199.5 38.5 -286.5s63.5 -162 113.5 -225
s109.333 -111 178 -144s144.334 -49.5 227.001 -49.5c68.667 0 133.667 11 195 33s115.333 54.167 162 96.5s84.667 92.333 114 150s48.333 121.834 57 192.501h156z" />
    <glyph glyph-name="endash" unicode="&#x421;" horiz-adv-x="1683" 
d="M1532 578c-14 -97.333 -39.6709 -184.006 -77.0039 -260.006s-85.333 -140 -144 -192s-127.167 -91.5 -205.5 -118.5s-164.166 -40.5 -257.499 -40.5c-109.333 0 -208.5 19.833 -297.5 59.5s-165.167 96.834 -228.5 171.501s-111.666 165.167 -144.999 271.5
s-50 224.166 -50 353.499c0 126.667 17.167 241.334 51.5 344.001s83.833 190.334 148.5 263.001s142.167 128.334 232.5 167.001s191.833 58 304.5 58c174 0 314.5 -40.667 421.5 -122s180.833 -204.666 221.5 -369.999h-159
c-25.333 80.667 -59.666 147.334 -102.999 200.001s-97 92 -161 118s-138.667 39 -224 39c-115.333 0 -215.833 -28.833 -301.5 -86.5s-151.667 -139.667 -198 -246s-69.5 -231.833 -69.5 -376.5c0 -104 12.833 -199.5 38.5 -286.5s63.5 -162 113.5 -225
s109.333 -111 178 -144s144.334 -49.5 227.001 -49.5c68.667 0 133.667 11 195 33s115.333 54.167 162 96.5s84.667 92.333 114 150s48.333 121.834 57 192.501h156z" />
    <glyph glyph-name="quotedblleft" unicode="&#xd2;" horiz-adv-x="1401" 
d="M569 0v1483h-524v143h1208v-143h-520v-1483h-164z" />
    <glyph glyph-name="quotedblleft" unicode="&#x422;" horiz-adv-x="1401" 
d="M569 0v1483h-524v143h1208v-143h-520v-1483h-164z" />
    <glyph glyph-name="quotedblright" unicode="&#xd3;" horiz-adv-x="1401" 
d="M1262 1626l-840 -1626h-180l336 623l-545 1003h196l439 -864l401 864h193z" />
    <glyph glyph-name="quotedblright" unicode="&#x423;" horiz-adv-x="1401" 
d="M1262 1626l-840 -1626h-180l336 623l-545 1003h196l439 -864l401 864h193z" />
    <glyph glyph-name="quoteleft" unicode="&#xd4;" horiz-adv-x="2195" 
d="M987 1786l164.006 -0.00195312v-131h115c105.333 0 204.166 -22.167 296.499 -66.5s172.166 -105.5 239.499 -183.5s119.666 -169.167 156.999 -273.5s56 -215.166 56 -332.499c0 -124 -20.833 -236.833 -62.5 -338.5s-98.334 -189.167 -170.001 -262.5
s-152.667 -129.5 -243 -168.5s-182.833 -58.5 -277.5 -58.5h-111v-98h-164v98h-106c-96 0 -188.833 19.333 -278.5 58s-170.834 95 -243.501 169s-129.5 161.833 -170.5 263.5s-61.5 214.167 -61.5 337.5c0 154 32.167 296.833 96.5 428.5s153.666 235.834 267.999 312.501
s242.833 115 385.5 115h110v131zM1266.01 1520l-114.999 0.00292969v-1414h115c96 0 188.667 28.667 278 86s162.166 139.166 218.499 245.499s84.5 226.833 84.5 361.5c0 143.333 -27.667 270.166 -83 380.499s-127.833 194.666 -217.5 252.999s-183.167 87.5 -280.5 87.5z
M877.007 1520c-72 0 -143.001 -16.332 -213.001 -48.999s-133.167 -80.5 -189.5 -143.5s-101 -139.833 -134 -230.5s-49.5 -190 -49.5 -298c0 -135.333 28.333 -255.833 85 -361.5s130.334 -187.334 221.001 -245.001s184 -86.5 280 -86.5h110v1414h-110z" />
    <glyph glyph-name="quoteleft" unicode="&#x424;" horiz-adv-x="2195" 
d="M987 1786l164.006 -0.00195312v-131h115c105.333 0 204.166 -22.167 296.499 -66.5s172.166 -105.5 239.499 -183.5s119.666 -169.167 156.999 -273.5s56 -215.166 56 -332.499c0 -124 -20.833 -236.833 -62.5 -338.5s-98.334 -189.167 -170.001 -262.5
s-152.667 -129.5 -243 -168.5s-182.833 -58.5 -277.5 -58.5h-111v-98h-164v98h-106c-96 0 -188.833 19.333 -278.5 58s-170.834 95 -243.501 169s-129.5 161.833 -170.5 263.5s-61.5 214.167 -61.5 337.5c0 154 32.167 296.833 96.5 428.5s153.666 235.834 267.999 312.501
s242.833 115 385.5 115h110v131zM1266.01 1520l-114.999 0.00292969v-1414h115c96 0 188.667 28.667 278 86s162.166 139.166 218.499 245.499s84.5 226.833 84.5 361.5c0 143.333 -27.667 270.166 -83 380.499s-127.833 194.666 -217.5 252.999s-183.167 87.5 -280.5 87.5z
M877.007 1520c-72 0 -143.001 -16.332 -213.001 -48.999s-133.167 -80.5 -189.5 -143.5s-101 -139.833 -134 -230.5s-49.5 -190 -49.5 -298c0 -135.333 28.333 -255.833 85 -361.5s130.334 -187.334 221.001 -245.001s184 -86.5 280 -86.5h110v1414h-110z" />
    <glyph glyph-name="quoteright" unicode="&#xd5;" horiz-adv-x="1503" 
d="M25 0l553 819l-545 807h196l443 -672l446 672h180l-540 -807l557 -819h-197l-446 680l-459 -680h-188z" />
    <glyph glyph-name="quoteright" unicode="&#x425;" horiz-adv-x="1503" 
d="M25 0l553 819l-545 807h196l443 -672l446 672h180l-540 -807l557 -819h-197l-446 680l-459 -680h-188z" />
    <glyph glyph-name="divide" unicode="&#xd6;" horiz-adv-x="1835" 
d="M1409 135h258v-135h-1470v1626h159v-1491h889v1491h164v-1491z" />
    <glyph glyph-name="divide" unicode="&#x426;" horiz-adv-x="1835" 
d="M1409 135h258v-135h-1470v1626h159v-1491h889v1491h164v-1491z" />
    <glyph glyph-name="lozenge" unicode="&#xd7;" horiz-adv-x="1606" 
d="M197 1200v425.999h159v-418c0 -100 24.167 -172 72.5 -216s110.166 -66 185.499 -66h631v700h164v-1626h-164v795h-655c-69.333 0 -134.166 17 -194.499 51s-108.5 81.833 -144.5 143.5s-54 131.834 -54 210.501z" />
    <glyph glyph-name="lozenge" unicode="&#x427;" horiz-adv-x="1606" 
d="M197 1200v425.999h159v-418c0 -100 24.167 -172 72.5 -216s110.166 -66 185.499 -66h631v700h164v-1626h-164v795h-655c-69.333 0 -134.166 17 -194.499 51s-108.5 81.833 -144.5 143.5s-54 131.834 -54 210.501z" />
    <glyph glyph-name="ydieresis" unicode="&#xd8;" horiz-adv-x="2265" 
d="M1217 135h700v1491h164v-1626h-1884v1626h159v-1491h701v1491h160v-1491z" />
    <glyph glyph-name="ydieresis" unicode="&#x428;" horiz-adv-x="2265" 
d="M1217 135h700v1491h164v-1626h-1884v1626h159v-1491h701v1491h160v-1491z" />
    <glyph glyph-name="Ydieresis" unicode="&#xd9;" horiz-adv-x="2523" 
d="M1217 135h700v1491h164v-1491h262v-135h-2146v1626h159v-1491h701v1491h160v-1491z" />
    <glyph glyph-name="Ydieresis" unicode="&#x429;" horiz-adv-x="2523" 
d="M1217 135h700v1491h164v-1491h262v-135h-2146v1626h159v-1491h701v1491h160v-1491z" />
    <glyph glyph-name="fraction" unicode="&#xda;" horiz-adv-x="1991" 
d="M733 1626v-720.999h533c95.333 0 177.166 -12.5 245.499 -37.5s123.5 -59 165.5 -102s72.667 -91.5 92 -145.5s29 -110.333 29 -169c0 -69.333 -14.167 -135 -42.5 -197s-67.5 -112.667 -117.5 -152c-44 -36.667 -95.667 -62.834 -155 -78.501
s-138.666 -23.5 -237.999 -23.5h-676v1483h-524v143h688zM733 135.001l512 0.000976562c140.667 0 242 25.167 304 75.5s93 133.166 93 248.499c0 74.667 -13.5 135.5 -40.5 182.5s-69.5 81.5 -127.5 103.5s-134.333 33 -229 33h-512v-643z" />
    <glyph glyph-name="fraction" unicode="&#x42a;" horiz-adv-x="1991" 
d="M733 1626v-720.999h533c95.333 0 177.166 -12.5 245.499 -37.5s123.5 -59 165.5 -102s72.667 -91.5 92 -145.5s29 -110.333 29 -169c0 -69.333 -14.167 -135 -42.5 -197s-67.5 -112.667 -117.5 -152c-44 -36.667 -95.667 -62.834 -155 -78.501
s-138.666 -23.5 -237.999 -23.5h-676v1483h-524v143h688zM733 135.001l512 0.000976562c140.667 0 242 25.167 304 75.5s93 133.166 93 248.499c0 74.667 -13.5 135.5 -40.5 182.5s-69.5 81.5 -127.5 103.5s-134.333 33 -229 33h-512v-643z" />
    <glyph glyph-name="currency" unicode="&#xdb;" horiz-adv-x="2015" 
d="M197 0l-0.000976562 1626h163v-721h529c96 0 178.333 -12.5 247 -37.5s124.334 -59 167.001 -102s73.667 -91.5 93 -145.5s29 -110.333 29 -169c0 -69.333 -14 -135 -42 -197s-67 -112.667 -117 -152c-46 -36.667 -98.667 -62.834 -158 -78.501s-138 -23.5 -236 -23.5
h-675zM1819 0.000976562h-164v1626h164v-1626zM359.999 135.001l512 -0.000976562c139.333 0 240.5 25.333 303.5 76s94.5 133.334 94.5 248.001c0 112 -31.333 193.167 -94 243.5s-164 75.5 -304 75.5h-512v-643z" />
    <glyph glyph-name="currency" unicode="&#x42b;" horiz-adv-x="2015" 
d="M197 0l-0.000976562 1626h163v-721h529c96 0 178.333 -12.5 247 -37.5s124.334 -59 167.001 -102s73.667 -91.5 93 -145.5s29 -110.333 29 -169c0 -69.333 -14 -135 -42 -197s-67 -112.667 -117 -152c-46 -36.667 -98.667 -62.834 -158 -78.501s-138 -23.5 -236 -23.5
h-675zM1819 0.000976562h-164v1626h164v-1626zM359.999 135.001l512 -0.000976562c139.333 0 240.5 25.333 303.5 76s94.5 133.334 94.5 248.001c0 112 -31.333 193.167 -94 243.5s-164 75.5 -304 75.5h-512v-643z" />
    <glyph glyph-name="guilsinglleft" unicode="&#xdc;" horiz-adv-x="1606" 
d="M197 0l-0.000976562 1626h163v-721h529c96 0 178.333 -12.5 247 -37.5s124.334 -59 167.001 -102s73.667 -91.5 93 -145.5s29 -110.333 29 -169c0 -69.333 -14 -135 -42 -197s-67 -112.667 -117 -152c-46 -36.667 -98.667 -62.834 -158 -78.501s-138 -23.5 -236 -23.5
h-675zM359.999 135.001l512 -0.000976562c139.333 0 240.5 25.333 303.5 76s94.5 133.334 94.5 248.001c0 112 -31.333 193.167 -94 243.5s-164 75.5 -304 75.5h-512v-643z" />
    <glyph glyph-name="guilsinglleft" unicode="&#x42c;" horiz-adv-x="1606" 
d="M197 0l-0.000976562 1626h163v-721h529c96 0 178.333 -12.5 247 -37.5s124.334 -59 167.001 -102s73.667 -91.5 93 -145.5s29 -110.333 29 -169c0 -69.333 -14 -135 -42 -197s-67 -112.667 -117 -152c-46 -36.667 -98.667 -62.834 -158 -78.501s-138 -23.5 -236 -23.5
h-675zM359.999 135.001l512 -0.000976562c139.333 0 240.5 25.333 303.5 76s94.5 133.334 94.5 248.001c0 112 -31.333 193.167 -94 243.5s-164 75.5 -304 75.5h-512v-643z" />
    <glyph glyph-name="guilsinglright" unicode="&#xdd;" horiz-adv-x="1733" 
d="M754 795l0.000976562 131.007h610c-8.66699 90.667 -27.834 172.5 -57.501 245.5s-68.834 135.667 -117.501 188s-105.667 92.166 -171 119.499s-137 41 -215 41c-127.333 0 -231.333 -29.833 -312 -89.5s-139.334 -148.834 -176.001 -267.501h-159
c40.667 165.333 114.5 288.666 221.5 369.999s247.5 122 421.5 122c112.667 0 214.167 -19.333 304.5 -58s167.833 -94.334 232.5 -167.001s114.167 -160.334 148.5 -263.001s51.5 -217.334 51.5 -344.001c0 -130 -16.5 -248.333 -49.5 -355s-80.5 -197 -142.5 -271
s-137.667 -130.833 -227 -170.5s-188.666 -59.5 -297.999 -59.5c-93.333 0 -179.5 13.333 -258.5 40s-148.333 66.5 -208 119.5s-107.667 117.167 -144 192.5s-62.166 161.666 -77.499 258.999h156c11.333 -73.333 31.833 -138.333 61.5 -195s67.667 -106 114 -148
s100.333 -74 162 -96s126.5 -33 194.5 -33c80.667 0 154.834 16.5 222.501 49.5s125.667 80 174 141s85.666 133.667 111.999 218s39.833 177.833 40.5 280.5h-614z" />
    <glyph glyph-name="guilsinglright" unicode="&#x42d;" horiz-adv-x="1733" 
d="M754 795l0.000976562 131.007h610c-8.66699 90.667 -27.834 172.5 -57.501 245.5s-68.834 135.667 -117.501 188s-105.667 92.166 -171 119.499s-137 41 -215 41c-127.333 0 -231.333 -29.833 -312 -89.5s-139.334 -148.834 -176.001 -267.501h-159
c40.667 165.333 114.5 288.666 221.5 369.999s247.5 122 421.5 122c112.667 0 214.167 -19.333 304.5 -58s167.833 -94.334 232.5 -167.001s114.167 -160.334 148.5 -263.001s51.5 -217.334 51.5 -344.001c0 -130 -16.5 -248.333 -49.5 -355s-80.5 -197 -142.5 -271
s-137.667 -130.833 -227 -170.5s-188.666 -59.5 -297.999 -59.5c-93.333 0 -179.5 13.333 -258.5 40s-148.333 66.5 -208 119.5s-107.667 117.167 -144 192.5s-62.166 161.666 -77.499 258.999h156c11.333 -73.333 31.833 -138.333 61.5 -195s67.667 -106 114 -148
s100.333 -74 162 -96s126.5 -33 194.5 -33c80.667 0 154.834 16.5 222.501 49.5s125.667 80 174 141s85.666 133.667 111.999 218s39.833 177.833 40.5 280.5h-614z" />
    <glyph glyph-name="fi" unicode="&#xde;" horiz-adv-x="2322" 
d="M627 795l-270.999 -0.00195312v-795h-159v1626h159v-700h283c0 92.667 17.333 182.834 52 270.501s85 166.167 151 235.5s144.5 123.833 235.5 163.5s191.833 59.5 302.5 59.5c124 0 233.667 -22 329 -66s173.666 -104.5 234.999 -181.5s107.666 -167.667 138.999 -272
s47 -216.5 47 -336.5c0 -125.333 -17.167 -239.666 -51.5 -342.999s-84.5 -191.5 -150.5 -264.5s-144.833 -128.667 -236.5 -167s-195.5 -57.5 -311.5 -57.5c-112.667 0 -215.5 19.5 -308.5 58.5s-172.667 95 -239 168s-117.166 160.5 -152.499 262.5s-53 215 -53 339z
M799.001 798.998c0 -104.667 13.167 -199.833 39.5 -285.5s65.166 -159.167 116.499 -220.5s113 -107.833 185 -139.5s152 -47.5 240 -47.5c119.333 0 223.5 28 312.5 84s157.5 136.5 205.5 241.5s72 227.5 72 367.5c0 114.667 -13.333 216.5 -40 305.5
s-65 164.333 -115 226s-112 108.667 -186 141s-157 48.5 -249 48.5c-121.333 0 -225.666 -28.333 -312.999 -85s-153.833 -139 -199.5 -247s-68.5 -237.667 -68.5 -389z" />
    <glyph glyph-name="fi" unicode="&#x42e;" horiz-adv-x="2322" 
d="M627 795l-270.999 -0.00195312v-795h-159v1626h159v-700h283c0 92.667 17.333 182.834 52 270.501s85 166.167 151 235.5s144.5 123.833 235.5 163.5s191.833 59.5 302.5 59.5c124 0 233.667 -22 329 -66s173.666 -104.5 234.999 -181.5s107.666 -167.667 138.999 -272
s47 -216.5 47 -336.5c0 -125.333 -17.167 -239.666 -51.5 -342.999s-84.5 -191.5 -150.5 -264.5s-144.833 -128.667 -236.5 -167s-195.5 -57.5 -311.5 -57.5c-112.667 0 -215.5 19.5 -308.5 58.5s-172.667 95 -239 168s-117.166 160.5 -152.499 262.5s-53 215 -53 339z
M799.001 798.998c0 -104.667 13.167 -199.833 39.5 -285.5s65.166 -159.167 116.499 -220.5s113 -107.833 185 -139.5s152 -47.5 240 -47.5c119.333 0 223.5 28 312.5 84s157.5 136.5 205.5 241.5s72 227.5 72 367.5c0 114.667 -13.333 216.5 -40 305.5
s-65 164.333 -115 226s-112 108.667 -186 141s-157 48.5 -249 48.5c-121.333 0 -225.666 -28.333 -312.999 -85s-153.833 -139 -199.5 -247s-68.5 -237.667 -68.5 -389z" />
    <glyph glyph-name="fl" unicode="&#xdf;" horiz-adv-x="1556" 
d="M1348 0l-160.002 0.00195312v729h-459c-86.667 0 -146.167 -2.5 -178.5 -7.5s-61.5 -17.5 -87.5 -37.5c-34.667 -24.667 -60.334 -63.334 -77.001 -116.001s-28.5 -115.167 -35.5 -187.5s-13.333 -144.166 -19 -215.499s-15.167 -126.333 -28.5 -165h-197
c25.333 25.333 43.5 48 54.5 68s18.833 46.167 23.5 78.5s10.334 94.166 17.001 185.499c2.66699 62 5.16699 114.5 7.5 157.5s8.5 82.167 18.5 117.5s29 69.5 57 102.5s65.667 62.833 113 89.5c-84 39.333 -146.667 90.5 -188 153.5s-62 141.5 -62 235.5
c0 110.667 23.333 198.667 70 264s109.834 110.666 189.501 135.999s174.834 38 285.501 38h656v-1626zM1188 864.002l0.000976562 619h-443c-74 0 -133.667 -2.33301 -179 -7s-87.833 -16.5 -127.5 -35.5s-70.834 -48.667 -93.501 -89s-34 -94.833 -34 -163.5
c0 -90 19 -158.833 57 -206.5s88.167 -79.167 150.5 -94.5s139.5 -23 231.5 -23h438z" />
    <glyph glyph-name="fl" unicode="&#x42f;" horiz-adv-x="1556" 
d="M1348 0l-160.002 0.00195312v729h-459c-86.667 0 -146.167 -2.5 -178.5 -7.5s-61.5 -17.5 -87.5 -37.5c-34.667 -24.667 -60.334 -63.334 -77.001 -116.001s-28.5 -115.167 -35.5 -187.5s-13.333 -144.166 -19 -215.499s-15.167 -126.333 -28.5 -165h-197
c25.333 25.333 43.5 48 54.5 68s18.833 46.167 23.5 78.5s10.334 94.166 17.001 185.499c2.66699 62 5.16699 114.5 7.5 157.5s8.5 82.167 18.5 117.5s29 69.5 57 102.5s65.667 62.833 113 89.5c-84 39.333 -146.667 90.5 -188 153.5s-62 141.5 -62 235.5
c0 110.667 23.333 198.667 70 264s109.834 110.666 189.501 135.999s174.834 38 285.501 38h656v-1626zM1188 864.002l0.000976562 619h-443c-74 0 -133.667 -2.33301 -179 -7s-87.833 -16.5 -127.5 -35.5s-70.834 -48.667 -93.501 -89s-34 -94.833 -34 -163.5
c0 -90 19 -158.833 57 -206.5s88.167 -79.167 150.5 -94.5s139.5 -23 231.5 -23h438z" />
    <glyph glyph-name="daggerdbl" unicode="&#xe0;" horiz-adv-x="1274" 
d="M1184 102l0.00195312 -102c-40.667 -16.667 -79 -25 -115 -25c-54.667 0 -94.667 14.167 -120 42.5s-40 77.166 -44 146.499c-42.667 -48 -85.167 -86.5 -127.5 -115.5s-87 -49.833 -134 -62.5s-100.5 -19 -160.5 -19c-80.667 0 -149.334 13.667 -206.001 41
s-99.334 67.333 -128.001 120s-43 115 -43 187c0 74.667 17 136 51 184s78.667 84.333 134 109s120.666 43.334 195.999 56.001l291 41c24 4 45.333 7.83301 64 11.5s30.334 7.16699 35.001 10.5s8.66699 9.33301 12 18c13.333 20.667 20 57.667 20 111
c0 76.667 -23.5 133.334 -70.5 170.001s-120.5 55 -220.5 55c-68.667 0 -124.667 -8.33301 -168 -25s-75.833 -43.334 -97.5 -80.001s-35.5 -87.667 -41.5 -153h-155c16 251.333 170 377 462 377c64 0 124.333 -7.66699 181 -23s103 -36.333 139 -63
c44.667 -30 75 -65.5 91 -106.5s24 -102.5 24 -184.5v-618c0 -44 4.5 -73.5 13.5 -88.5s27.5 -22.5 55.5 -22.5c19.333 0 40 2.66699 62 8zM905.002 606l-396.998 -61c-60.667 -10 -109.334 -24.5 -146.001 -43.5s-63.834 -43.833 -81.501 -74.5s-26.5 -68 -26.5 -112
c0 -72 21.667 -126.833 65 -164.5s106.333 -56.5 189 -56.5c102.667 0 191.334 28.667 266.001 86c35.333 26.667 62.166 53.667 80.499 81s31.333 60.5 39 99.5s11.5 89.5 11.5 151.5v94z" />
    <glyph glyph-name="daggerdbl" unicode="&#x430;" horiz-adv-x="1274" 
d="M1184 102l0.00195312 -102c-40.667 -16.667 -79 -25 -115 -25c-54.667 0 -94.667 14.167 -120 42.5s-40 77.166 -44 146.499c-42.667 -48 -85.167 -86.5 -127.5 -115.5s-87 -49.833 -134 -62.5s-100.5 -19 -160.5 -19c-80.667 0 -149.334 13.667 -206.001 41
s-99.334 67.333 -128.001 120s-43 115 -43 187c0 74.667 17 136 51 184s78.667 84.333 134 109s120.666 43.334 195.999 56.001l291 41c24 4 45.333 7.83301 64 11.5s30.334 7.16699 35.001 10.5s8.66699 9.33301 12 18c13.333 20.667 20 57.667 20 111
c0 76.667 -23.5 133.334 -70.5 170.001s-120.5 55 -220.5 55c-68.667 0 -124.667 -8.33301 -168 -25s-75.833 -43.334 -97.5 -80.001s-35.5 -87.667 -41.5 -153h-155c16 251.333 170 377 462 377c64 0 124.333 -7.66699 181 -23s103 -36.333 139 -63
c44.667 -30 75 -65.5 91 -106.5s24 -102.5 24 -184.5v-618c0 -44 4.5 -73.5 13.5 -88.5s27.5 -22.5 55.5 -22.5c19.333 0 40 2.66699 62 8zM905.002 606l-396.998 -61c-60.667 -10 -109.334 -24.5 -146.001 -43.5s-63.834 -43.833 -81.501 -74.5s-26.5 -68 -26.5 -112
c0 -72 21.667 -126.833 65 -164.5s106.333 -56.5 189 -56.5c102.667 0 191.334 28.667 266.001 86c35.333 26.667 62.166 53.667 80.499 81s31.333 60.5 39 99.5s11.5 89.5 11.5 151.5v94z" />
    <glyph glyph-name="periodcentered" unicode="&#xe1;" horiz-adv-x="1298" 
d="M106 639c0 135.333 10.832 256.327 32.499 362.994s54.334 197 98.001 271s98.167 130.167 163.5 168.5s141 57.5 227 57.5c172 0 258 32.667 258 98h127c0 -42 -12.833 -79.5 -38.5 -112.5s-66 -59.333 -121 -79s-126.167 -29.5 -213.5 -29.5
c-66.667 0 -124.834 -12.5 -174.501 -37.5s-89.667 -57.667 -120 -98s-53 -85 -68 -134s-22.5 -96.833 -22.5 -143.5c112 158 244.333 237 397 237c80.667 0 154.5 -14.667 221.5 -44s124.167 -70.666 171.5 -123.999s83.833 -117.666 109.5 -192.999
s38.5 -159.666 38.5 -252.999c0 -98 -12.167 -184.833 -36.5 -260.5s-59.666 -140.167 -105.999 -193.5s-103.5 -94.166 -171.5 -122.499s-143.667 -42.5 -227 -42.5c-84 0 -159.833 13.667 -227.5 41s-125 68.833 -172 124.5s-83 126.334 -108 212.001
s-37.5 183.834 -37.5 294.501zM650.999 1080.99c-76.667 0 -144.999 -20.333 -204.999 -61s-106.333 -98.167 -139 -172.5s-49 -160.166 -49 -257.499c0 -78 8.33301 -149.167 25 -213.5s41.5 -118.666 74.5 -162.999s74.167 -78 123.5 -101s104.666 -34.5 165.999 -34.5
c82.667 0 154.167 20.167 214.5 60.5s105.833 99.166 136.5 176.499s46 169 46 275c0 97.333 -16.167 183.166 -48.5 257.499s-78.5 131.833 -138.5 172.5s-128.667 61 -206 61z" />
    <glyph glyph-name="periodcentered" unicode="&#x431;" horiz-adv-x="1298" 
d="M106 639c0 135.333 10.832 256.327 32.499 362.994s54.334 197 98.001 271s98.167 130.167 163.5 168.5s141 57.5 227 57.5c172 0 258 32.667 258 98h127c0 -42 -12.833 -79.5 -38.5 -112.5s-66 -59.333 -121 -79s-126.167 -29.5 -213.5 -29.5
c-66.667 0 -124.834 -12.5 -174.501 -37.5s-89.667 -57.667 -120 -98s-53 -85 -68 -134s-22.5 -96.833 -22.5 -143.5c112 158 244.333 237 397 237c80.667 0 154.5 -14.667 221.5 -44s124.167 -70.666 171.5 -123.999s83.833 -117.666 109.5 -192.999
s38.5 -159.666 38.5 -252.999c0 -98 -12.167 -184.833 -36.5 -260.5s-59.666 -140.167 -105.999 -193.5s-103.5 -94.166 -171.5 -122.499s-143.667 -42.5 -227 -42.5c-84 0 -159.833 13.667 -227.5 41s-125 68.833 -172 124.5s-83 126.334 -108 212.001
s-37.5 183.834 -37.5 294.501zM650.999 1080.99c-76.667 0 -144.999 -20.333 -204.999 -61s-106.333 -98.167 -139 -172.5s-49 -160.166 -49 -257.499c0 -78 8.33301 -149.167 25 -213.5s41.5 -118.666 74.5 -162.999s74.167 -78 123.5 -101s104.666 -34.5 165.999 -34.5
c82.667 0 154.167 20.167 214.5 60.5s105.833 99.166 136.5 176.499s46 169 46 275c0 97.333 -16.167 183.166 -48.5 257.499s-78.5 131.833 -138.5 172.5s-128.667 61 -206 61z" />
    <glyph glyph-name="quotesinglbase" unicode="&#xe2;" horiz-adv-x="1200" 
d="M180 0l-0.000976562 1167h471c102.667 0 183.834 -11.833 243.501 -35.5s102.334 -58.834 128.001 -105.501s38.5 -106 38.5 -178c0 -39.333 -10 -76 -30 -110s-46.333 -62.5 -79 -85.5s-70 -39.833 -112 -50.5c72 -16.667 131.667 -48.834 179 -96.501
s71 -104.167 71 -169.5c0 -55.333 -10 -104.333 -30 -147s-48.333 -77.834 -85 -105.501s-82.334 -48.5 -137.001 -62.5s-117 -21 -187 -21h-471zM331.999 1036l0.000976562 -367.999h307c89.333 0 156.666 17.167 201.999 51.5s68 79.833 68 136.5
c0 63.333 -18.167 109.166 -54.5 137.499s-102.833 42.5 -199.5 42.5h-323zM332 528.004v-405h315c92 0 164.167 16.5 216.5 49.5s78.5 81.833 78.5 146.5c0 139.333 -101 209 -303 209h-307z" />
    <glyph glyph-name="quotesinglbase" unicode="&#x432;" horiz-adv-x="1200" 
d="M180 0l-0.000976562 1167h471c102.667 0 183.834 -11.833 243.501 -35.5s102.334 -58.834 128.001 -105.501s38.5 -106 38.5 -178c0 -39.333 -10 -76 -30 -110s-46.333 -62.5 -79 -85.5s-70 -39.833 -112 -50.5c72 -16.667 131.667 -48.834 179 -96.501
s71 -104.167 71 -169.5c0 -55.333 -10 -104.333 -30 -147s-48.333 -77.834 -85 -105.501s-82.334 -48.5 -137.001 -62.5s-117 -21 -187 -21h-471zM331.999 1036l0.000976562 -367.999h307c89.333 0 156.666 17.167 201.999 51.5s68 79.833 68 136.5
c0 63.333 -18.167 109.166 -54.5 137.499s-102.833 42.5 -199.5 42.5h-323zM332 528.004v-405h315c92 0 164.167 16.5 216.5 49.5s78.5 81.833 78.5 146.5c0 139.333 -101 209 -303 209h-307z" />
    <glyph glyph-name="quotedblbase" unicode="&#xe3;" horiz-adv-x="1171" 
d="M885 369l147.001 -0.00292969c0 -66.667 -11.833 -125.667 -35.5 -177s-56.5 -93.166 -98.5 -125.499s-91.667 -57 -149 -74s-118.666 -25.5 -183.999 -25.5c-93.333 0 -174.5 13.167 -243.5 39.5s-122.167 65.333 -159.5 117s-56 114.167 -56 187.5
c0 99.333 33 171.833 99 217.5s162.167 84 288.5 115s217.666 59.833 273.999 86.5s84.5 74 84.5 142c0 40 -10.333 75.833 -31 107.5s-50.834 56.5 -90.501 74.5s-86.5 27 -140.5 27c-96 0 -170.333 -22 -223 -66s-82 -103.667 -88 -179h-144
c6.66699 76.667 30 142.5 70 197.5s92.333 96.5 157 124.5s136.667 42 216 42c92.667 0 170.167 -12.5 232.5 -37.5s108.666 -63 138.999 -114s45.5 -113.833 45.5 -188.5c0 -96 -31.5 -166 -94.5 -210s-157.833 -82 -284.5 -114s-218 -61.5 -274 -88.5
s-84 -75.167 -84 -144.5c0 -45.333 12.833 -84.166 38.5 -116.499s61.834 -57.166 108.501 -74.499s98.667 -26 156 -26c202.667 0 310.667 94.333 324 283z" />
    <glyph glyph-name="quotedblbase" unicode="&#x433;" horiz-adv-x="1171" 
d="M885 369l147.001 -0.00292969c0 -66.667 -11.833 -125.667 -35.5 -177s-56.5 -93.166 -98.5 -125.499s-91.667 -57 -149 -74s-118.666 -25.5 -183.999 -25.5c-93.333 0 -174.5 13.167 -243.5 39.5s-122.167 65.333 -159.5 117s-56 114.167 -56 187.5
c0 99.333 33 171.833 99 217.5s162.167 84 288.5 115s217.666 59.833 273.999 86.5s84.5 74 84.5 142c0 40 -10.333 75.833 -31 107.5s-50.834 56.5 -90.501 74.5s-86.5 27 -140.5 27c-96 0 -170.333 -22 -223 -66s-82 -103.667 -88 -179h-144
c6.66699 76.667 30 142.5 70 197.5s92.333 96.5 157 124.5s136.667 42 216 42c92.667 0 170.167 -12.5 232.5 -37.5s108.666 -63 138.999 -114s45.5 -113.833 45.5 -188.5c0 -96 -31.5 -166 -94.5 -210s-157.833 -82 -284.5 -114s-218 -61.5 -274 -88.5
s-84 -75.167 -84 -144.5c0 -45.333 12.833 -84.166 38.5 -116.499s61.834 -57.166 108.501 -74.499s98.667 -26 156 -26c202.667 0 310.667 94.333 324 283z" />
    <glyph glyph-name="perthousand" unicode="&#xe4;" horiz-adv-x="1274" 
d="M1151 1167l0.000976562 -1048c0 -122.667 -19 -224.334 -57 -305.001s-96.167 -140.167 -174.5 -178.5s-177.166 -57.5 -296.499 -57.5c-131.333 0 -235.5 25.833 -312.5 77.5s-123.167 126.834 -138.5 225.501h143c7.33301 -58 39 -104.5 95 -139.5s127 -52.5 213 -52.5
c142 0 245.667 41 311 123c26.667 34 44 71.167 52 111.5s14 112.166 18 215.499c0 5.33301 0.666992 14.666 2 27.999s2 24.666 2 33.999c-62 -72.667 -121.333 -123.667 -178 -153s-124.334 -44 -203.001 -44c-104 0 -195 24.5 -273 73.5s-138 118.833 -180 209.5
s-63 195.667 -63 315c0 117.333 21.5 221.333 64.5 312s103.667 161 182 211s166.833 75 265.5 75c81.333 0 153.166 -15.833 215.499 -47.5s118.833 -81.167 169.5 -148.5v163h143zM258.001 602.003c0 -98 14.665 -182.663 43.998 -253.996s71.833 -126 127.5 -164
s121.5 -57 197.5 -57c126 0 222.333 42.5 289 127.5s100 206.167 100 363.5c0 95.333 -14.5 178.166 -43.5 248.499s-71.5 123.666 -127.5 159.999s-123.333 54.5 -202 54.5c-79.333 0 -147.666 -19.333 -204.999 -58s-101.666 -93.834 -132.999 -165.501
s-47 -156.834 -47 -255.501z" />
    <glyph glyph-name="perthousand" unicode="&#x434;" horiz-adv-x="1274" 
d="M1151 1167l0.000976562 -1048c0 -122.667 -19 -224.334 -57 -305.001s-96.167 -140.167 -174.5 -178.5s-177.166 -57.5 -296.499 -57.5c-131.333 0 -235.5 25.833 -312.5 77.5s-123.167 126.834 -138.5 225.501h143c7.33301 -58 39 -104.5 95 -139.5s127 -52.5 213 -52.5
c142 0 245.667 41 311 123c26.667 34 44 71.167 52 111.5s14 112.166 18 215.499c0 5.33301 0.666992 14.666 2 27.999s2 24.666 2 33.999c-62 -72.667 -121.333 -123.667 -178 -153s-124.334 -44 -203.001 -44c-104 0 -195 24.5 -273 73.5s-138 118.833 -180 209.5
s-63 195.667 -63 315c0 117.333 21.5 221.333 64.5 312s103.667 161 182 211s166.833 75 265.5 75c81.333 0 153.166 -15.833 215.499 -47.5s118.833 -81.167 169.5 -148.5v163h143zM258.001 602.003c0 -98 14.665 -182.663 43.998 -253.996s71.833 -126 127.5 -164
s121.5 -57 197.5 -57c126 0 222.333 42.5 289 127.5s100 206.167 100 363.5c0 95.333 -14.5 178.166 -43.5 248.499s-71.5 123.666 -127.5 159.999s-123.333 54.5 -202 54.5c-79.333 0 -147.666 -19.333 -204.999 -58s-101.666 -93.834 -132.999 -165.501
s-47 -156.834 -47 -255.501z" />
    <glyph glyph-name="Acircumflex" unicode="&#xe5;" horiz-adv-x="1274" 
d="M983 369l152.001 0.00292969c-23.333 -61.333 -49.833 -116 -79.5 -164s-65 -90.167 -106 -126.5s-88 -64 -141 -83s-112.167 -28.5 -177.5 -28.5c-78.667 0 -150.5 14 -215.5 42s-120.167 68.167 -165.5 120.5s-79.833 115.333 -103.5 189s-35.5 157.167 -35.5 250.5
c0 128 21.5 239.5 64.5 334.5s104.833 168.167 185.5 219.5s174.667 77 282 77c94.667 0 178.667 -21.333 252 -64s128.666 -103.334 165.999 -182.001c18 -38.667 31.167 -77.834 39.5 -117.501s14.833 -81.667 19.5 -126l15 -145.5h-881
c0 -152.667 33 -269.334 99 -350.001s161.333 -121 286 -121c90 0 164.333 23.333 223 70s99 115 121 205zM258.001 684.003h725c-4 126.667 -35.667 224.5 -95 293.5s-142.333 103.5 -249 103.5c-70 0 -131.167 -15 -183.5 -45s-95.333 -75 -129 -135
s-56.5 -132.333 -68.5 -217z" />
    <glyph glyph-name="Acircumflex" unicode="&#x435;" horiz-adv-x="1274" 
d="M983 369l152.001 0.00292969c-23.333 -61.333 -49.833 -116 -79.5 -164s-65 -90.167 -106 -126.5s-88 -64 -141 -83s-112.167 -28.5 -177.5 -28.5c-78.667 0 -150.5 14 -215.5 42s-120.167 68.167 -165.5 120.5s-79.833 115.333 -103.5 189s-35.5 157.167 -35.5 250.5
c0 128 21.5 239.5 64.5 334.5s104.833 168.167 185.5 219.5s174.667 77 282 77c94.667 0 178.667 -21.333 252 -64s128.666 -103.334 165.999 -182.001c18 -38.667 31.167 -77.834 39.5 -117.501s14.833 -81.667 19.5 -126l15 -145.5h-881
c0 -152.667 33 -269.334 99 -350.001s161.333 -121 286 -121c90 0 164.333 23.333 223 70s99 115 121 205zM258.001 684.003h725c-4 126.667 -35.667 224.5 -95 293.5s-142.333 103.5 -249 103.5c-70 0 -131.167 -15 -183.5 -45s-95.333 -75 -129 -135
s-56.5 -132.333 -68.5 -217z" />
    <glyph glyph-name="Ecircumflex" unicode="&#xe6;" horiz-adv-x="1966" 
d="M1012 1171v-548l585 548h197l-475 -430l504 -741h-181l-421 647l-209 -188v-459h-148v459l-209 188l-422 -647h-180l508 741l-479 430h213l569 -548v548h148z" />
    <glyph glyph-name="Ecircumflex" unicode="&#x436;" horiz-adv-x="1966" 
d="M1012 1171v-548l585 548h197l-475 -430l504 -741h-181l-421 647l-209 -188v-459h-148v459l-209 188l-422 -647h-180l508 741l-479 430h213l569 -548v548h148z" />
    <glyph glyph-name="Aacute" unicode="&#xe7;" horiz-adv-x="1069" 
d="M545 1065c-82 0 -145.5 -20.833 -190.5 -62.5s-67.5 -93.167 -67.5 -154.5h-156c0 71.333 14.667 132.5 44 183.5s74.333 90.5 135 118.5s136.334 42 227.001 42c264.667 0 397 -109.333 397 -328c0 -58 -21.167 -111 -63.5 -159s-93.5 -81 -153.5 -99
c70 -16.667 128.5 -49.5 175.5 -98.5s70.5 -106.167 70.5 -171.5c0 -109.333 -39.333 -196 -118 -260s-178.667 -96 -300 -96c-80.667 0 -154.667 14.167 -222 42.5s-121 69.666 -161 123.999s-60 117.5 -60 189.5h156c0 -66.667 27.333 -121.667 82 -165s123 -65 205 -65
c80 0 145.667 20.833 197 62.5s77 91.834 77 150.501c0 139.333 -90 209 -270 209h-74v140h70c71.333 0 128.666 17.667 171.999 53s65 80.333 65 135c0 64 -19 114.833 -57 152.5s-98 56.5 -180 56.5z" />
    <glyph glyph-name="Aacute" unicode="&#x437;" horiz-adv-x="1069" 
d="M545 1065c-82 0 -145.5 -20.833 -190.5 -62.5s-67.5 -93.167 -67.5 -154.5h-156c0 71.333 14.667 132.5 44 183.5s74.333 90.5 135 118.5s136.334 42 227.001 42c264.667 0 397 -109.333 397 -328c0 -58 -21.167 -111 -63.5 -159s-93.5 -81 -153.5 -99
c70 -16.667 128.5 -49.5 175.5 -98.5s70.5 -106.167 70.5 -171.5c0 -109.333 -39.333 -196 -118 -260s-178.667 -96 -300 -96c-80.667 0 -154.667 14.167 -222 42.5s-121 69.666 -161 123.999s-60 117.5 -60 189.5h156c0 -66.667 27.333 -121.667 82 -165s123 -65 205 -65
c80 0 145.667 20.833 197 62.5s77 91.834 77 150.501c0 139.333 -90 209 -270 209h-74v140h70c71.333 0 128.666 17.667 171.999 53s65 80.333 65 135c0 64 -19 114.833 -57 152.5s-98 56.5 -180 56.5z" />
    <glyph glyph-name="Edieresis" unicode="&#xe8;" horiz-adv-x="1225" 
d="M1106 1167l-0.000976562 -1167h-152v139c-39.333 -44.667 -76.166 -79.167 -110.499 -103.5s-72.333 -41.833 -114 -52.5s-89.5 -16 -143.5 -16c-149.333 0 -254.333 36.833 -315 110.5s-91 185.834 -91 336.501v753h148v-761c0 -76 9.5 -137.333 28.5 -184
s48.833 -81 89.5 -103s94 -33 160 -33c54 0 103 9.16699 147 27.5s80.5 44.666 109.5 78.999s51.5 76.833 67.5 127.5s24 106.334 24 167.001v680h152z" />
    <glyph glyph-name="Edieresis" unicode="&#x438;" horiz-adv-x="1225" 
d="M1106 1167l-0.000976562 -1167h-152v139c-39.333 -44.667 -76.166 -79.167 -110.499 -103.5s-72.333 -41.833 -114 -52.5s-89.5 -16 -143.5 -16c-149.333 0 -254.333 36.833 -315 110.5s-91 185.834 -91 336.501v753h148v-761c0 -76 9.5 -137.333 28.5 -184
s48.833 -81 89.5 -103s94 -33 160 -33c54 0 103 9.16699 147 27.5s80.5 44.666 109.5 78.999s51.5 76.833 67.5 127.5s24 106.334 24 167.001v680h152z" />
    <glyph glyph-name="Egrave" unicode="&#xe9;" horiz-adv-x="1249" 
d="M1106 1167l-0.000976562 -1167h-152v139c-39.333 -44.667 -76.166 -79.167 -110.499 -103.5s-72.333 -41.833 -114 -52.5s-89.5 -16 -143.5 -16c-149.333 0 -254.333 36.833 -315 110.5s-91 185.834 -91 336.501v753h148v-761c0 -76 9.5 -137.333 28.5 -184
s48.833 -81 89.5 -103s94 -33 160 -33c54 0 103 9.16699 147 27.5s80.5 44.666 109.5 78.999s51.5 76.833 67.5 127.5s24 106.334 24 167.001v680h152zM646.999 1401c-47.333 0 -92.5 8.83301 -135.5 26.5s-78.167 43.167 -105.5 76.5s-41 71.333 -41 114h135
c0 -27.333 14.5 -50 43.5 -68s63.5 -28 103.5 -30c38.667 2 73.667 12 105 30s47 40.667 47 68h135c0 -64.667 -29.5 -117 -88.5 -157s-125.167 -60 -198.5 -60z" />
    <glyph glyph-name="Egrave" unicode="&#x439;" horiz-adv-x="1249" 
d="M1106 1167l-0.000976562 -1167h-152v139c-39.333 -44.667 -76.166 -79.167 -110.499 -103.5s-72.333 -41.833 -114 -52.5s-89.5 -16 -143.5 -16c-149.333 0 -254.333 36.833 -315 110.5s-91 185.834 -91 336.501v753h148v-761c0 -76 9.5 -137.333 28.5 -184
s48.833 -81 89.5 -103s94 -33 160 -33c54 0 103 9.16699 147 27.5s80.5 44.666 109.5 78.999s51.5 76.833 67.5 127.5s24 106.334 24 167.001v680h152zM646.999 1401c-47.333 0 -92.5 8.83301 -135.5 26.5s-78.167 43.167 -105.5 76.5s-41 71.333 -41 114h135
c0 -27.333 14.5 -50 43.5 -68s63.5 -28 103.5 -30c38.667 2 73.667 12 105 30s47 40.667 47 68h135c0 -64.667 -29.5 -117 -88.5 -157s-125.167 -60 -198.5 -60z" />
    <glyph glyph-name="Iacute" unicode="&#xea;" horiz-adv-x="1274" 
d="M180 0v1171h148v-548l577 548h205l-479 -430l508 -741h-181l-421 647l-209 -188v-459h-148z" />
    <glyph glyph-name="Iacute" unicode="&#x43a;" horiz-adv-x="1274" 
d="M180 0v1171h148v-548l577 548h205l-479 -430l508 -741h-181l-421 647l-209 -188v-459h-148z" />
    <glyph glyph-name="Icircumflex" unicode="&#xeb;" horiz-adv-x="1225" 
d="M1098 0l-147.999 -0.00195312v680c0 125.333 -30.333 223.5 -91 294.5s-146.334 106.5 -257.001 106.5c-99.333 0 -171.333 -25.333 -216 -76s-67 -131.667 -67 -243v-762h-143v754c0 100 12.167 182.5 36.5 247.5s66 114.333 125 148s139.167 50.5 240.5 50.5
c54.667 0 103 -5.16699 145 -15.5s80.333 -27.666 115 -51.999s72 -59.166 112 -104.499v139h148v-1167z" />
    <glyph glyph-name="Icircumflex" unicode="&#x43b;" horiz-adv-x="1225" 
d="M1098 0l-147.999 -0.00195312v680c0 125.333 -30.333 223.5 -91 294.5s-146.334 106.5 -257.001 106.5c-99.333 0 -171.333 -25.333 -216 -76s-67 -131.667 -67 -243v-762h-143v754c0 100 12.167 182.5 36.5 247.5s66 114.333 125 148s139.167 50.5 240.5 50.5
c54.667 0 103 -5.16699 145 -15.5s80.333 -27.666 115 -51.999s72 -59.166 112 -104.499v139h148v-1167z" />
    <glyph glyph-name="Idieresis" unicode="&#xec;" horiz-adv-x="1606" 
d="M836 176l507 991h152v-1167h-152v877l-434 -877h-147l-430 877v-877h-152v1167h152z" />
    <glyph glyph-name="Idieresis" unicode="&#x43c;" horiz-adv-x="1606" 
d="M836 176l507 991h152v-1167h-152v877l-434 -877h-147l-430 877v-877h-152v1167h152z" />
    <glyph glyph-name="Igrave" unicode="&#xed;" horiz-adv-x="1225" 
d="M954 528h-622v-528h-152v1167h152v-495h622v495h152v-1167h-152v528z" />
    <glyph glyph-name="Igrave" unicode="&#x43d;" horiz-adv-x="1225" 
d="M954 528h-622v-528h-152v1167h152v-495h622v495h152v-1167h-152v528z" />
    <glyph glyph-name="Oacute" unicode="&#xee;" horiz-adv-x="1327" 
d="M111 586c0 90.667 13.001 173.998 39.001 249.998s63 141 111 195s105.167 95.667 171.5 125s139.166 44 218.499 44c80.667 0 154.5 -14.667 221.5 -44s124.167 -70.666 171.5 -123.999s83.833 -117.666 109.5 -192.999s38.5 -159.666 38.5 -252.999
c0 -98 -12.167 -184.833 -36.5 -260.5s-59.666 -140.167 -105.999 -193.5s-103.5 -94.166 -171.5 -122.499s-143.667 -42.5 -227 -42.5s-158.833 14.167 -226.5 42.5s-124.834 69.666 -171.501 123.999s-82 119.666 -106 195.999s-36 161.833 -36 256.5zM258.001 589.998
c0 -79.333 8.49902 -150 25.499 -212s42.5 -114.333 76.5 -157s75.333 -74.5 124 -95.5s104.334 -31.5 167.001 -31.5c84 0 155.5 18.833 214.5 56.5s103.5 93.5 133.5 167.5s45 164.667 45 272c0 97.333 -16.167 183.166 -48.5 257.499s-78.5 131.833 -138.5 172.5
s-128.667 61 -206 61c-76.667 0 -145 -20.333 -205 -61s-106.333 -98.167 -139 -172.5s-49 -160.166 -49 -257.499z" />
    <glyph glyph-name="Oacute" unicode="&#x43e;" horiz-adv-x="1327" 
d="M111 586c0 90.667 13.001 173.998 39.001 249.998s63 141 111 195s105.167 95.667 171.5 125s139.166 44 218.499 44c80.667 0 154.5 -14.667 221.5 -44s124.167 -70.666 171.5 -123.999s83.833 -117.666 109.5 -192.999s38.5 -159.666 38.5 -252.999
c0 -98 -12.167 -184.833 -36.5 -260.5s-59.666 -140.167 -105.999 -193.5s-103.5 -94.166 -171.5 -122.499s-143.667 -42.5 -227 -42.5s-158.833 14.167 -226.5 42.5s-124.834 69.666 -171.501 123.999s-82 119.666 -106 195.999s-36 161.833 -36 256.5zM258.001 589.998
c0 -79.333 8.49902 -150 25.499 -212s42.5 -114.333 76.5 -157s75.333 -74.5 124 -95.5s104.334 -31.5 167.001 -31.5c84 0 155.5 18.833 214.5 56.5s103.5 93.5 133.5 167.5s45 164.667 45 272c0 97.333 -16.167 183.166 -48.5 257.499s-78.5 131.833 -138.5 172.5
s-128.667 61 -206 61c-76.667 0 -145 -20.333 -205 -61s-106.333 -98.167 -139 -172.5s-49 -160.166 -49 -257.499z" />
    <glyph glyph-name="Ocircumflex" unicode="&#xef;" horiz-adv-x="1249" 
d="M180 0v1167h152v-139c39.333 46 76.166 81 110.499 105s72.5 41.167 114.5 51.5s89.667 15.5 143 15.5c150 0 255.167 -36.333 315.5 -109s90.5 -185 90.5 -337v-754h-148v762c0 75.333 -9.5 136.333 -28.5 183s-49.167 81 -90.5 103s-95.666 33 -162.999 33
c-108 0 -192.333 -35.5 -253 -106.5s-91 -169.167 -91 -294.5v-680h-152z" />
    <glyph glyph-name="Ocircumflex" unicode="&#x43f;" horiz-adv-x="1249" 
d="M180 0v1167h152v-139c39.333 46 76.166 81 110.499 105s72.5 41.167 114.5 51.5s89.667 15.5 143 15.5c150 0 255.167 -36.333 315.5 -109s90.5 -185 90.5 -337v-754h-148v762c0 75.333 -9.5 136.333 -28.5 183s-49.167 81 -90.5 103s-95.666 33 -162.999 33
c-108 0 -192.333 -35.5 -253 -106.5s-91 -169.167 -91 -294.5v-680h-152z" />
    <glyph glyph-name="apple" unicode="&#xf0;" 
d="M328 -418h-148v1585h148v-163c34.667 46 71 83.5 109 112.5s78.833 50.167 122.5 63.5s93.5 20 149.5 20c99.333 0 187.833 -25.167 265.5 -75.5s138.167 -121.5 181.5 -213.5s65 -196.333 65 -313c0 -182.667 -47 -333.5 -141 -452.5s-228.667 -178.5 -404 -178.5
c-72 0 -136 14.667 -192 44s-108 76.333 -156 141v-570zM1073 598c0 72.667 -8.66992 138.834 -26.0029 198.501s-41.666 110.5 -72.999 152.5s-70.166 74.5 -116.499 97.5s-97.166 34.5 -152.499 34.5c-93.333 0 -169 -23.167 -227 -69.5s-99 -107.5 -123 -183.5
s-36 -159.333 -36 -250c0 -98.667 14 -184.834 42 -258.501s69.5 -129.667 124.5 -168s119.833 -57.5 194.5 -57.5c82.667 0 153.5 19.833 212.5 59.5s103.833 97.5 134.5 173.5s46 166.333 46 271z" />
    <glyph glyph-name="apple" unicode="&#x440;" 
d="M328 -418h-148v1585h148v-163c34.667 46 71 83.5 109 112.5s78.833 50.167 122.5 63.5s93.5 20 149.5 20c99.333 0 187.833 -25.167 265.5 -75.5s138.167 -121.5 181.5 -213.5s65 -196.333 65 -313c0 -182.667 -47 -333.5 -141 -452.5s-228.667 -178.5 -404 -178.5
c-72 0 -136 14.667 -192 44s-108 76.333 -156 141v-570zM1073 598c0 72.667 -8.66992 138.834 -26.0029 198.501s-41.666 110.5 -72.999 152.5s-70.166 74.5 -116.499 97.5s-97.166 34.5 -152.499 34.5c-93.333 0 -169 -23.167 -227 -69.5s-99 -107.5 -123 -183.5
s-36 -159.333 -36 -250c0 -98.667 14 -184.834 42 -258.501s69.5 -129.667 124.5 -168s119.833 -57.5 194.5 -57.5c82.667 0 153.5 19.833 212.5 59.5s103.833 97.5 134.5 173.5s46 166.333 46 271z" />
    <glyph glyph-name="Ograve" unicode="&#xf1;" horiz-adv-x="1249" 
d="M975 406l142.999 -0.00195312c-32 -143.333 -89.667 -252.333 -173 -327s-190.666 -112 -321.999 -112c-74 0 -142.833 14.5 -206.5 43.5s-118.334 70.667 -164.001 125s-80.667 118.666 -105 192.999s-36.5 155.833 -36.5 244.5c0 94 13.167 179.833 39.5 257.5
s64.166 144.167 113.499 199.5s107.666 97.5 174.999 126.5s142.333 43.5 225 43.5c61.333 0 118.666 -9 171.999 -27s99.5 -44 138.5 -78s70.667 -75.5 95 -124.5s40.5 -104.833 48.5 -167.5h-143c-8 88.667 -39.167 155.834 -93.5 201.501s-129.833 68.5 -226.5 68.5
c-59.333 0 -114 -11.167 -164 -33.5s-92.333 -55.5 -127 -99.5s-61 -96.667 -79 -158s-27 -129.333 -27 -204c0 -70 8.83301 -134.667 26.5 -194s43.834 -110.666 78.501 -153.999s75.834 -76.166 123.501 -98.499s99.834 -33.5 156.501 -33.5c63.333 0 118.5 12 165.5 36
s84.833 59.167 113.5 105.5s46.334 101.833 53.001 166.5z" />
    <glyph glyph-name="Ograve" unicode="&#x441;" horiz-adv-x="1249" 
d="M975 406l142.999 -0.00195312c-32 -143.333 -89.667 -252.333 -173 -327s-190.666 -112 -321.999 -112c-74 0 -142.833 14.5 -206.5 43.5s-118.334 70.667 -164.001 125s-80.667 118.666 -105 192.999s-36.5 155.833 -36.5 244.5c0 94 13.167 179.833 39.5 257.5
s64.166 144.167 113.499 199.5s107.666 97.5 174.999 126.5s142.333 43.5 225 43.5c61.333 0 118.666 -9 171.999 -27s99.5 -44 138.5 -78s70.667 -75.5 95 -124.5s40.5 -104.833 48.5 -167.5h-143c-8 88.667 -39.167 155.834 -93.5 201.501s-129.833 68.5 -226.5 68.5
c-59.333 0 -114 -11.167 -164 -33.5s-92.333 -55.5 -127 -99.5s-61 -96.667 -79 -158s-27 -129.333 -27 -204c0 -70 8.83301 -134.667 26.5 -194s43.834 -110.666 78.501 -153.999s75.834 -76.166 123.501 -98.499s99.834 -33.5 156.501 -33.5c63.333 0 118.5 12 165.5 36
s84.833 59.167 113.5 105.5s46.334 101.833 53.001 166.5z" />
    <glyph glyph-name="Uacute" unicode="&#xf2;" horiz-adv-x="1888" 
d="M180 0l0.000976562 1167h148v-127c30 36 62 66.167 96 90.5s69.167 42 105.5 53s78.166 16.5 125.499 16.5c82.667 0 151.5 -15.833 206.5 -47.5s99.5 -81.167 133.5 -148.5c43.333 66.667 94.166 116 152.499 148s126.5 48 204.5 48c98.667 0 176 -16.833 232 -50.5
s94.833 -81.667 116.5 -144s32.5 -140.833 32.5 -235.5v-770h-152v782c0 69.333 -8.16699 126.166 -24.5 170.499s-41.5 76.833 -75.5 97.5s-78.333 31 -133 31c-108.667 0 -188.5 -32.667 -239.5 -98s-76.5 -166.333 -76.5 -303v-680h-147v778
c0 105.333 -17.833 182.166 -53.5 230.499s-94.5 72.5 -176.5 72.5c-121.333 0 -206.166 -38.333 -254.499 -115s-72.5 -181.667 -72.5 -315v-651h-148z" />
    <glyph glyph-name="Uacute" unicode="&#x442;" horiz-adv-x="1888" 
d="M180 0l0.000976562 1167h148v-127c30 36 62 66.167 96 90.5s69.167 42 105.5 53s78.166 16.5 125.499 16.5c82.667 0 151.5 -15.833 206.5 -47.5s99.5 -81.167 133.5 -148.5c43.333 66.667 94.166 116 152.499 148s126.5 48 204.5 48c98.667 0 176 -16.833 232 -50.5
s94.833 -81.667 116.5 -144s32.5 -140.833 32.5 -235.5v-770h-152v782c0 69.333 -8.16699 126.166 -24.5 170.499s-41.5 76.833 -75.5 97.5s-78.333 31 -133 31c-108.667 0 -188.5 -32.667 -239.5 -98s-76.5 -166.333 -76.5 -303v-680h-147v778
c0 105.333 -17.833 182.166 -53.5 230.499s-94.5 72.5 -176.5 72.5c-121.333 0 -206.166 -38.333 -254.499 -115s-72.5 -181.667 -72.5 -315v-651h-148z" />
    <glyph glyph-name="Ucircumflex" unicode="&#xf3;" horiz-adv-x="1147" 
d="M147 -283c33.333 -8 63.665 -11.999 90.998 -11.999c37.333 0 68.833 10 94.5 30s46.834 46 63.501 78s30.834 66.167 42.501 102.5l32.5 100.5l-451 1151h156l369 -966l360 966h152l-533 -1368c-23.333 -56.667 -47 -100.334 -71 -131.001s-52.833 -52.667 -86.5 -66
s-75.167 -20 -124.5 -20c-36 0 -67.667 2.66699 -95 8v127z" />
    <glyph glyph-name="Ucircumflex" unicode="&#x443;" horiz-adv-x="1147" 
d="M147 -283c33.333 -8 63.665 -11.999 90.998 -11.999c37.333 0 68.833 10 94.5 30s46.834 46 63.501 78s30.834 66.167 42.501 102.5l32.5 100.5l-451 1151h156l369 -966l360 966h152l-533 -1368c-23.333 -56.667 -47 -100.334 -71 -131.001s-52.833 -52.667 -86.5 -66
s-75.167 -20 -124.5 -20c-36 0 -67.667 2.66699 -95 8v127z" />
    <glyph glyph-name="Ugrave" unicode="&#xf4;" horiz-adv-x="2118" 
d="M1118 1626l-0.000976562 -622c54 70 111.167 120.167 171.5 150.5s131.5 45.5 213.5 45.5c99.333 0 187.833 -25.167 265.5 -75.5s138.167 -121.5 181.5 -213.5s65 -196.333 65 -313c0 -118.667 -20.167 -225.5 -60.5 -320.5s-101.666 -170.5 -183.999 -226.5
s-182.5 -84 -300.5 -84c-50 0 -95 6.5 -135 19.5s-77.833 33.167 -113.5 60.5s-70.167 62.333 -103.5 105v-570h-143v570c-50.667 -64.667 -103.834 -111.667 -159.501 -141s-119.834 -44 -192.501 -44c-88.667 0 -168 16.5 -238 49.5s-127.167 78 -171.5 135
s-78 124 -101 201s-34.5 158.833 -34.5 245.5c0 116.667 21.667 221 65 313s103.833 163.167 181.5 213.5s166.167 75.5 265.5 75.5c82.667 0 153.834 -15.167 213.501 -45.5s116.834 -80.5 171.501 -150.5v622h143zM224.999 598c0 -78.667 8.83594 -149.167 26.5029 -211.5
s43.5 -115.666 77.5 -159.999s75.333 -77.5 124 -99.5s103.667 -33 165 -33c75.333 0 140.166 19 194.499 57s95.666 93.333 123.999 166s42.5 159.667 42.5 261c0 92.667 -11.667 176.5 -35 251.5s-63.833 135.667 -121.5 182s-133.834 69.5 -228.501 69.5
c-54.667 0 -105.167 -11.5 -151.5 -34.5s-85.5 -55.5 -117.5 -97.5s-56.667 -92.833 -74 -152.5s-26 -125.834 -26 -198.501zM1868 598c0 74 -8.83105 140.666 -26.498 199.999s-42.667 109.833 -75 151.5s-71.5 74 -117.5 97s-96 34.5 -150 34.5
c-140 0 -239.167 -47.5 -297.5 -142.5s-87.5 -215.167 -87.5 -360.5c0 -101.333 14.167 -188.333 42.5 -261s69.666 -128 123.999 -166s119.166 -57 194.499 -57c81.333 0 151.5 19.833 210.5 59.5s104.167 97.334 135.5 173.001s47 166.167 47 271.5z" />
    <glyph glyph-name="Ugrave" unicode="&#x444;" horiz-adv-x="2118" 
d="M1118 1626l-0.000976562 -622c54 70 111.167 120.167 171.5 150.5s131.5 45.5 213.5 45.5c99.333 0 187.833 -25.167 265.5 -75.5s138.167 -121.5 181.5 -213.5s65 -196.333 65 -313c0 -118.667 -20.167 -225.5 -60.5 -320.5s-101.666 -170.5 -183.999 -226.5
s-182.5 -84 -300.5 -84c-50 0 -95 6.5 -135 19.5s-77.833 33.167 -113.5 60.5s-70.167 62.333 -103.5 105v-570h-143v570c-50.667 -64.667 -103.834 -111.667 -159.501 -141s-119.834 -44 -192.501 -44c-88.667 0 -168 16.5 -238 49.5s-127.167 78 -171.5 135
s-78 124 -101 201s-34.5 158.833 -34.5 245.5c0 116.667 21.667 221 65 313s103.833 163.167 181.5 213.5s166.167 75.5 265.5 75.5c82.667 0 153.834 -15.167 213.501 -45.5s116.834 -80.5 171.501 -150.5v622h143zM224.999 598c0 -78.667 8.83594 -149.167 26.5029 -211.5
s43.5 -115.666 77.5 -159.999s75.333 -77.5 124 -99.5s103.667 -33 165 -33c75.333 0 140.166 19 194.499 57s95.666 93.333 123.999 166s42.5 159.667 42.5 261c0 92.667 -11.667 176.5 -35 251.5s-63.833 135.667 -121.5 182s-133.834 69.5 -228.501 69.5
c-54.667 0 -105.167 -11.5 -151.5 -34.5s-85.5 -55.5 -117.5 -97.5s-56.667 -92.833 -74 -152.5s-26 -125.834 -26 -198.501zM1868 598c0 74 -8.83105 140.666 -26.498 199.999s-42.667 109.833 -75 151.5s-71.5 74 -117.5 97s-96 34.5 -150 34.5
c-140 0 -239.167 -47.5 -297.5 -142.5s-87.5 -215.167 -87.5 -360.5c0 -101.333 14.167 -188.333 42.5 -261s69.666 -128 123.999 -166s119.166 -57 194.499 -57c81.333 0 151.5 19.833 210.5 59.5s104.167 97.334 135.5 173.001s47 166.167 47 271.5z" />
    <glyph glyph-name="dotlessi" unicode="&#xf5;" horiz-adv-x="1171" 
d="M8 0l451 614l-406 553h172l312 -450l319 450h172l-410 -553l447 -614h-176l-352 500l-353 -500h-176z" />
    <glyph glyph-name="dotlessi" unicode="&#x445;" horiz-adv-x="1171" 
d="M8 0l451 614l-406 553h172l312 -450l319 450h172l-410 -553l447 -614h-176l-352 500l-353 -500h-176z" />
    <glyph glyph-name="circumflex" unicode="&#xf6;" horiz-adv-x="1401" 
d="M1106 1167l-0.000976562 -1040h192v-406h-147v279h-197v139c-39.333 -44.667 -76.166 -79.167 -110.499 -103.5s-72.333 -41.833 -114 -52.5s-89.5 -16 -143.5 -16c-149.333 0 -254.333 36.833 -315 110.5s-91 185.834 -91 336.501v753h148v-761
c0 -76 9.5 -137.333 28.5 -184s48.833 -81 89.5 -103s94 -33 160 -33c54 0 103 9.16699 147 27.5s80.5 44.666 109.5 78.999s51.5 76.833 67.5 127.5s24 106.334 24 167.001v680h152z" />
    <glyph glyph-name="circumflex" unicode="&#x446;" horiz-adv-x="1401" 
d="M1106 1167l-0.000976562 -1040h192v-406h-147v279h-197v139c-39.333 -44.667 -76.166 -79.167 -110.499 -103.5s-72.333 -41.833 -114 -52.5s-89.5 -16 -143.5 -16c-149.333 0 -254.333 36.833 -315 110.5s-91 185.834 -91 336.501v753h148v-761
c0 -76 9.5 -137.333 28.5 -184s48.833 -81 89.5 -103s94 -33 160 -33c54 0 103 9.16699 147 27.5s80.5 44.666 109.5 78.999s51.5 76.833 67.5 127.5s24 106.334 24 167.001v680h152z" />
    <glyph glyph-name="tilde" unicode="&#xf7;" horiz-adv-x="1249" 
d="M1106 1167l-0.000976562 -1167h-152v578c-39.333 -45.333 -76.166 -80 -110.499 -104s-71.5 -41.333 -111.5 -52s-88.667 -16 -146 -16c-100 0 -180.167 16.833 -240.5 50.5s-103 82.834 -128 147.501s-37.5 147.334 -37.5 248.001v315h148v-327
c0 -74 9.5 -134.167 28.5 -180.5s48.833 -80.5 89.5 -102.5s94 -33 160 -33c71.333 0 133.5 16 186.5 48s93.167 78.333 120.5 139s41 132.334 41 215.001v241h152z" />
    <glyph glyph-name="tilde" unicode="&#x447;" horiz-adv-x="1249" 
d="M1106 1167l-0.000976562 -1167h-152v578c-39.333 -45.333 -76.166 -80 -110.499 -104s-71.5 -41.333 -111.5 -52s-88.667 -16 -146 -16c-100 0 -180.167 16.833 -240.5 50.5s-103 82.834 -128 147.501s-37.5 147.334 -37.5 248.001v315h148v-327
c0 -74 9.5 -134.167 28.5 -180.5s48.833 -80.5 89.5 -102.5s94 -33 160 -33c71.333 0 133.5 16 186.5 48s93.167 78.333 120.5 139s41 132.334 41 215.001v241h152z" />
    <glyph glyph-name="macron" unicode="&#xf8;" horiz-adv-x="1835" 
d="M1688 1171l-0.000976562 -1167h-148v127c-47.333 -55.333 -96.666 -95.833 -147.999 -121.5s-111.333 -38.5 -180 -38.5c-79.333 0 -147 16.167 -203 48.5s-101.667 83.166 -137 152.499c-88 -134 -206.667 -201 -356 -201c-76 0 -138.5 9.83301 -187.5 29.5
s-87.667 48.167 -116 85.5s-48.333 82.833 -60 136.5s-17.5 114.834 -17.5 183.501v765h152v-782c0 -104.667 18.5 -180 55.5 -226s96.167 -69 177.5 -69c110.667 0 191 32 241 96s75 164.667 75 302v679h147v-778c0 -103.333 18.333 -179 55 -227s94.667 -72 174 -72
c122.667 0 208 38 256 114s72 180 72 312v651h148z" />
    <glyph glyph-name="macron" unicode="&#x448;" horiz-adv-x="1835" 
d="M1688 1171l-0.000976562 -1167h-148v127c-47.333 -55.333 -96.666 -95.833 -147.999 -121.5s-111.333 -38.5 -180 -38.5c-79.333 0 -147 16.167 -203 48.5s-101.667 83.166 -137 152.499c-88 -134 -206.667 -201 -356 -201c-76 0 -138.5 9.83301 -187.5 29.5
s-87.667 48.167 -116 85.5s-48.333 82.833 -60 136.5s-17.5 114.834 -17.5 183.501v765h152v-782c0 -104.667 18.5 -180 55.5 -226s96.167 -69 177.5 -69c110.667 0 191 32 241 96s75 164.667 75 302v679h147v-778c0 -103.333 18.333 -179 55 -227s94.667 -72 174 -72
c122.667 0 208 38 256 114s72 180 72 312v651h148z" />
    <glyph glyph-name="breve" unicode="&#xf9;" horiz-adv-x="1991" 
d="M1688 1163l-0.000976562 -1044h196v-406h-147v287h-197v123c-47.333 -57.333 -96.666 -99 -147.999 -125s-111.333 -39 -180 -39c-157.333 0 -270.666 67 -339.999 201c-88 -134 -206.667 -201 -356 -201c-73.333 0 -135 9.66699 -185 29s-89.333 48 -118 86
s-48.834 83.5 -60.501 136.5s-17.5 113.833 -17.5 182.5v770h152v-782c0 -104.667 18.5 -180.667 55.5 -228s96.167 -71 177.5 -71c73.333 0 133.333 14.333 180 43s81 72.167 103 130.5s33 134.166 33 227.499v680h147v-778c0 -104 18.333 -180.5 55 -229.5
s94.667 -73.5 174 -73.5c122.667 0 208 38.5 256 115.5s72 181.833 72 314.5v651h148z" />
    <glyph glyph-name="breve" unicode="&#x449;" horiz-adv-x="1991" 
d="M1688 1163l-0.000976562 -1044h196v-406h-147v287h-197v123c-47.333 -57.333 -96.666 -99 -147.999 -125s-111.333 -39 -180 -39c-157.333 0 -270.666 67 -339.999 201c-88 -134 -206.667 -201 -356 -201c-73.333 0 -135 9.66699 -185 29s-89.333 48 -118 86
s-48.834 83.5 -60.501 136.5s-17.5 113.833 -17.5 182.5v770h152v-782c0 -104.667 18.5 -180.667 55.5 -228s96.167 -71 177.5 -71c73.333 0 133.333 14.333 180 43s81 72.167 103 130.5s33 134.166 33 227.499v680h147v-778c0 -104 18.333 -180.5 55 -229.5
s94.667 -73.5 174 -73.5c122.667 0 208 38.5 256 115.5s72 181.833 72 314.5v651h148z" />
    <glyph glyph-name="dotaccent" unicode="&#xfa;" horiz-adv-x="1401" 
d="M537 1167v-499h303c96 0 178 -14.5 246 -43.5s119.667 -69 155 -120s53 -107.167 53 -168.5c0 -55.333 -9.5 -104 -28.5 -146s-47.167 -77.167 -84.5 -105.5s-83.333 -49.5 -138 -63.5s-117 -21 -187 -21h-471v1040h-279v127h431zM537 528v-405h315
c92 0 164.167 16.5 216.5 49.5s78.5 81.833 78.5 146.5c0 139.333 -102.333 209 -307 209h-303z" />
    <glyph glyph-name="dotaccent" unicode="&#x44a;" horiz-adv-x="1401" 
d="M537 1167v-499h303c96 0 178 -14.5 246 -43.5s119.667 -69 155 -120s53 -107.167 53 -168.5c0 -55.333 -9.5 -104 -28.5 -146s-47.167 -77.167 -84.5 -105.5s-83.333 -49.5 -138 -63.5s-117 -21 -187 -21h-471v1040h-279v127h431zM537 528v-405h315
c92 0 164.167 16.5 216.5 49.5s78.5 81.833 78.5 146.5c0 139.333 -102.333 209 -307 209h-303z" />
    <glyph glyph-name="ring" unicode="&#xfb;" horiz-adv-x="1581" 
d="M332 1167v-499h299c96 0 178 -14.5 246 -43.5s119.667 -69 155 -120s53 -107.167 53 -168.5c0 -55.333 -9.5 -104 -28.5 -146s-47.167 -77.167 -84.5 -105.5s-83.333 -49.5 -138 -63.5s-117 -21 -187 -21h-467v1167h152zM1307 0v1167h147v-1167h-147zM332 528v-405h311
c92 0 164.167 16.5 216.5 49.5s78.5 81.833 78.5 146.5c0 139.333 -102.333 209 -307 209h-299z" />
    <glyph glyph-name="ring" unicode="&#x44b;" horiz-adv-x="1581" 
d="M332 1167v-499h299c96 0 178 -14.5 246 -43.5s119.667 -69 155 -120s53 -107.167 53 -168.5c0 -55.333 -9.5 -104 -28.5 -146s-47.167 -77.167 -84.5 -105.5s-83.333 -49.5 -138 -63.5s-117 -21 -187 -21h-467v1167h152zM1307 0v1167h147v-1167h-147zM332 528v-405h311
c92 0 164.167 16.5 216.5 49.5s78.5 81.833 78.5 146.5c0 139.333 -102.333 209 -307 209h-299z" />
    <glyph glyph-name="cedilla" unicode="&#xfc;" horiz-adv-x="1200" 
d="M332 1167v-499h299c96 0 178 -14.5 246 -43.5s119.667 -69 155 -120s53 -107.167 53 -168.5c0 -55.333 -9.5 -104 -28.5 -146s-47.167 -77.167 -84.5 -105.5s-83.333 -49.5 -138 -63.5s-117 -21 -187 -21h-467v1167h152zM332 528v-405h311c92 0 164.167 16.5 216.5 49.5
s78.5 81.833 78.5 146.5c0 139.333 -102.333 209 -307 209h-299z" />
    <glyph glyph-name="cedilla" unicode="&#x44c;" horiz-adv-x="1200" 
d="M332 1167v-499h299c96 0 178 -14.5 246 -43.5s119.667 -69 155 -120s53 -107.167 53 -168.5c0 -55.333 -9.5 -104 -28.5 -146s-47.167 -77.167 -84.5 -105.5s-83.333 -49.5 -138 -63.5s-117 -21 -187 -21h-467v1167h152zM332 528v-405h311c92 0 164.167 16.5 216.5 49.5
s78.5 81.833 78.5 146.5c0 139.333 -102.333 209 -307 209h-299z" />
    <glyph glyph-name="hungarumlaut" unicode="&#xfd;" horiz-adv-x="1200" 
d="M954 672c0 74.667 -14.998 142.5 -44.998 203.5s-72.5 108.5 -127.5 142.5s-117.5 51 -187.5 51c-90.667 0 -167.334 -23.167 -230.001 -69.5s-103.334 -111.833 -122.001 -196.5h-144c12.667 60.667 34.667 115.5 66 164.5s69.5 89.833 114.5 122.5
s94.833 57.834 149.5 75.501s110 26.5 166 26.5c80 0 151.833 -14.167 215.5 -42.5s117.334 -69.166 161.001 -122.499s77.167 -118.833 100.5 -196.5s35 -163.5 35 -257.5c0 -117.333 -21.167 -222.333 -63.5 -315s-102.166 -164.334 -179.499 -215.001s-167 -76 -269 -76
c-88.667 0 -168.5 15.667 -239.5 47s-128.833 79.666 -173.5 144.999s-72.334 147.666 -83.001 246.999h144c10 -97.333 45.833 -173.666 107.5 -228.999s140.5 -83 236.5 -83c72 0 135.667 18.667 191 56s98.666 89.333 129.999 156s47 140.667 47 222h-413v144h413z" />
    <glyph glyph-name="hungarumlaut" unicode="&#x44d;" horiz-adv-x="1200" 
d="M954 672c0 74.667 -14.998 142.5 -44.998 203.5s-72.5 108.5 -127.5 142.5s-117.5 51 -187.5 51c-90.667 0 -167.334 -23.167 -230.001 -69.5s-103.334 -111.833 -122.001 -196.5h-144c12.667 60.667 34.667 115.5 66 164.5s69.5 89.833 114.5 122.5
s94.833 57.834 149.5 75.501s110 26.5 166 26.5c80 0 151.833 -14.167 215.5 -42.5s117.334 -69.166 161.001 -122.499s77.167 -118.833 100.5 -196.5s35 -163.5 35 -257.5c0 -117.333 -21.167 -222.333 -63.5 -315s-102.166 -164.334 -179.499 -215.001s-167 -76 -269 -76
c-88.667 0 -168.5 15.667 -239.5 47s-128.833 79.666 -173.5 144.999s-72.334 147.666 -83.001 246.999h144c10 -97.333 45.833 -173.666 107.5 -228.999s140.5 -83 236.5 -83c72 0 135.667 18.667 191 56s98.666 89.333 129.999 156s47 140.667 47 222h-413v144h413z" />
    <glyph glyph-name="ogonek" unicode="&#xfe;" horiz-adv-x="1733" 
d="M561 672c8.66699 79.333 27.332 151.33 55.999 215.997s66.667 120.5 114 167.5s102.166 82.833 164.499 107.5s129.833 37 202.5 37c80.667 0 154.167 -14.667 220.5 -44s123.333 -70.666 171 -123.999s84.334 -117.666 110.001 -192.999s38.5 -159.666 38.5 -252.999
c0 -96.667 -12 -183 -36 -259s-59 -140.833 -105 -194.5s-102.667 -94.667 -170 -123s-143.666 -42.5 -228.999 -42.5c-108 0 -201.5 22.333 -280.5 67s-141 109 -186 193s-71.167 184.333 -78.5 301h-221v-528h-152v1167h152v-495h229zM704.998 589.997
c0 -160.667 34 -283.5 102 -368.5s165 -127.5 291 -127.5c127.333 0 225.333 42.5 294 127.5s103 207.833 103 368.5c0 97.333 -16.333 183.166 -49 257.499s-79.167 131.833 -139.5 172.5s-129.833 61 -208.5 61c-77.333 0 -146 -20.333 -206 -61
s-106.167 -98.167 -138.5 -172.5s-48.5 -160.166 -48.5 -257.499z" />
    <glyph glyph-name="ogonek" unicode="&#x44e;" horiz-adv-x="1733" 
d="M561 672c8.66699 79.333 27.332 151.33 55.999 215.997s66.667 120.5 114 167.5s102.166 82.833 164.499 107.5s129.833 37 202.5 37c80.667 0 154.167 -14.667 220.5 -44s123.333 -70.666 171 -123.999s84.334 -117.666 110.001 -192.999s38.5 -159.666 38.5 -252.999
c0 -96.667 -12 -183 -36 -259s-59 -140.833 -105 -194.5s-102.667 -94.667 -170 -123s-143.666 -42.5 -228.999 -42.5c-108 0 -201.5 22.333 -280.5 67s-141 109 -186 193s-71.167 184.333 -78.5 301h-221v-528h-152v1167h152v-495h229zM704.998 589.997
c0 -160.667 34 -283.5 102 -368.5s165 -127.5 291 -127.5c127.333 0 225.333 42.5 294 127.5s103 207.833 103 368.5c0 97.333 -16.333 183.166 -49 257.499s-79.167 131.833 -139.5 172.5s-129.833 61 -208.5 61c-77.333 0 -146 -20.333 -206 -61
s-106.167 -98.167 -138.5 -172.5s-48.5 -160.166 -48.5 -257.499z" />
    <glyph glyph-name="caron" unicode="&#xff;" horiz-adv-x="1274" 
d="M950 528l-401.003 -0.00195312c-49.333 0 -87.166 -14.5 -113.499 -43.5s-43.833 -60.5 -52.5 -94.5s-20.167 -96.667 -34.5 -188s-28.166 -158.666 -41.499 -201.999h-155c26.667 67.333 48.167 152.666 64.5 255.999s34.333 178.5 54 225.5
s61.834 87.167 126.501 120.5c-30.667 0 -62.834 10.333 -96.501 31s-61.5 51.167 -83.5 91.5s-33 86.833 -33 139.5c0 44.667 9.33301 85.834 28 123.501s44.334 69.834 77.001 96.501s71.5 47.167 116.5 61.5s92.833 21.5 143.5 21.5h549v-1167h-148v528zM953.997 671.998
v360h-405c-144.667 0 -217 -58.667 -217 -176c0 -58 19.833 -103.167 59.5 -135.5s89.5 -48.5 149.5 -48.5h413z" />
    <glyph glyph-name="caron" unicode="&#x44f;" horiz-adv-x="1274" 
d="M950 528l-401.003 -0.00195312c-49.333 0 -87.166 -14.5 -113.499 -43.5s-43.833 -60.5 -52.5 -94.5s-20.167 -96.667 -34.5 -188s-28.166 -158.666 -41.499 -201.999h-155c26.667 67.333 48.167 152.666 64.5 255.999s34.333 178.5 54 225.5
s61.834 87.167 126.501 120.5c-30.667 0 -62.834 10.333 -96.501 31s-61.5 51.167 -83.5 91.5s-33 86.833 -33 139.5c0 44.667 9.33301 85.834 28 123.501s44.334 69.834 77.001 96.501s71.5 47.167 116.5 61.5s92.833 21.5 143.5 21.5h549v-1167h-148v528zM953.997 671.998
v360h-405c-144.667 0 -217 -58.667 -217 -176c0 -58 19.833 -103.167 59.5 -135.5s89.5 -48.5 149.5 -48.5h413z" />
    <glyph glyph-name="aring" unicode="&#x152;" horiz-adv-x="1376" 
d="M225 1274l381 -389l398 389l61 -62l-393 -389l393 -389l-61 -65l-390 389l-397 -389l-61 65l393 389l-389 389z" />
    <glyph glyph-name="uacute" unicode="&#x153;" horiz-adv-x="1503" 
d="M262 0l-123 274l533 1352h168l528 -1364l-94 -262h-1012zM258 127h1008l-512 1343z" />
    <glyph glyph-name="adieresis" unicode="&#x160;" horiz-adv-x="1249" 
d="M885 369l147.001 -0.00292969c0 -66.667 -11.833 -125.667 -35.5 -177s-56.5 -93.166 -98.5 -125.499s-91.667 -57 -149 -74s-118.666 -25.5 -183.999 -25.5c-93.333 0 -174.5 13.167 -243.5 39.5s-122.167 65.333 -159.5 117s-56 114.167 -56 187.5
c0 99.333 33 171.833 99 217.5s162.167 84 288.5 115s217.666 59.833 273.999 86.5s84.5 74 84.5 142c0 40 -10.333 75.833 -31 107.5s-50.834 56.5 -90.501 74.5s-86.5 27 -140.5 27c-96 0 -170.333 -22 -223 -66s-82 -103.667 -88 -179h-144
c6.66699 76.667 30 142.5 70 197.5s92.333 96.5 157 124.5s136.667 42 216 42c92.667 0 170.167 -12.5 232.5 -37.5s108.666 -63 138.999 -114s45.5 -113.833 45.5 -188.5c0 -96 -31.5 -166 -94.5 -210s-157.833 -82 -284.5 -114s-218 -61.5 -274 -88.5
s-84 -75.167 -84 -144.5c0 -45.333 12.833 -84.166 38.5 -116.499s61.834 -57.166 108.501 -74.499s98.667 -26 156 -26c202.667 0 310.667 94.333 324 283zM520.001 1380l197 303h192l-270 -303h-119z" />
    <glyph glyph-name="odieresis" unicode="&#x161;" horiz-adv-x="942" 
d="M528 1618h164v-799h-164v799zM528 373h164v-783h-164v783z" />
    <glyph glyph-name="udieresis" unicode="&#x178;" horiz-adv-x="1327" 
d="M61 864h1098v-86h-1098v86zM614 1364c25.333 0 46 -8.83105 62 -26.498s24 -38.834 24 -63.501s-7.83301 -45.167 -23.5 -61.5s-36.5 -24.5 -62.5 -24.5c-25.333 0 -46.666 8.16699 -63.999 24.5s-26 36.833 -26 61.5c0 25.333 8.66699 46.666 26 63.999
s38.666 26 63.999 26zM614 459.002c25.333 0 46 -8.83301 62 -26.5s24 -38.834 24 -63.501c0 -24 -9 -44.333 -27 -61s-37.667 -25 -59 -25c-25.333 0 -47.333 8.33301 -66 25s-28 37 -28 61c0 24.667 9.33301 45.834 28 63.501s40.667 26.5 66 26.5z" />
    <glyph glyph-name="Eacute" unicode="&#x192;" horiz-adv-x="1376" 
d="M885 1270l237.003 -0.00195312l-16 -107h-242l-168 -983c-16.667 -95.333 -28.5 -160.166 -35.5 -194.499s-15.5 -63.5 -25.5 -87.5s-23.667 -48.667 -41 -74c-90.667 -126 -220.334 -189 -389.001 -189c-46.667 0 -81 7 -103 21l25 139
c19.333 -5.33301 42.666 -8 69.999 -8c66.667 0 121.167 10 163.5 30s75.5 48.5 99.5 85.5s42 77.833 54 122.5s23.667 103.334 35 176.001l172 962h-238l25 107h233c63.333 352 205.333 528 426 528h29c0 -2.66699 5.33301 -4 16 -4l-24 -160c-8 0 -15.667 0.666992 -23 2
s-13.333 2 -18 2c-58.667 0 -105.5 -18.833 -140.5 -56.5s-60.833 -82 -77.5 -133s-31.334 -110.5 -44.001 -178.5z" />
    <glyph glyph-name="agrave" unicode="&#x2c6;" horiz-adv-x="1327" 
d="M197 0v1626h933v-143h-770v-1483h-163zM553 1753l197 299h192l-274 -299h-115z" />
    <glyph glyph-name="ograve" unicode="&#x2dc;" 
d="M1192 586c0 -98 -12.167 -184.836 -36.5 -260.503s-59.666 -140.167 -105.999 -193.5s-103.5 -94.166 -171.5 -122.499s-143.667 -42.5 -227 -42.5s-158.833 14.167 -226.5 42.5s-124.834 69.666 -171.501 123.999s-82 119.666 -106 195.999s-36 161.833 -36 256.5
c0 90.667 13 174 39 250s63 141 111 195s105.167 95.667 171.5 125s139.166 44 218.499 44c52 0 101.833 -6.66699 149.5 -20s91.5 -33.166 131.5 -59.499s74.667 -57.166 104 -92.499c0 70.667 -16.667 143.334 -50 218.001s-80 136.167 -140 184.5
s-126.333 72.5 -199 72.5c-48 0 -89.333 -5.5 -124 -16.5s-64.5 -26.167 -89.5 -45.5s-54.833 -47.666 -89.5 -84.999l-65 114c95.333 106.667 215.333 160 360 160c71.333 0 138.333 -14 201 -42s120.834 -79 174.501 -153s96.667 -180.5 129 -319.5
s48.5 -315.5 48.5 -529.5zM258 589.997c0 -79.333 8.49902 -150 25.499 -212s42.5 -114.333 76.5 -157s75.333 -74.5 124 -95.5s104.334 -31.5 167.001 -31.5c84 0 155.5 18.833 214.5 56.5s103.5 93.5 133.5 167.5s45 164.667 45 272
c0 97.333 -16.167 183.166 -48.5 257.499s-78.5 131.833 -138.5 172.5s-128.667 61 -206 61c-76.667 0 -145 -20.333 -205 -61s-106.333 -98.167 -139 -172.5s-49 -160.166 -49 -257.499z" />
    <glyph glyph-name="ntilde" unicode="&#x2013;" horiz-adv-x="1274" 
d="M180 516v139h926v-139h-926z" />
    <glyph glyph-name="oacute" unicode="&#x2014;" horiz-adv-x="1733" 
d="M0 516v139h1556v-139h-1556z" />
    <glyph glyph-name="edieresis" unicode="&#x2018;" horiz-adv-x="537" 
d="M180 1106v171.999c0 70 5.5 127.667 16.5 173s29.167 81.833 54.5 109.5s59 49.5 101 65.5v-98c-30.667 -14 -52.667 -34.833 -66 -62.5s-20 -68.5 -20 -122.5c0 -4 1.33301 -9.66699 4 -17s4 -13.666 4 -18.999h78v-201h-172z" />
    <glyph glyph-name="iacute" unicode="&#x2019;" horiz-adv-x="537" 
d="M352 1626v-180.001c0 -104.667 -12.667 -182.167 -38 -232.5s-70 -86.166 -134 -107.499v94c32 15.333 53.667 36 65 62s17 66.667 17 122v33h-82v209h172z" />
    <glyph glyph-name="Ccedilla" unicode="&#x201a;" horiz-adv-x="1454" 
d="M586 0v590h-500v119h500l-135 196h-365v123h283l-398 598h181l512 -778l503 778h176l-389 -598h287v-123h-364l-127 -196h491v-119h-491v-590h-164z" />
    <glyph glyph-name="igrave" unicode="&#x201c;" horiz-adv-x="840" 
d="M180 1106v172c0 70 5.5 127.667 16.5 173s29.167 81.833 54.5 109.5s59 49.5 101 65.5v-98c-32 -14 -54.333 -34.5 -67 -61.5s-19 -68.167 -19 -123.5v-36h86v-201h-172zM475 1106l0.000976562 172.001c0 103.333 13.333 181.166 40 233.499s70.667 90.5 132 114.5v-98
c-28.667 -14 -48.834 -34.667 -60.501 -62s-17.5 -68.333 -17.5 -123v-36h78v-201h-172z" />
    <glyph glyph-name="icircumflex" unicode="&#x201d;" horiz-adv-x="840" 
d="M647 1626v-180.001c0 -104.667 -12.667 -182.167 -38 -232.5s-70 -86.166 -134 -107.499v94c33.333 15.333 56 36 68 62s18 66.667 18 122v33h-86v209h172zM352 1626v-180.002c0 -104.667 -12.667 -182.167 -38 -232.5s-70 -86.166 -134 -107.499v94
c30.667 16 52 37.167 64 63.5s18 66.5 18 120.5c0 2.66699 -0.666992 7.33398 -2 14.001s-2 13 -2 19h-78v209h172z" />
    <glyph glyph-name="Ntilde" unicode="&#x201e;" horiz-adv-x="918" 
d="M78 283l266.001 0.000976562v-254c0 -72.667 -10 -136.334 -30 -191.001s-49.833 -98.5 -89.5 -131.5s-88.5 -55.167 -146.5 -66.5v127c33.333 12 58.333 26.167 75 42.5s28.667 38.5 36 66.5s12.666 69.333 15.999 124h-127v283zM467.001 283.001h266v-254
c0 -109.333 -22.833 -197.5 -68.5 -264.5s-111.5 -108.5 -197.5 -124.5v127c44.667 16.667 76 41.167 94 73.5s29 85.5 33 159.5h-127v283z" />
    <glyph glyph-name="Udieresis" unicode="&#x2020;" horiz-adv-x="1581" 
d="M717 -283v1209h-520v131h520v569h143v-569h520v-131h-520v-1209h-143z" />
    <glyph glyph-name="aacute" unicode="&#x2021;" horiz-adv-x="1532" 
d="M717 958h-520v127h520v541h143v-541h520v-127h-520v-294h520v-136h-520v-811h-143v811h-520v136h520v294z" />
    <glyph glyph-name="idieresis" unicode="&#x2022;" 
d="M483 696c0 42.667 10.668 81.999 32.001 117.999s49.833 64.333 85.5 85s74.5 31 116.5 31c43.333 0 83 -10.167 119 -30.5s64.667 -48.666 86 -84.999s32 -75.833 32 -118.5c0 -41.333 -10.5 -79.833 -31.5 -115.5s-50 -64.167 -87 -85.5s-76.5 -32 -118.5 -32
c-40.667 0 -79.334 10.667 -116.001 32s-65.5 49.833 -86.5 85.5s-31.5 74.167 -31.5 115.5z" />
    <glyph glyph-name="Odieresis" unicode="&#x2026;" horiz-adv-x="1556" 
d="M180 0v205h172v-205h-172zM705 0v205h172v-205h-172zM1229 0v205h172v-205h-172z" />
    <glyph glyph-name="acircumflex" unicode="&#x2030;" horiz-adv-x="2523" 
d="M82 1217c0 134 25.001 236.333 75.001 307s122 106 216 106c63.333 0 116.666 -15.667 159.999 -47s76 -77.666 98 -138.999s33 -137 33 -227c0 -88.667 -11 -164 -33 -226s-54.5 -108.833 -97.5 -140.5s-96.5 -47.5 -160.5 -47.5c-94 0 -166 35.667 -216 107
s-75 173.666 -75 306.999zM242.001 0l1036 1626h143l-1036 -1626h-143zM1004 410c0 275.333 95.334 413 286.001 413c94 0 166 -35.333 216 -106s75 -173 75 -307c0 -138 -24.833 -242.167 -74.5 -312.5s-121.834 -105.5 -216.501 -105.5s-166 35.333 -214 106
s-72 174.667 -72 312zM1745 410c0 132.667 25.167 234.667 75.5 306s123.5 107 219.5 107c94 0 165.333 -35.5 214 -106.5s73 -173.167 73 -306.5c0 -137.333 -24.333 -241.333 -73 -312s-120 -106 -214 -106c-96 0 -169.167 35.5 -219.5 106.5s-75.5 174.833 -75.5 311.5z
M1118 410c0 -101.333 14.5 -179.333 43.5 -234s71.833 -82 128.5 -82c56 0 98.667 27.167 128 81.5s44 132.5 44 234.5s-14.667 179.333 -44 232s-72 79 -128 79c-114.667 0 -172 -103.667 -172 -311zM201.002 1217c0 -102 15.001 -179.5 45.001 -232.5
s72.333 -79.5 127 -79.5c114.667 0 172 104 172 312c0 68.667 -6.5 126.334 -19.5 173.001s-32 82 -57 106s-56.833 36 -95.5 36c-36.667 0 -67.834 -12 -93.501 -36s-45.167 -59.833 -58.5 -107.5s-20 -104.834 -20 -171.501zM1864 410
c0 -102.667 15.166 -180.999 45.499 -234.999s73.833 -81 130.5 -81c54.667 0 96.334 26.833 125.001 80.5s43 132.167 43 235.5c0 69.333 -6.33301 126.666 -19 171.999s-31.667 79.833 -57 103.5s-56 35.5 -92 35.5c-56.667 0 -100.167 -26.167 -130.5 -78.5
s-45.5 -129.833 -45.5 -232.5z" />
    <glyph glyph-name="atilde" unicode="&#x2039;" horiz-adv-x="741" 
d="M496 979v-172l-254 -217l254 -221v-181l-377 332v127z" />
    <glyph glyph-name="otilde" unicode="&#x203a;" horiz-adv-x="741" 
d="M156 979l381 -332v-127l-381 -332v181l254 221l-254 217v172z" />
    <glyph glyph-name="ocircumflex" unicode="&#x2122;" horiz-adv-x="2220" 
d="M365 651v877h-324v98h766v-98h-320v-877h-122zM979 651v975h139l340 -831l336 831h143v-975h-114v766l-312 -766h-106l-320 766v-766h-106z" />
    <glyph glyph-name="summation" unicode="&#x2219;" horiz-adv-x="590" 
d="M180 508v201h172v-201h-172z" />
    <glyph glyph-name=".null" horiz-adv-x="0" 
 />
    <glyph glyph-name="nonmarkingreturn" horiz-adv-x="0" 
 />
  </font>
</defs>
</svg>
